M48
; DRILL file {KiCad 9.0.4} date 2026-05-02T13:51:30+0100
; FORMAT={-:-/ absolute / metric / decimal}
; #@! TF.CreationDate,2026-05-02T13:51:30+01:00
; #@! TF.GenerationSoftware,Kicad,Pcbnew,9.0.4
; #@! TF.FileFunction,Plated,1,2,PTH
FMAT,2
METRIC
; #@! TA.AperFunction,Plated,PTH,ComponentDrill
T1C0.750
; #@! TA.AperFunction,Plated,PTH,ComponentDrill
T2C0.800
; #@! TA.AperFunction,Plated,PTH,ComponentDrill
T3C0.900
; #@! TA.AperFunction,Plated,PTH,ComponentDrill
T4C1.000
; #@! TA.AperFunction,Plated,PTH,ComponentDrill
T5C1.100
; #@! TA.AperFunction,Plated,PTH,ComponentDrill
T6C1.200
; #@! TA.AperFunction,Plated,PTH,ComponentDrill
T7C1.230
; #@! TA.AperFunction,Plated,PTH,ComponentDrill
T8C1.600
%
G90
G05
T1
X200.03Y-66.26
X201.3Y-66.26
X202.57Y-66.26
T2
X60.35Y-144.185
X60.35Y-149.185
X80.55Y-112.455
X84.05Y-112.455
X90.25Y-143.785
X90.25Y-148.785
X99.2Y-108.285
X102.7Y-108.285
X112.21Y-122.46
X112.21Y-125.96
X170.01Y-70.06
X175.01Y-70.06
X180.72Y-59.59
X185.05Y-103.43
X185.05Y-106.93
X185.72Y-59.59
X186.66Y-133.46
X186.66Y-136.96
X222.46Y-148.06
X222.61Y-116.88
X227.46Y-148.06
X227.61Y-116.88
T3
X68.61Y-136.885
X71.15Y-136.885
X96.51Y-137.885
X99.05Y-137.885
X140.19Y-97.095
X140.19Y-99.635
X140.19Y-102.175
X140.19Y-104.715
X140.19Y-107.255
X140.19Y-109.795
X140.19Y-112.335
X140.19Y-114.875
X140.19Y-117.415
X140.19Y-119.955
X140.19Y-122.495
X140.19Y-125.035
X140.19Y-127.575
X140.19Y-130.115
X140.19Y-132.655
X140.19Y-135.195
X140.19Y-137.735
X140.19Y-140.275
X140.19Y-142.815
X165.59Y-97.095
X165.59Y-99.635
X165.59Y-102.175
X165.59Y-104.715
X165.59Y-107.255
X165.59Y-109.795
X165.59Y-112.335
X165.59Y-114.875
X165.59Y-117.415
X165.59Y-119.955
X165.59Y-122.495
X165.59Y-125.035
X165.59Y-127.575
X165.59Y-130.115
X165.59Y-132.655
X165.59Y-135.195
X165.59Y-137.735
X165.59Y-140.275
X165.59Y-142.815
X215.11Y-106.18
X215.11Y-108.72
X216.36Y-137.42
X216.36Y-139.96
X217.43Y-86.36
X219.97Y-86.36
T4
X53.18Y-65.985
X53.18Y-68.525
X53.18Y-71.065
X53.6Y-76.72
X53.6Y-84.22
X66.6Y-65.895
X66.6Y-73.395
X66.845Y-58.75
X71.74Y-66.03
X71.74Y-68.57
X71.74Y-71.11
X71.74Y-73.65
X74.345Y-58.75
X76.93Y-66.05
X76.93Y-68.59
X76.93Y-71.13
X81.26Y-66.1
X81.26Y-68.64
X81.26Y-71.18
X86.54Y-66.13
X86.54Y-68.67
X86.54Y-71.21
X91.97Y-66.17
X91.97Y-68.71
X91.97Y-71.25
X98.13Y-65.755
X98.13Y-73.255
X101.615Y-83.89
X107.06Y-65.15
X109.115Y-83.89
X109.56Y-65.15
X110.535Y-133.08
X112.06Y-65.15
X115.475Y-87.95
X118.035Y-133.08
X119.93Y-65.08
X122.43Y-65.08
X122.975Y-87.95
X124.93Y-65.08
X146.58Y-66.19
X149.12Y-66.19
X151.66Y-66.19
X154.2Y-66.19
X157.12Y-75.01
X158.125Y-83.07
X159.66Y-75.01
X162.2Y-75.01
X164.74Y-75.01
X165.625Y-83.07
X182.76Y-71.77
X182.76Y-74.31
X182.76Y-76.85
X182.76Y-79.39
X182.76Y-81.93
X182.76Y-84.47
X198.925Y-57.65
X199.06Y-77.65
X206.425Y-57.65
X206.66Y-77.65
X210.57Y-44.285
X210.57Y-51.785
X212.505Y-57.65
X215.045Y-57.65
T5
X53.78Y-56.39
X53.78Y-60.89
X60.28Y-56.39
X60.28Y-60.89
X71.37Y-146.585
X76.45Y-146.585
X99.45Y-147.065
X104.53Y-147.065
X129.28Y-88.04
X129.28Y-92.54
X135.78Y-88.04
X135.78Y-92.54
X160.41Y-45.0
X165.49Y-45.0
X172.83Y-45.0
X177.91Y-45.0
X224.86Y-133.26
X224.86Y-138.34
X225.51Y-101.84
X225.51Y-106.92
T6
X54.85Y-119.875
X54.85Y-140.195
X59.52Y-65.73
X59.52Y-86.05
X61.94Y-106.705
X61.94Y-127.025
X73.95Y-83.81
X76.45Y-117.385
X76.45Y-137.705
X79.34Y-59.9
X83.62Y-120.615
X83.62Y-140.935
X84.76Y-77.99
X91.19Y-102.7
X91.19Y-123.02
X94.27Y-83.81
X99.66Y-59.9
X104.55Y-119.385
X104.55Y-139.705
X105.08Y-77.99
X136.88Y-58.01
X173.88Y-58.01
X183.99Y-114.48
X184.32Y-145.96
X192.37Y-63.17
X192.37Y-83.49
X192.89Y-88.5
X195.45Y-101.18
X196.5Y-132.56
X197.59Y-120.78
X197.82Y-152.86
X204.31Y-114.48
X204.64Y-145.96
X213.21Y-88.5
X215.77Y-101.18
X216.82Y-132.56
X217.91Y-120.78
X218.14Y-152.86
T7
X60.81Y-132.345
X60.81Y-134.885
X60.81Y-137.425
X90.45Y-131.785
X90.45Y-134.325
X90.45Y-136.865
X210.46Y-146.76
X210.63Y-114.98
X213.0Y-146.76
X213.17Y-114.98
X215.54Y-146.76
X215.71Y-114.98
T8
X69.15Y-114.845
X69.15Y-130.085
X98.35Y-115.845
X98.35Y-131.085
X138.22Y-49.27
X153.46Y-49.27
X193.01Y-107.38
X194.14Y-138.66
X208.25Y-107.38
X209.38Y-138.66
X213.72Y-64.59
X213.72Y-79.83
T4
G00X192.42Y-46.0
M15
G01X192.42Y-48.0
M16
G05
G00X198.12Y-44.0
M15
G01X196.12Y-44.0
M16
G05
G00X198.12Y-50.0
M15
G01X196.12Y-50.0
M16
G05
M30
