%TF.GenerationSoftware,KiCad,Pcbnew,9.0.4*%
%TF.CreationDate,2026-05-02T13:51:30+01:00*%
%TF.ProjectId,circuit_smart-soja,63697263-7569-4745-9f73-6d6172742d73,rev?*%
%TF.SameCoordinates,Original*%
%TF.FileFunction,Drillmap*%
%TF.FilePolarity,Positive*%
%FSLAX45Y45*%
G04 Gerber Fmt 4.5, Leading zero omitted, Abs format (unit mm)*
G04 Created by KiCad (PCBNEW 9.0.4) date 2026-05-02 13:51:30*
%MOMM*%
%LPD*%
G01*
G04 APERTURE LIST*
%ADD10C,0.200000*%
%ADD11C,0.320000*%
G04 APERTURE END LIST*
D10*
X4650000Y-4000000D02*
X23150000Y-4000000D01*
X23150000Y-15600000D01*
X4650000Y-15600000D01*
X4650000Y-4000000D01*
D11*
X5040000Y-4340000D02*
X5360000Y-4660000D01*
X5360000Y-4340000D02*
X5040000Y-4660000D01*
X11340000Y-14240000D02*
X11660000Y-14560000D01*
X11660000Y-14240000D02*
X11340000Y-14560000D01*
X18440000Y-12240000D02*
X18760000Y-12560000D01*
X18760000Y-12240000D02*
X18440000Y-12560000D01*
X22340000Y-4440000D02*
X22660000Y-4760000D01*
X22660000Y-4440000D02*
X22340000Y-4760000D01*
D10*
X4900777Y-15921484D02*
X4900777Y-15721484D01*
X4900777Y-15721484D02*
X4948396Y-15721484D01*
X4948396Y-15721484D02*
X4976967Y-15731008D01*
X4976967Y-15731008D02*
X4996015Y-15750055D01*
X4996015Y-15750055D02*
X5005539Y-15769103D01*
X5005539Y-15769103D02*
X5015063Y-15807198D01*
X5015063Y-15807198D02*
X5015063Y-15835769D01*
X5015063Y-15835769D02*
X5005539Y-15873865D01*
X5005539Y-15873865D02*
X4996015Y-15892912D01*
X4996015Y-15892912D02*
X4976967Y-15911960D01*
X4976967Y-15911960D02*
X4948396Y-15921484D01*
X4948396Y-15921484D02*
X4900777Y-15921484D01*
X5100777Y-15921484D02*
X5100777Y-15788150D01*
X5100777Y-15826246D02*
X5110301Y-15807198D01*
X5110301Y-15807198D02*
X5119824Y-15797674D01*
X5119824Y-15797674D02*
X5138872Y-15788150D01*
X5138872Y-15788150D02*
X5157920Y-15788150D01*
X5224586Y-15921484D02*
X5224586Y-15788150D01*
X5224586Y-15721484D02*
X5215063Y-15731008D01*
X5215063Y-15731008D02*
X5224586Y-15740531D01*
X5224586Y-15740531D02*
X5234110Y-15731008D01*
X5234110Y-15731008D02*
X5224586Y-15721484D01*
X5224586Y-15721484D02*
X5224586Y-15740531D01*
X5348396Y-15921484D02*
X5329348Y-15911960D01*
X5329348Y-15911960D02*
X5319824Y-15892912D01*
X5319824Y-15892912D02*
X5319824Y-15721484D01*
X5453158Y-15921484D02*
X5434110Y-15911960D01*
X5434110Y-15911960D02*
X5424586Y-15892912D01*
X5424586Y-15892912D02*
X5424586Y-15721484D01*
X5681729Y-15921484D02*
X5681729Y-15721484D01*
X5681729Y-15721484D02*
X5748396Y-15864341D01*
X5748396Y-15864341D02*
X5815062Y-15721484D01*
X5815062Y-15721484D02*
X5815062Y-15921484D01*
X5996015Y-15921484D02*
X5996015Y-15816722D01*
X5996015Y-15816722D02*
X5986491Y-15797674D01*
X5986491Y-15797674D02*
X5967443Y-15788150D01*
X5967443Y-15788150D02*
X5929348Y-15788150D01*
X5929348Y-15788150D02*
X5910301Y-15797674D01*
X5996015Y-15911960D02*
X5976967Y-15921484D01*
X5976967Y-15921484D02*
X5929348Y-15921484D01*
X5929348Y-15921484D02*
X5910301Y-15911960D01*
X5910301Y-15911960D02*
X5900777Y-15892912D01*
X5900777Y-15892912D02*
X5900777Y-15873865D01*
X5900777Y-15873865D02*
X5910301Y-15854817D01*
X5910301Y-15854817D02*
X5929348Y-15845293D01*
X5929348Y-15845293D02*
X5976967Y-15845293D01*
X5976967Y-15845293D02*
X5996015Y-15835769D01*
X6091253Y-15788150D02*
X6091253Y-15988150D01*
X6091253Y-15797674D02*
X6110301Y-15788150D01*
X6110301Y-15788150D02*
X6148396Y-15788150D01*
X6148396Y-15788150D02*
X6167443Y-15797674D01*
X6167443Y-15797674D02*
X6176967Y-15807198D01*
X6176967Y-15807198D02*
X6186491Y-15826246D01*
X6186491Y-15826246D02*
X6186491Y-15883388D01*
X6186491Y-15883388D02*
X6176967Y-15902436D01*
X6176967Y-15902436D02*
X6167443Y-15911960D01*
X6167443Y-15911960D02*
X6148396Y-15921484D01*
X6148396Y-15921484D02*
X6110301Y-15921484D01*
X6110301Y-15921484D02*
X6091253Y-15911960D01*
X6272205Y-15902436D02*
X6281729Y-15911960D01*
X6281729Y-15911960D02*
X6272205Y-15921484D01*
X6272205Y-15921484D02*
X6262682Y-15911960D01*
X6262682Y-15911960D02*
X6272205Y-15902436D01*
X6272205Y-15902436D02*
X6272205Y-15921484D01*
X6272205Y-15797674D02*
X6281729Y-15807198D01*
X6281729Y-15807198D02*
X6272205Y-15816722D01*
X6272205Y-15816722D02*
X6262682Y-15807198D01*
X6262682Y-15807198D02*
X6272205Y-15797674D01*
X6272205Y-15797674D02*
X6272205Y-15816722D01*
X4440000Y-16150000D02*
X4640000Y-16350000D01*
X4640000Y-16150000D02*
X4440000Y-16350000D01*
X4881729Y-16141484D02*
X5005539Y-16141484D01*
X5005539Y-16141484D02*
X4938872Y-16217674D01*
X4938872Y-16217674D02*
X4967444Y-16217674D01*
X4967444Y-16217674D02*
X4986491Y-16227198D01*
X4986491Y-16227198D02*
X4996015Y-16236722D01*
X4996015Y-16236722D02*
X5005539Y-16255769D01*
X5005539Y-16255769D02*
X5005539Y-16303388D01*
X5005539Y-16303388D02*
X4996015Y-16322436D01*
X4996015Y-16322436D02*
X4986491Y-16331960D01*
X4986491Y-16331960D02*
X4967444Y-16341484D01*
X4967444Y-16341484D02*
X4910301Y-16341484D01*
X4910301Y-16341484D02*
X4891253Y-16331960D01*
X4891253Y-16331960D02*
X4881729Y-16322436D01*
X5091253Y-16322436D02*
X5100777Y-16331960D01*
X5100777Y-16331960D02*
X5091253Y-16341484D01*
X5091253Y-16341484D02*
X5081729Y-16331960D01*
X5081729Y-16331960D02*
X5091253Y-16322436D01*
X5091253Y-16322436D02*
X5091253Y-16341484D01*
X5176967Y-16160531D02*
X5186491Y-16151008D01*
X5186491Y-16151008D02*
X5205539Y-16141484D01*
X5205539Y-16141484D02*
X5253158Y-16141484D01*
X5253158Y-16141484D02*
X5272205Y-16151008D01*
X5272205Y-16151008D02*
X5281729Y-16160531D01*
X5281729Y-16160531D02*
X5291253Y-16179579D01*
X5291253Y-16179579D02*
X5291253Y-16198627D01*
X5291253Y-16198627D02*
X5281729Y-16227198D01*
X5281729Y-16227198D02*
X5167444Y-16341484D01*
X5167444Y-16341484D02*
X5291253Y-16341484D01*
X5415063Y-16141484D02*
X5434110Y-16141484D01*
X5434110Y-16141484D02*
X5453158Y-16151008D01*
X5453158Y-16151008D02*
X5462682Y-16160531D01*
X5462682Y-16160531D02*
X5472205Y-16179579D01*
X5472205Y-16179579D02*
X5481729Y-16217674D01*
X5481729Y-16217674D02*
X5481729Y-16265293D01*
X5481729Y-16265293D02*
X5472205Y-16303388D01*
X5472205Y-16303388D02*
X5462682Y-16322436D01*
X5462682Y-16322436D02*
X5453158Y-16331960D01*
X5453158Y-16331960D02*
X5434110Y-16341484D01*
X5434110Y-16341484D02*
X5415063Y-16341484D01*
X5415063Y-16341484D02*
X5396015Y-16331960D01*
X5396015Y-16331960D02*
X5386491Y-16322436D01*
X5386491Y-16322436D02*
X5376967Y-16303388D01*
X5376967Y-16303388D02*
X5367444Y-16265293D01*
X5367444Y-16265293D02*
X5367444Y-16217674D01*
X5367444Y-16217674D02*
X5376967Y-16179579D01*
X5376967Y-16179579D02*
X5386491Y-16160531D01*
X5386491Y-16160531D02*
X5396015Y-16151008D01*
X5396015Y-16151008D02*
X5415063Y-16141484D01*
X5605539Y-16141484D02*
X5624586Y-16141484D01*
X5624586Y-16141484D02*
X5643634Y-16151008D01*
X5643634Y-16151008D02*
X5653158Y-16160531D01*
X5653158Y-16160531D02*
X5662682Y-16179579D01*
X5662682Y-16179579D02*
X5672205Y-16217674D01*
X5672205Y-16217674D02*
X5672205Y-16265293D01*
X5672205Y-16265293D02*
X5662682Y-16303388D01*
X5662682Y-16303388D02*
X5653158Y-16322436D01*
X5653158Y-16322436D02*
X5643634Y-16331960D01*
X5643634Y-16331960D02*
X5624586Y-16341484D01*
X5624586Y-16341484D02*
X5605539Y-16341484D01*
X5605539Y-16341484D02*
X5586491Y-16331960D01*
X5586491Y-16331960D02*
X5576967Y-16322436D01*
X5576967Y-16322436D02*
X5567444Y-16303388D01*
X5567444Y-16303388D02*
X5557920Y-16265293D01*
X5557920Y-16265293D02*
X5557920Y-16217674D01*
X5557920Y-16217674D02*
X5567444Y-16179579D01*
X5567444Y-16179579D02*
X5576967Y-16160531D01*
X5576967Y-16160531D02*
X5586491Y-16151008D01*
X5586491Y-16151008D02*
X5605539Y-16141484D01*
X5757920Y-16341484D02*
X5757920Y-16208150D01*
X5757920Y-16227198D02*
X5767443Y-16217674D01*
X5767443Y-16217674D02*
X5786491Y-16208150D01*
X5786491Y-16208150D02*
X5815063Y-16208150D01*
X5815063Y-16208150D02*
X5834110Y-16217674D01*
X5834110Y-16217674D02*
X5843634Y-16236722D01*
X5843634Y-16236722D02*
X5843634Y-16341484D01*
X5843634Y-16236722D02*
X5853158Y-16217674D01*
X5853158Y-16217674D02*
X5872205Y-16208150D01*
X5872205Y-16208150D02*
X5900777Y-16208150D01*
X5900777Y-16208150D02*
X5919824Y-16217674D01*
X5919824Y-16217674D02*
X5929348Y-16236722D01*
X5929348Y-16236722D02*
X5929348Y-16341484D01*
X6024586Y-16341484D02*
X6024586Y-16208150D01*
X6024586Y-16227198D02*
X6034110Y-16217674D01*
X6034110Y-16217674D02*
X6053158Y-16208150D01*
X6053158Y-16208150D02*
X6081729Y-16208150D01*
X6081729Y-16208150D02*
X6100777Y-16217674D01*
X6100777Y-16217674D02*
X6110301Y-16236722D01*
X6110301Y-16236722D02*
X6110301Y-16341484D01*
X6110301Y-16236722D02*
X6119824Y-16217674D01*
X6119824Y-16217674D02*
X6138872Y-16208150D01*
X6138872Y-16208150D02*
X6167443Y-16208150D01*
X6167443Y-16208150D02*
X6186491Y-16217674D01*
X6186491Y-16217674D02*
X6196015Y-16236722D01*
X6196015Y-16236722D02*
X6196015Y-16341484D01*
X6586491Y-16131960D02*
X6415063Y-16389103D01*
X6843634Y-16141484D02*
X6862682Y-16141484D01*
X6862682Y-16141484D02*
X6881729Y-16151008D01*
X6881729Y-16151008D02*
X6891253Y-16160531D01*
X6891253Y-16160531D02*
X6900777Y-16179579D01*
X6900777Y-16179579D02*
X6910301Y-16217674D01*
X6910301Y-16217674D02*
X6910301Y-16265293D01*
X6910301Y-16265293D02*
X6900777Y-16303388D01*
X6900777Y-16303388D02*
X6891253Y-16322436D01*
X6891253Y-16322436D02*
X6881729Y-16331960D01*
X6881729Y-16331960D02*
X6862682Y-16341484D01*
X6862682Y-16341484D02*
X6843634Y-16341484D01*
X6843634Y-16341484D02*
X6824586Y-16331960D01*
X6824586Y-16331960D02*
X6815063Y-16322436D01*
X6815063Y-16322436D02*
X6805539Y-16303388D01*
X6805539Y-16303388D02*
X6796015Y-16265293D01*
X6796015Y-16265293D02*
X6796015Y-16217674D01*
X6796015Y-16217674D02*
X6805539Y-16179579D01*
X6805539Y-16179579D02*
X6815063Y-16160531D01*
X6815063Y-16160531D02*
X6824586Y-16151008D01*
X6824586Y-16151008D02*
X6843634Y-16141484D01*
X6996015Y-16322436D02*
X7005539Y-16331960D01*
X7005539Y-16331960D02*
X6996015Y-16341484D01*
X6996015Y-16341484D02*
X6986491Y-16331960D01*
X6986491Y-16331960D02*
X6996015Y-16322436D01*
X6996015Y-16322436D02*
X6996015Y-16341484D01*
X7196015Y-16341484D02*
X7081729Y-16341484D01*
X7138872Y-16341484D02*
X7138872Y-16141484D01*
X7138872Y-16141484D02*
X7119825Y-16170055D01*
X7119825Y-16170055D02*
X7100777Y-16189103D01*
X7100777Y-16189103D02*
X7081729Y-16198627D01*
X7272206Y-16160531D02*
X7281729Y-16151008D01*
X7281729Y-16151008D02*
X7300777Y-16141484D01*
X7300777Y-16141484D02*
X7348396Y-16141484D01*
X7348396Y-16141484D02*
X7367444Y-16151008D01*
X7367444Y-16151008D02*
X7376967Y-16160531D01*
X7376967Y-16160531D02*
X7386491Y-16179579D01*
X7386491Y-16179579D02*
X7386491Y-16198627D01*
X7386491Y-16198627D02*
X7376967Y-16227198D01*
X7376967Y-16227198D02*
X7262682Y-16341484D01*
X7262682Y-16341484D02*
X7386491Y-16341484D01*
X7557920Y-16141484D02*
X7519825Y-16141484D01*
X7519825Y-16141484D02*
X7500777Y-16151008D01*
X7500777Y-16151008D02*
X7491253Y-16160531D01*
X7491253Y-16160531D02*
X7472206Y-16189103D01*
X7472206Y-16189103D02*
X7462682Y-16227198D01*
X7462682Y-16227198D02*
X7462682Y-16303388D01*
X7462682Y-16303388D02*
X7472206Y-16322436D01*
X7472206Y-16322436D02*
X7481729Y-16331960D01*
X7481729Y-16331960D02*
X7500777Y-16341484D01*
X7500777Y-16341484D02*
X7538872Y-16341484D01*
X7538872Y-16341484D02*
X7557920Y-16331960D01*
X7557920Y-16331960D02*
X7567444Y-16322436D01*
X7567444Y-16322436D02*
X7576967Y-16303388D01*
X7576967Y-16303388D02*
X7576967Y-16255769D01*
X7576967Y-16255769D02*
X7567444Y-16236722D01*
X7567444Y-16236722D02*
X7557920Y-16227198D01*
X7557920Y-16227198D02*
X7538872Y-16217674D01*
X7538872Y-16217674D02*
X7500777Y-16217674D01*
X7500777Y-16217674D02*
X7481729Y-16227198D01*
X7481729Y-16227198D02*
X7472206Y-16236722D01*
X7472206Y-16236722D02*
X7462682Y-16255769D01*
X7700777Y-16141484D02*
X7719825Y-16141484D01*
X7719825Y-16141484D02*
X7738872Y-16151008D01*
X7738872Y-16151008D02*
X7748396Y-16160531D01*
X7748396Y-16160531D02*
X7757920Y-16179579D01*
X7757920Y-16179579D02*
X7767444Y-16217674D01*
X7767444Y-16217674D02*
X7767444Y-16265293D01*
X7767444Y-16265293D02*
X7757920Y-16303388D01*
X7757920Y-16303388D02*
X7748396Y-16322436D01*
X7748396Y-16322436D02*
X7738872Y-16331960D01*
X7738872Y-16331960D02*
X7719825Y-16341484D01*
X7719825Y-16341484D02*
X7700777Y-16341484D01*
X7700777Y-16341484D02*
X7681729Y-16331960D01*
X7681729Y-16331960D02*
X7672206Y-16322436D01*
X7672206Y-16322436D02*
X7662682Y-16303388D01*
X7662682Y-16303388D02*
X7653158Y-16265293D01*
X7653158Y-16265293D02*
X7653158Y-16217674D01*
X7653158Y-16217674D02*
X7662682Y-16179579D01*
X7662682Y-16179579D02*
X7672206Y-16160531D01*
X7672206Y-16160531D02*
X7681729Y-16151008D01*
X7681729Y-16151008D02*
X7700777Y-16141484D01*
X7843634Y-16141484D02*
X7843634Y-16179579D01*
X7919825Y-16141484D02*
X7919825Y-16179579D01*
X8215063Y-16417674D02*
X8205539Y-16408150D01*
X8205539Y-16408150D02*
X8186491Y-16379579D01*
X8186491Y-16379579D02*
X8176968Y-16360531D01*
X8176968Y-16360531D02*
X8167444Y-16331960D01*
X8167444Y-16331960D02*
X8157920Y-16284341D01*
X8157920Y-16284341D02*
X8157920Y-16246246D01*
X8157920Y-16246246D02*
X8167444Y-16198627D01*
X8167444Y-16198627D02*
X8176968Y-16170055D01*
X8176968Y-16170055D02*
X8186491Y-16151008D01*
X8186491Y-16151008D02*
X8205539Y-16122436D01*
X8205539Y-16122436D02*
X8215063Y-16112912D01*
X8376968Y-16208150D02*
X8376968Y-16341484D01*
X8329348Y-16131960D02*
X8281729Y-16274817D01*
X8281729Y-16274817D02*
X8405539Y-16274817D01*
X8634111Y-16341484D02*
X8634111Y-16141484D01*
X8719825Y-16341484D02*
X8719825Y-16236722D01*
X8719825Y-16236722D02*
X8710301Y-16217674D01*
X8710301Y-16217674D02*
X8691253Y-16208150D01*
X8691253Y-16208150D02*
X8662682Y-16208150D01*
X8662682Y-16208150D02*
X8643634Y-16217674D01*
X8643634Y-16217674D02*
X8634111Y-16227198D01*
X8843634Y-16341484D02*
X8824587Y-16331960D01*
X8824587Y-16331960D02*
X8815063Y-16322436D01*
X8815063Y-16322436D02*
X8805539Y-16303388D01*
X8805539Y-16303388D02*
X8805539Y-16246246D01*
X8805539Y-16246246D02*
X8815063Y-16227198D01*
X8815063Y-16227198D02*
X8824587Y-16217674D01*
X8824587Y-16217674D02*
X8843634Y-16208150D01*
X8843634Y-16208150D02*
X8872206Y-16208150D01*
X8872206Y-16208150D02*
X8891253Y-16217674D01*
X8891253Y-16217674D02*
X8900777Y-16227198D01*
X8900777Y-16227198D02*
X8910301Y-16246246D01*
X8910301Y-16246246D02*
X8910301Y-16303388D01*
X8910301Y-16303388D02*
X8900777Y-16322436D01*
X8900777Y-16322436D02*
X8891253Y-16331960D01*
X8891253Y-16331960D02*
X8872206Y-16341484D01*
X8872206Y-16341484D02*
X8843634Y-16341484D01*
X9024587Y-16341484D02*
X9005539Y-16331960D01*
X9005539Y-16331960D02*
X8996015Y-16312912D01*
X8996015Y-16312912D02*
X8996015Y-16141484D01*
X9176968Y-16331960D02*
X9157920Y-16341484D01*
X9157920Y-16341484D02*
X9119825Y-16341484D01*
X9119825Y-16341484D02*
X9100777Y-16331960D01*
X9100777Y-16331960D02*
X9091253Y-16312912D01*
X9091253Y-16312912D02*
X9091253Y-16236722D01*
X9091253Y-16236722D02*
X9100777Y-16217674D01*
X9100777Y-16217674D02*
X9119825Y-16208150D01*
X9119825Y-16208150D02*
X9157920Y-16208150D01*
X9157920Y-16208150D02*
X9176968Y-16217674D01*
X9176968Y-16217674D02*
X9186492Y-16236722D01*
X9186492Y-16236722D02*
X9186492Y-16255769D01*
X9186492Y-16255769D02*
X9091253Y-16274817D01*
X9262682Y-16331960D02*
X9281730Y-16341484D01*
X9281730Y-16341484D02*
X9319825Y-16341484D01*
X9319825Y-16341484D02*
X9338873Y-16331960D01*
X9338873Y-16331960D02*
X9348396Y-16312912D01*
X9348396Y-16312912D02*
X9348396Y-16303388D01*
X9348396Y-16303388D02*
X9338873Y-16284341D01*
X9338873Y-16284341D02*
X9319825Y-16274817D01*
X9319825Y-16274817D02*
X9291253Y-16274817D01*
X9291253Y-16274817D02*
X9272206Y-16265293D01*
X9272206Y-16265293D02*
X9262682Y-16246246D01*
X9262682Y-16246246D02*
X9262682Y-16236722D01*
X9262682Y-16236722D02*
X9272206Y-16217674D01*
X9272206Y-16217674D02*
X9291253Y-16208150D01*
X9291253Y-16208150D02*
X9319825Y-16208150D01*
X9319825Y-16208150D02*
X9338873Y-16217674D01*
X9415063Y-16417674D02*
X9424587Y-16408150D01*
X9424587Y-16408150D02*
X9443634Y-16379579D01*
X9443634Y-16379579D02*
X9453158Y-16360531D01*
X9453158Y-16360531D02*
X9462682Y-16331960D01*
X9462682Y-16331960D02*
X9472206Y-16284341D01*
X9472206Y-16284341D02*
X9472206Y-16246246D01*
X9472206Y-16246246D02*
X9462682Y-16198627D01*
X9462682Y-16198627D02*
X9453158Y-16170055D01*
X9453158Y-16170055D02*
X9443634Y-16151008D01*
X9443634Y-16151008D02*
X9424587Y-16122436D01*
X9424587Y-16122436D02*
X9415063Y-16112912D01*
X9776968Y-16417674D02*
X9767444Y-16408150D01*
X9767444Y-16408150D02*
X9748396Y-16379579D01*
X9748396Y-16379579D02*
X9738873Y-16360531D01*
X9738873Y-16360531D02*
X9729349Y-16331960D01*
X9729349Y-16331960D02*
X9719825Y-16284341D01*
X9719825Y-16284341D02*
X9719825Y-16246246D01*
X9719825Y-16246246D02*
X9729349Y-16198627D01*
X9729349Y-16198627D02*
X9738873Y-16170055D01*
X9738873Y-16170055D02*
X9748396Y-16151008D01*
X9748396Y-16151008D02*
X9767444Y-16122436D01*
X9767444Y-16122436D02*
X9776968Y-16112912D01*
X9853158Y-16208150D02*
X9853158Y-16341484D01*
X9853158Y-16227198D02*
X9862682Y-16217674D01*
X9862682Y-16217674D02*
X9881730Y-16208150D01*
X9881730Y-16208150D02*
X9910301Y-16208150D01*
X9910301Y-16208150D02*
X9929349Y-16217674D01*
X9929349Y-16217674D02*
X9938873Y-16236722D01*
X9938873Y-16236722D02*
X9938873Y-16341484D01*
X10062682Y-16341484D02*
X10043634Y-16331960D01*
X10043634Y-16331960D02*
X10034111Y-16322436D01*
X10034111Y-16322436D02*
X10024587Y-16303388D01*
X10024587Y-16303388D02*
X10024587Y-16246246D01*
X10024587Y-16246246D02*
X10034111Y-16227198D01*
X10034111Y-16227198D02*
X10043634Y-16217674D01*
X10043634Y-16217674D02*
X10062682Y-16208150D01*
X10062682Y-16208150D02*
X10091254Y-16208150D01*
X10091254Y-16208150D02*
X10110301Y-16217674D01*
X10110301Y-16217674D02*
X10119825Y-16227198D01*
X10119825Y-16227198D02*
X10129349Y-16246246D01*
X10129349Y-16246246D02*
X10129349Y-16303388D01*
X10129349Y-16303388D02*
X10119825Y-16322436D01*
X10119825Y-16322436D02*
X10110301Y-16331960D01*
X10110301Y-16331960D02*
X10091254Y-16341484D01*
X10091254Y-16341484D02*
X10062682Y-16341484D01*
X10186492Y-16208150D02*
X10262682Y-16208150D01*
X10215063Y-16141484D02*
X10215063Y-16312912D01*
X10215063Y-16312912D02*
X10224587Y-16331960D01*
X10224587Y-16331960D02*
X10243634Y-16341484D01*
X10243634Y-16341484D02*
X10262682Y-16341484D01*
X10481730Y-16208150D02*
X10481730Y-16408150D01*
X10481730Y-16217674D02*
X10500777Y-16208150D01*
X10500777Y-16208150D02*
X10538873Y-16208150D01*
X10538873Y-16208150D02*
X10557920Y-16217674D01*
X10557920Y-16217674D02*
X10567444Y-16227198D01*
X10567444Y-16227198D02*
X10576968Y-16246246D01*
X10576968Y-16246246D02*
X10576968Y-16303388D01*
X10576968Y-16303388D02*
X10567444Y-16322436D01*
X10567444Y-16322436D02*
X10557920Y-16331960D01*
X10557920Y-16331960D02*
X10538873Y-16341484D01*
X10538873Y-16341484D02*
X10500777Y-16341484D01*
X10500777Y-16341484D02*
X10481730Y-16331960D01*
X10691254Y-16341484D02*
X10672206Y-16331960D01*
X10672206Y-16331960D02*
X10662682Y-16312912D01*
X10662682Y-16312912D02*
X10662682Y-16141484D01*
X10853158Y-16341484D02*
X10853158Y-16236722D01*
X10853158Y-16236722D02*
X10843635Y-16217674D01*
X10843635Y-16217674D02*
X10824587Y-16208150D01*
X10824587Y-16208150D02*
X10786492Y-16208150D01*
X10786492Y-16208150D02*
X10767444Y-16217674D01*
X10853158Y-16331960D02*
X10834111Y-16341484D01*
X10834111Y-16341484D02*
X10786492Y-16341484D01*
X10786492Y-16341484D02*
X10767444Y-16331960D01*
X10767444Y-16331960D02*
X10757920Y-16312912D01*
X10757920Y-16312912D02*
X10757920Y-16293865D01*
X10757920Y-16293865D02*
X10767444Y-16274817D01*
X10767444Y-16274817D02*
X10786492Y-16265293D01*
X10786492Y-16265293D02*
X10834111Y-16265293D01*
X10834111Y-16265293D02*
X10853158Y-16255769D01*
X10919825Y-16208150D02*
X10996015Y-16208150D01*
X10948396Y-16141484D02*
X10948396Y-16312912D01*
X10948396Y-16312912D02*
X10957920Y-16331960D01*
X10957920Y-16331960D02*
X10976968Y-16341484D01*
X10976968Y-16341484D02*
X10996015Y-16341484D01*
X11138873Y-16331960D02*
X11119825Y-16341484D01*
X11119825Y-16341484D02*
X11081730Y-16341484D01*
X11081730Y-16341484D02*
X11062682Y-16331960D01*
X11062682Y-16331960D02*
X11053158Y-16312912D01*
X11053158Y-16312912D02*
X11053158Y-16236722D01*
X11053158Y-16236722D02*
X11062682Y-16217674D01*
X11062682Y-16217674D02*
X11081730Y-16208150D01*
X11081730Y-16208150D02*
X11119825Y-16208150D01*
X11119825Y-16208150D02*
X11138873Y-16217674D01*
X11138873Y-16217674D02*
X11148396Y-16236722D01*
X11148396Y-16236722D02*
X11148396Y-16255769D01*
X11148396Y-16255769D02*
X11053158Y-16274817D01*
X11319825Y-16341484D02*
X11319825Y-16141484D01*
X11319825Y-16331960D02*
X11300777Y-16341484D01*
X11300777Y-16341484D02*
X11262682Y-16341484D01*
X11262682Y-16341484D02*
X11243634Y-16331960D01*
X11243634Y-16331960D02*
X11234111Y-16322436D01*
X11234111Y-16322436D02*
X11224587Y-16303388D01*
X11224587Y-16303388D02*
X11224587Y-16246246D01*
X11224587Y-16246246D02*
X11234111Y-16227198D01*
X11234111Y-16227198D02*
X11243634Y-16217674D01*
X11243634Y-16217674D02*
X11262682Y-16208150D01*
X11262682Y-16208150D02*
X11300777Y-16208150D01*
X11300777Y-16208150D02*
X11319825Y-16217674D01*
X11396015Y-16417674D02*
X11405539Y-16408150D01*
X11405539Y-16408150D02*
X11424587Y-16379579D01*
X11424587Y-16379579D02*
X11434111Y-16360531D01*
X11434111Y-16360531D02*
X11443634Y-16331960D01*
X11443634Y-16331960D02*
X11453158Y-16284341D01*
X11453158Y-16284341D02*
X11453158Y-16246246D01*
X11453158Y-16246246D02*
X11443634Y-16198627D01*
X11443634Y-16198627D02*
X11434111Y-16170055D01*
X11434111Y-16170055D02*
X11424587Y-16151008D01*
X11424587Y-16151008D02*
X11405539Y-16122436D01*
X11405539Y-16122436D02*
X11396015Y-16112912D01*
M02*
