%TF.GenerationSoftware,KiCad,Pcbnew,9.0.4*%
%TF.CreationDate,2026-05-02T13:54:13+01:00*%
%TF.ProjectId,circuit_smart-soja,63697263-7569-4745-9f73-6d6172742d73,rev?*%
%TF.SameCoordinates,Original*%
%TF.FileFunction,Legend,Top*%
%TF.FilePolarity,Positive*%
%FSLAX46Y46*%
G04 Gerber Fmt 4.6, Leading zero omitted, Abs format (unit mm)*
G04 Created by KiCad (PCBNEW 9.0.4) date 2026-05-02 13:54:13*
%MOMM*%
%LPD*%
G01*
G04 APERTURE LIST*
G04 Aperture macros list*
%AMRoundRect*
0 Rectangle with rounded corners*
0 $1 Rounding radius*
0 $2 $3 $4 $5 $6 $7 $8 $9 X,Y pos of 4 corners*
0 Add a 4 corners polygon primitive as box body*
4,1,4,$2,$3,$4,$5,$6,$7,$8,$9,$2,$3,0*
0 Add four circle primitives for the rounded corners*
1,1,$1+$1,$2,$3*
1,1,$1+$1,$4,$5*
1,1,$1+$1,$6,$7*
1,1,$1+$1,$8,$9*
0 Add four rect primitives between the rounded corners*
20,1,$1+$1,$2,$3,$4,$5,0*
20,1,$1+$1,$4,$5,$6,$7,0*
20,1,$1+$1,$6,$7,$8,$9,0*
20,1,$1+$1,$8,$9,$2,$3,0*%
G04 Aperture macros list end*
%ADD10C,0.150000*%
%ADD11C,0.120000*%
%ADD12C,0.127000*%
%ADD13C,0.200000*%
%ADD14C,2.000000*%
%ADD15RoundRect,0.250000X-1.350000X-1.350000X1.350000X-1.350000X1.350000X1.350000X-1.350000X1.350000X0*%
%ADD16C,3.200000*%
%ADD17RoundRect,0.102000X-0.925000X0.925000X-0.925000X-0.925000X0.925000X-0.925000X0.925000X0.925000X0*%
%ADD18C,2.054000*%
%ADD19RoundRect,0.102000X0.825000X0.825000X-0.825000X0.825000X-0.825000X-0.825000X0.825000X-0.825000X0*%
%ADD20C,1.854000*%
%ADD21R,1.800000X1.800000*%
%ADD22C,1.800000*%
%ADD23C,2.400000*%
%ADD24R,1.700000X1.700000*%
%ADD25C,1.700000*%
%ADD26C,1.600000*%
%ADD27R,1.050000X1.500000*%
%ADD28O,1.050000X1.500000*%
%ADD29RoundRect,0.102000X-0.925000X-0.925000X0.925000X-0.925000X0.925000X0.925000X-0.925000X0.925000X0*%
%ADD30RoundRect,0.102000X-0.825000X-0.825000X0.825000X-0.825000X0.825000X0.825000X-0.825000X0.825000X0*%
%ADD31R,2.000000X2.000000*%
%ADD32RoundRect,0.102000X-0.704000X-0.704000X0.704000X-0.704000X0.704000X0.704000X-0.704000X0.704000X0*%
%ADD33C,1.612000*%
%ADD34RoundRect,0.250000X-1.350000X1.350000X-1.350000X-1.350000X1.350000X-1.350000X1.350000X1.350000X0*%
%ADD35RoundRect,0.102000X0.825000X-0.825000X0.825000X0.825000X-0.825000X0.825000X-0.825000X-0.825000X0*%
%ADD36R,3.500000X3.500000*%
%ADD37RoundRect,0.750000X-1.000000X0.750000X-1.000000X-0.750000X1.000000X-0.750000X1.000000X0.750000X0*%
%ADD38RoundRect,0.875000X-0.875000X0.875000X-0.875000X-0.875000X0.875000X-0.875000X0.875000X0.875000X0*%
%ADD39RoundRect,0.250000X1.350000X-1.350000X1.350000X1.350000X-1.350000X1.350000X-1.350000X-1.350000X0*%
%ADD40RoundRect,0.250000X1.350000X1.350000X-1.350000X1.350000X-1.350000X-1.350000X1.350000X-1.350000X0*%
G04 APERTURE END LIST*
D10*
X69952142Y-55609580D02*
X69904523Y-55657200D01*
X69904523Y-55657200D02*
X69761666Y-55704819D01*
X69761666Y-55704819D02*
X69666428Y-55704819D01*
X69666428Y-55704819D02*
X69523571Y-55657200D01*
X69523571Y-55657200D02*
X69428333Y-55561961D01*
X69428333Y-55561961D02*
X69380714Y-55466723D01*
X69380714Y-55466723D02*
X69333095Y-55276247D01*
X69333095Y-55276247D02*
X69333095Y-55133390D01*
X69333095Y-55133390D02*
X69380714Y-54942914D01*
X69380714Y-54942914D02*
X69428333Y-54847676D01*
X69428333Y-54847676D02*
X69523571Y-54752438D01*
X69523571Y-54752438D02*
X69666428Y-54704819D01*
X69666428Y-54704819D02*
X69761666Y-54704819D01*
X69761666Y-54704819D02*
X69904523Y-54752438D01*
X69904523Y-54752438D02*
X69952142Y-54800057D01*
X70904523Y-55704819D02*
X70333095Y-55704819D01*
X70618809Y-55704819D02*
X70618809Y-54704819D01*
X70618809Y-54704819D02*
X70523571Y-54847676D01*
X70523571Y-54847676D02*
X70428333Y-54942914D01*
X70428333Y-54942914D02*
X70333095Y-54990533D01*
X71237857Y-54704819D02*
X71904523Y-54704819D01*
X71904523Y-54704819D02*
X71475952Y-55704819D01*
X195021905Y-141314819D02*
X195021905Y-140314819D01*
X195021905Y-140314819D02*
X195260000Y-140314819D01*
X195260000Y-140314819D02*
X195402857Y-140362438D01*
X195402857Y-140362438D02*
X195498095Y-140457676D01*
X195498095Y-140457676D02*
X195545714Y-140552914D01*
X195545714Y-140552914D02*
X195593333Y-140743390D01*
X195593333Y-140743390D02*
X195593333Y-140886247D01*
X195593333Y-140886247D02*
X195545714Y-141076723D01*
X195545714Y-141076723D02*
X195498095Y-141171961D01*
X195498095Y-141171961D02*
X195402857Y-141267200D01*
X195402857Y-141267200D02*
X195260000Y-141314819D01*
X195260000Y-141314819D02*
X195021905Y-141314819D01*
X196450476Y-140648152D02*
X196450476Y-141314819D01*
X196212381Y-140267200D02*
X195974286Y-140981485D01*
X195974286Y-140981485D02*
X196593333Y-140981485D01*
X193878095Y-136514819D02*
X193878095Y-135514819D01*
X194449523Y-136514819D02*
X194020952Y-135943390D01*
X194449523Y-135514819D02*
X193878095Y-136086247D01*
X65635057Y-132935238D02*
X65587438Y-133030476D01*
X65587438Y-133030476D02*
X65492200Y-133125714D01*
X65492200Y-133125714D02*
X65349342Y-133268571D01*
X65349342Y-133268571D02*
X65301723Y-133363809D01*
X65301723Y-133363809D02*
X65301723Y-133459047D01*
X65539819Y-133411428D02*
X65492200Y-133506666D01*
X65492200Y-133506666D02*
X65396961Y-133601904D01*
X65396961Y-133601904D02*
X65206485Y-133649523D01*
X65206485Y-133649523D02*
X64873152Y-133649523D01*
X64873152Y-133649523D02*
X64682676Y-133601904D01*
X64682676Y-133601904D02*
X64587438Y-133506666D01*
X64587438Y-133506666D02*
X64539819Y-133411428D01*
X64539819Y-133411428D02*
X64539819Y-133220952D01*
X64539819Y-133220952D02*
X64587438Y-133125714D01*
X64587438Y-133125714D02*
X64682676Y-133030476D01*
X64682676Y-133030476D02*
X64873152Y-132982857D01*
X64873152Y-132982857D02*
X65206485Y-132982857D01*
X65206485Y-132982857D02*
X65396961Y-133030476D01*
X65396961Y-133030476D02*
X65492200Y-133125714D01*
X65492200Y-133125714D02*
X65539819Y-133220952D01*
X65539819Y-133220952D02*
X65539819Y-133411428D01*
X64539819Y-132649523D02*
X64539819Y-132030476D01*
X64539819Y-132030476D02*
X64920771Y-132363809D01*
X64920771Y-132363809D02*
X64920771Y-132220952D01*
X64920771Y-132220952D02*
X64968390Y-132125714D01*
X64968390Y-132125714D02*
X65016009Y-132078095D01*
X65016009Y-132078095D02*
X65111247Y-132030476D01*
X65111247Y-132030476D02*
X65349342Y-132030476D01*
X65349342Y-132030476D02*
X65444580Y-132078095D01*
X65444580Y-132078095D02*
X65492200Y-132125714D01*
X65492200Y-132125714D02*
X65539819Y-132220952D01*
X65539819Y-132220952D02*
X65539819Y-132506666D01*
X65539819Y-132506666D02*
X65492200Y-132601904D01*
X65492200Y-132601904D02*
X65444580Y-132649523D01*
X162675987Y-49953724D02*
X162675987Y-50669466D01*
X162675987Y-50669466D02*
X162628271Y-50812614D01*
X162628271Y-50812614D02*
X162532839Y-50908047D01*
X162532839Y-50908047D02*
X162389690Y-50955763D01*
X162389690Y-50955763D02*
X162294258Y-50955763D01*
X163200864Y-50955763D02*
X163391729Y-50955763D01*
X163391729Y-50955763D02*
X163487161Y-50908047D01*
X163487161Y-50908047D02*
X163534877Y-50860330D01*
X163534877Y-50860330D02*
X163630310Y-50717182D01*
X163630310Y-50717182D02*
X163678026Y-50526317D01*
X163678026Y-50526317D02*
X163678026Y-50144588D01*
X163678026Y-50144588D02*
X163630310Y-50049156D01*
X163630310Y-50049156D02*
X163582594Y-50001440D01*
X163582594Y-50001440D02*
X163487161Y-49953724D01*
X163487161Y-49953724D02*
X163296297Y-49953724D01*
X163296297Y-49953724D02*
X163200864Y-50001440D01*
X163200864Y-50001440D02*
X163153148Y-50049156D01*
X163153148Y-50049156D02*
X163105432Y-50144588D01*
X163105432Y-50144588D02*
X163105432Y-50383169D01*
X163105432Y-50383169D02*
X163153148Y-50478601D01*
X163153148Y-50478601D02*
X163200864Y-50526317D01*
X163200864Y-50526317D02*
X163296297Y-50574034D01*
X163296297Y-50574034D02*
X163487161Y-50574034D01*
X163487161Y-50574034D02*
X163582594Y-50526317D01*
X163582594Y-50526317D02*
X163630310Y-50478601D01*
X163630310Y-50478601D02*
X163678026Y-50383169D01*
X131196667Y-86447200D02*
X131339524Y-86494819D01*
X131339524Y-86494819D02*
X131577619Y-86494819D01*
X131577619Y-86494819D02*
X131672857Y-86447200D01*
X131672857Y-86447200D02*
X131720476Y-86399580D01*
X131720476Y-86399580D02*
X131768095Y-86304342D01*
X131768095Y-86304342D02*
X131768095Y-86209104D01*
X131768095Y-86209104D02*
X131720476Y-86113866D01*
X131720476Y-86113866D02*
X131672857Y-86066247D01*
X131672857Y-86066247D02*
X131577619Y-86018628D01*
X131577619Y-86018628D02*
X131387143Y-85971009D01*
X131387143Y-85971009D02*
X131291905Y-85923390D01*
X131291905Y-85923390D02*
X131244286Y-85875771D01*
X131244286Y-85875771D02*
X131196667Y-85780533D01*
X131196667Y-85780533D02*
X131196667Y-85685295D01*
X131196667Y-85685295D02*
X131244286Y-85590057D01*
X131244286Y-85590057D02*
X131291905Y-85542438D01*
X131291905Y-85542438D02*
X131387143Y-85494819D01*
X131387143Y-85494819D02*
X131625238Y-85494819D01*
X131625238Y-85494819D02*
X131768095Y-85542438D01*
X132101429Y-85494819D02*
X132339524Y-86494819D01*
X132339524Y-86494819D02*
X132530000Y-85780533D01*
X132530000Y-85780533D02*
X132720476Y-86494819D01*
X132720476Y-86494819D02*
X132958572Y-85494819D01*
X133863333Y-86494819D02*
X133291905Y-86494819D01*
X133577619Y-86494819D02*
X133577619Y-85494819D01*
X133577619Y-85494819D02*
X133482381Y-85637676D01*
X133482381Y-85637676D02*
X133387143Y-85732914D01*
X133387143Y-85732914D02*
X133291905Y-85780533D01*
X104014819Y-65745238D02*
X103538628Y-66078571D01*
X104014819Y-66316666D02*
X103014819Y-66316666D01*
X103014819Y-66316666D02*
X103014819Y-65935714D01*
X103014819Y-65935714D02*
X103062438Y-65840476D01*
X103062438Y-65840476D02*
X103110057Y-65792857D01*
X103110057Y-65792857D02*
X103205295Y-65745238D01*
X103205295Y-65745238D02*
X103348152Y-65745238D01*
X103348152Y-65745238D02*
X103443390Y-65792857D01*
X103443390Y-65792857D02*
X103491009Y-65840476D01*
X103491009Y-65840476D02*
X103538628Y-65935714D01*
X103538628Y-65935714D02*
X103538628Y-66316666D01*
X103014819Y-65459523D02*
X104014819Y-65126190D01*
X104014819Y-65126190D02*
X103014819Y-64792857D01*
X103110057Y-64507142D02*
X103062438Y-64459523D01*
X103062438Y-64459523D02*
X103014819Y-64364285D01*
X103014819Y-64364285D02*
X103014819Y-64126190D01*
X103014819Y-64126190D02*
X103062438Y-64030952D01*
X103062438Y-64030952D02*
X103110057Y-63983333D01*
X103110057Y-63983333D02*
X103205295Y-63935714D01*
X103205295Y-63935714D02*
X103300533Y-63935714D01*
X103300533Y-63935714D02*
X103443390Y-63983333D01*
X103443390Y-63983333D02*
X104014819Y-64554761D01*
X104014819Y-64554761D02*
X104014819Y-63935714D01*
X106304819Y-121911666D02*
X105828628Y-122244999D01*
X106304819Y-122483094D02*
X105304819Y-122483094D01*
X105304819Y-122483094D02*
X105304819Y-122102142D01*
X105304819Y-122102142D02*
X105352438Y-122006904D01*
X105352438Y-122006904D02*
X105400057Y-121959285D01*
X105400057Y-121959285D02*
X105495295Y-121911666D01*
X105495295Y-121911666D02*
X105638152Y-121911666D01*
X105638152Y-121911666D02*
X105733390Y-121959285D01*
X105733390Y-121959285D02*
X105781009Y-122006904D01*
X105781009Y-122006904D02*
X105828628Y-122102142D01*
X105828628Y-122102142D02*
X105828628Y-122483094D01*
X106304819Y-121435475D02*
X106304819Y-121244999D01*
X106304819Y-121244999D02*
X106257200Y-121149761D01*
X106257200Y-121149761D02*
X106209580Y-121102142D01*
X106209580Y-121102142D02*
X106066723Y-121006904D01*
X106066723Y-121006904D02*
X105876247Y-120959285D01*
X105876247Y-120959285D02*
X105495295Y-120959285D01*
X105495295Y-120959285D02*
X105400057Y-121006904D01*
X105400057Y-121006904D02*
X105352438Y-121054523D01*
X105352438Y-121054523D02*
X105304819Y-121149761D01*
X105304819Y-121149761D02*
X105304819Y-121340237D01*
X105304819Y-121340237D02*
X105352438Y-121435475D01*
X105352438Y-121435475D02*
X105400057Y-121483094D01*
X105400057Y-121483094D02*
X105495295Y-121530713D01*
X105495295Y-121530713D02*
X105733390Y-121530713D01*
X105733390Y-121530713D02*
X105828628Y-121483094D01*
X105828628Y-121483094D02*
X105876247Y-121435475D01*
X105876247Y-121435475D02*
X105923866Y-121340237D01*
X105923866Y-121340237D02*
X105923866Y-121149761D01*
X105923866Y-121149761D02*
X105876247Y-121054523D01*
X105876247Y-121054523D02*
X105828628Y-121006904D01*
X105828628Y-121006904D02*
X105733390Y-120959285D01*
X88274819Y-113026666D02*
X87798628Y-113359999D01*
X88274819Y-113598094D02*
X87274819Y-113598094D01*
X87274819Y-113598094D02*
X87274819Y-113217142D01*
X87274819Y-113217142D02*
X87322438Y-113121904D01*
X87322438Y-113121904D02*
X87370057Y-113074285D01*
X87370057Y-113074285D02*
X87465295Y-113026666D01*
X87465295Y-113026666D02*
X87608152Y-113026666D01*
X87608152Y-113026666D02*
X87703390Y-113074285D01*
X87703390Y-113074285D02*
X87751009Y-113121904D01*
X87751009Y-113121904D02*
X87798628Y-113217142D01*
X87798628Y-113217142D02*
X87798628Y-113598094D01*
X87274819Y-112121904D02*
X87274819Y-112598094D01*
X87274819Y-112598094D02*
X87751009Y-112645713D01*
X87751009Y-112645713D02*
X87703390Y-112598094D01*
X87703390Y-112598094D02*
X87655771Y-112502856D01*
X87655771Y-112502856D02*
X87655771Y-112264761D01*
X87655771Y-112264761D02*
X87703390Y-112169523D01*
X87703390Y-112169523D02*
X87751009Y-112121904D01*
X87751009Y-112121904D02*
X87846247Y-112074285D01*
X87846247Y-112074285D02*
X88084342Y-112074285D01*
X88084342Y-112074285D02*
X88179580Y-112121904D01*
X88179580Y-112121904D02*
X88227200Y-112169523D01*
X88227200Y-112169523D02*
X88274819Y-112264761D01*
X88274819Y-112264761D02*
X88274819Y-112502856D01*
X88274819Y-112502856D02*
X88227200Y-112598094D01*
X88227200Y-112598094D02*
X88179580Y-112645713D01*
X76596666Y-72964819D02*
X76596666Y-73679104D01*
X76596666Y-73679104D02*
X76549047Y-73821961D01*
X76549047Y-73821961D02*
X76453809Y-73917200D01*
X76453809Y-73917200D02*
X76310952Y-73964819D01*
X76310952Y-73964819D02*
X76215714Y-73964819D01*
X76977619Y-72964819D02*
X77644285Y-72964819D01*
X77644285Y-72964819D02*
X77215714Y-73964819D01*
X202407142Y-85584819D02*
X202073809Y-85108628D01*
X201835714Y-85584819D02*
X201835714Y-84584819D01*
X201835714Y-84584819D02*
X202216666Y-84584819D01*
X202216666Y-84584819D02*
X202311904Y-84632438D01*
X202311904Y-84632438D02*
X202359523Y-84680057D01*
X202359523Y-84680057D02*
X202407142Y-84775295D01*
X202407142Y-84775295D02*
X202407142Y-84918152D01*
X202407142Y-84918152D02*
X202359523Y-85013390D01*
X202359523Y-85013390D02*
X202311904Y-85061009D01*
X202311904Y-85061009D02*
X202216666Y-85108628D01*
X202216666Y-85108628D02*
X201835714Y-85108628D01*
X203359523Y-85584819D02*
X202788095Y-85584819D01*
X203073809Y-85584819D02*
X203073809Y-84584819D01*
X203073809Y-84584819D02*
X202978571Y-84727676D01*
X202978571Y-84727676D02*
X202883333Y-84822914D01*
X202883333Y-84822914D02*
X202788095Y-84870533D01*
X204311904Y-85584819D02*
X203740476Y-85584819D01*
X204026190Y-85584819D02*
X204026190Y-84584819D01*
X204026190Y-84584819D02*
X203930952Y-84727676D01*
X203930952Y-84727676D02*
X203835714Y-84822914D01*
X203835714Y-84822914D02*
X203740476Y-84870533D01*
X199367142Y-119534819D02*
X199033809Y-119058628D01*
X198795714Y-119534819D02*
X198795714Y-118534819D01*
X198795714Y-118534819D02*
X199176666Y-118534819D01*
X199176666Y-118534819D02*
X199271904Y-118582438D01*
X199271904Y-118582438D02*
X199319523Y-118630057D01*
X199319523Y-118630057D02*
X199367142Y-118725295D01*
X199367142Y-118725295D02*
X199367142Y-118868152D01*
X199367142Y-118868152D02*
X199319523Y-118963390D01*
X199319523Y-118963390D02*
X199271904Y-119011009D01*
X199271904Y-119011009D02*
X199176666Y-119058628D01*
X199176666Y-119058628D02*
X198795714Y-119058628D01*
X200319523Y-119534819D02*
X199748095Y-119534819D01*
X200033809Y-119534819D02*
X200033809Y-118534819D01*
X200033809Y-118534819D02*
X199938571Y-118677676D01*
X199938571Y-118677676D02*
X199843333Y-118772914D01*
X199843333Y-118772914D02*
X199748095Y-118820533D01*
X201224285Y-118534819D02*
X200748095Y-118534819D01*
X200748095Y-118534819D02*
X200700476Y-119011009D01*
X200700476Y-119011009D02*
X200748095Y-118963390D01*
X200748095Y-118963390D02*
X200843333Y-118915771D01*
X200843333Y-118915771D02*
X201081428Y-118915771D01*
X201081428Y-118915771D02*
X201176666Y-118963390D01*
X201176666Y-118963390D02*
X201224285Y-119011009D01*
X201224285Y-119011009D02*
X201271904Y-119106247D01*
X201271904Y-119106247D02*
X201271904Y-119344342D01*
X201271904Y-119344342D02*
X201224285Y-119439580D01*
X201224285Y-119439580D02*
X201176666Y-119487200D01*
X201176666Y-119487200D02*
X201081428Y-119534819D01*
X201081428Y-119534819D02*
X200843333Y-119534819D01*
X200843333Y-119534819D02*
X200748095Y-119487200D01*
X200748095Y-119487200D02*
X200700476Y-119439580D01*
X209046666Y-58004819D02*
X209046666Y-58719104D01*
X209046666Y-58719104D02*
X208999047Y-58861961D01*
X208999047Y-58861961D02*
X208903809Y-58957200D01*
X208903809Y-58957200D02*
X208760952Y-59004819D01*
X208760952Y-59004819D02*
X208665714Y-59004819D01*
X209999047Y-58004819D02*
X209522857Y-58004819D01*
X209522857Y-58004819D02*
X209475238Y-58481009D01*
X209475238Y-58481009D02*
X209522857Y-58433390D01*
X209522857Y-58433390D02*
X209618095Y-58385771D01*
X209618095Y-58385771D02*
X209856190Y-58385771D01*
X209856190Y-58385771D02*
X209951428Y-58433390D01*
X209951428Y-58433390D02*
X209999047Y-58481009D01*
X209999047Y-58481009D02*
X210046666Y-58576247D01*
X210046666Y-58576247D02*
X210046666Y-58814342D01*
X210046666Y-58814342D02*
X209999047Y-58909580D01*
X209999047Y-58909580D02*
X209951428Y-58957200D01*
X209951428Y-58957200D02*
X209856190Y-59004819D01*
X209856190Y-59004819D02*
X209618095Y-59004819D01*
X209618095Y-59004819D02*
X209522857Y-58957200D01*
X209522857Y-58957200D02*
X209475238Y-58909580D01*
X175035987Y-49753724D02*
X175035987Y-50469466D01*
X175035987Y-50469466D02*
X174988271Y-50612614D01*
X174988271Y-50612614D02*
X174892839Y-50708047D01*
X174892839Y-50708047D02*
X174749690Y-50755763D01*
X174749690Y-50755763D02*
X174654258Y-50755763D01*
X175417716Y-49753724D02*
X176038026Y-49753724D01*
X176038026Y-49753724D02*
X175704013Y-50135453D01*
X175704013Y-50135453D02*
X175847161Y-50135453D01*
X175847161Y-50135453D02*
X175942594Y-50183169D01*
X175942594Y-50183169D02*
X175990310Y-50230885D01*
X175990310Y-50230885D02*
X176038026Y-50326317D01*
X176038026Y-50326317D02*
X176038026Y-50564898D01*
X176038026Y-50564898D02*
X175990310Y-50660330D01*
X175990310Y-50660330D02*
X175942594Y-50708047D01*
X175942594Y-50708047D02*
X175847161Y-50755763D01*
X175847161Y-50755763D02*
X175560864Y-50755763D01*
X175560864Y-50755763D02*
X175465432Y-50708047D01*
X175465432Y-50708047D02*
X175417716Y-50660330D01*
X192019580Y-134102857D02*
X192067200Y-134150476D01*
X192067200Y-134150476D02*
X192114819Y-134293333D01*
X192114819Y-134293333D02*
X192114819Y-134388571D01*
X192114819Y-134388571D02*
X192067200Y-134531428D01*
X192067200Y-134531428D02*
X191971961Y-134626666D01*
X191971961Y-134626666D02*
X191876723Y-134674285D01*
X191876723Y-134674285D02*
X191686247Y-134721904D01*
X191686247Y-134721904D02*
X191543390Y-134721904D01*
X191543390Y-134721904D02*
X191352914Y-134674285D01*
X191352914Y-134674285D02*
X191257676Y-134626666D01*
X191257676Y-134626666D02*
X191162438Y-134531428D01*
X191162438Y-134531428D02*
X191114819Y-134388571D01*
X191114819Y-134388571D02*
X191114819Y-134293333D01*
X191114819Y-134293333D02*
X191162438Y-134150476D01*
X191162438Y-134150476D02*
X191210057Y-134102857D01*
X192114819Y-133150476D02*
X192114819Y-133721904D01*
X192114819Y-133436190D02*
X191114819Y-133436190D01*
X191114819Y-133436190D02*
X191257676Y-133531428D01*
X191257676Y-133531428D02*
X191352914Y-133626666D01*
X191352914Y-133626666D02*
X191400533Y-133721904D01*
X192114819Y-132198095D02*
X192114819Y-132769523D01*
X192114819Y-132483809D02*
X191114819Y-132483809D01*
X191114819Y-132483809D02*
X191257676Y-132579047D01*
X191257676Y-132579047D02*
X191352914Y-132674285D01*
X191352914Y-132674285D02*
X191400533Y-132769523D01*
X118582142Y-91809580D02*
X118534523Y-91857200D01*
X118534523Y-91857200D02*
X118391666Y-91904819D01*
X118391666Y-91904819D02*
X118296428Y-91904819D01*
X118296428Y-91904819D02*
X118153571Y-91857200D01*
X118153571Y-91857200D02*
X118058333Y-91761961D01*
X118058333Y-91761961D02*
X118010714Y-91666723D01*
X118010714Y-91666723D02*
X117963095Y-91476247D01*
X117963095Y-91476247D02*
X117963095Y-91333390D01*
X117963095Y-91333390D02*
X118010714Y-91142914D01*
X118010714Y-91142914D02*
X118058333Y-91047676D01*
X118058333Y-91047676D02*
X118153571Y-90952438D01*
X118153571Y-90952438D02*
X118296428Y-90904819D01*
X118296428Y-90904819D02*
X118391666Y-90904819D01*
X118391666Y-90904819D02*
X118534523Y-90952438D01*
X118534523Y-90952438D02*
X118582142Y-91000057D01*
X119534523Y-91904819D02*
X118963095Y-91904819D01*
X119248809Y-91904819D02*
X119248809Y-90904819D01*
X119248809Y-90904819D02*
X119153571Y-91047676D01*
X119153571Y-91047676D02*
X119058333Y-91142914D01*
X119058333Y-91142914D02*
X118963095Y-91190533D01*
X120391666Y-90904819D02*
X120201190Y-90904819D01*
X120201190Y-90904819D02*
X120105952Y-90952438D01*
X120105952Y-90952438D02*
X120058333Y-91000057D01*
X120058333Y-91000057D02*
X119963095Y-91142914D01*
X119963095Y-91142914D02*
X119915476Y-91333390D01*
X119915476Y-91333390D02*
X119915476Y-91714342D01*
X119915476Y-91714342D02*
X119963095Y-91809580D01*
X119963095Y-91809580D02*
X120010714Y-91857200D01*
X120010714Y-91857200D02*
X120105952Y-91904819D01*
X120105952Y-91904819D02*
X120296428Y-91904819D01*
X120296428Y-91904819D02*
X120391666Y-91857200D01*
X120391666Y-91857200D02*
X120439285Y-91809580D01*
X120439285Y-91809580D02*
X120486904Y-91714342D01*
X120486904Y-91714342D02*
X120486904Y-91476247D01*
X120486904Y-91476247D02*
X120439285Y-91381009D01*
X120439285Y-91381009D02*
X120391666Y-91333390D01*
X120391666Y-91333390D02*
X120296428Y-91285771D01*
X120296428Y-91285771D02*
X120105952Y-91285771D01*
X120105952Y-91285771D02*
X120010714Y-91333390D01*
X120010714Y-91333390D02*
X119963095Y-91381009D01*
X119963095Y-91381009D02*
X119915476Y-91476247D01*
X211829580Y-54726666D02*
X211877200Y-54774285D01*
X211877200Y-54774285D02*
X211924819Y-54917142D01*
X211924819Y-54917142D02*
X211924819Y-55012380D01*
X211924819Y-55012380D02*
X211877200Y-55155237D01*
X211877200Y-55155237D02*
X211781961Y-55250475D01*
X211781961Y-55250475D02*
X211686723Y-55298094D01*
X211686723Y-55298094D02*
X211496247Y-55345713D01*
X211496247Y-55345713D02*
X211353390Y-55345713D01*
X211353390Y-55345713D02*
X211162914Y-55298094D01*
X211162914Y-55298094D02*
X211067676Y-55250475D01*
X211067676Y-55250475D02*
X210972438Y-55155237D01*
X210972438Y-55155237D02*
X210924819Y-55012380D01*
X210924819Y-55012380D02*
X210924819Y-54917142D01*
X210924819Y-54917142D02*
X210972438Y-54774285D01*
X210972438Y-54774285D02*
X211020057Y-54726666D01*
X210924819Y-54393332D02*
X210924819Y-53726666D01*
X210924819Y-53726666D02*
X211924819Y-54155237D01*
X155194819Y-76224285D02*
X154194819Y-76224285D01*
X154194819Y-76224285D02*
X154194819Y-75986190D01*
X154194819Y-75986190D02*
X154242438Y-75843333D01*
X154242438Y-75843333D02*
X154337676Y-75748095D01*
X154337676Y-75748095D02*
X154432914Y-75700476D01*
X154432914Y-75700476D02*
X154623390Y-75652857D01*
X154623390Y-75652857D02*
X154766247Y-75652857D01*
X154766247Y-75652857D02*
X154956723Y-75700476D01*
X154956723Y-75700476D02*
X155051961Y-75748095D01*
X155051961Y-75748095D02*
X155147200Y-75843333D01*
X155147200Y-75843333D02*
X155194819Y-75986190D01*
X155194819Y-75986190D02*
X155194819Y-76224285D01*
X155147200Y-75271904D02*
X155194819Y-75129047D01*
X155194819Y-75129047D02*
X155194819Y-74890952D01*
X155194819Y-74890952D02*
X155147200Y-74795714D01*
X155147200Y-74795714D02*
X155099580Y-74748095D01*
X155099580Y-74748095D02*
X155004342Y-74700476D01*
X155004342Y-74700476D02*
X154909104Y-74700476D01*
X154909104Y-74700476D02*
X154813866Y-74748095D01*
X154813866Y-74748095D02*
X154766247Y-74795714D01*
X154766247Y-74795714D02*
X154718628Y-74890952D01*
X154718628Y-74890952D02*
X154671009Y-75081428D01*
X154671009Y-75081428D02*
X154623390Y-75176666D01*
X154623390Y-75176666D02*
X154575771Y-75224285D01*
X154575771Y-75224285D02*
X154480533Y-75271904D01*
X154480533Y-75271904D02*
X154385295Y-75271904D01*
X154385295Y-75271904D02*
X154290057Y-75224285D01*
X154290057Y-75224285D02*
X154242438Y-75176666D01*
X154242438Y-75176666D02*
X154194819Y-75081428D01*
X154194819Y-75081428D02*
X154194819Y-74843333D01*
X154194819Y-74843333D02*
X154242438Y-74700476D01*
X155194819Y-73748095D02*
X155194819Y-74319523D01*
X155194819Y-74033809D02*
X154194819Y-74033809D01*
X154194819Y-74033809D02*
X154337676Y-74129047D01*
X154337676Y-74129047D02*
X154432914Y-74224285D01*
X154432914Y-74224285D02*
X154480533Y-74319523D01*
X95275057Y-132375238D02*
X95227438Y-132470476D01*
X95227438Y-132470476D02*
X95132200Y-132565714D01*
X95132200Y-132565714D02*
X94989342Y-132708571D01*
X94989342Y-132708571D02*
X94941723Y-132803809D01*
X94941723Y-132803809D02*
X94941723Y-132899047D01*
X95179819Y-132851428D02*
X95132200Y-132946666D01*
X95132200Y-132946666D02*
X95036961Y-133041904D01*
X95036961Y-133041904D02*
X94846485Y-133089523D01*
X94846485Y-133089523D02*
X94513152Y-133089523D01*
X94513152Y-133089523D02*
X94322676Y-133041904D01*
X94322676Y-133041904D02*
X94227438Y-132946666D01*
X94227438Y-132946666D02*
X94179819Y-132851428D01*
X94179819Y-132851428D02*
X94179819Y-132660952D01*
X94179819Y-132660952D02*
X94227438Y-132565714D01*
X94227438Y-132565714D02*
X94322676Y-132470476D01*
X94322676Y-132470476D02*
X94513152Y-132422857D01*
X94513152Y-132422857D02*
X94846485Y-132422857D01*
X94846485Y-132422857D02*
X95036961Y-132470476D01*
X95036961Y-132470476D02*
X95132200Y-132565714D01*
X95132200Y-132565714D02*
X95179819Y-132660952D01*
X95179819Y-132660952D02*
X95179819Y-132851428D01*
X94275057Y-132041904D02*
X94227438Y-131994285D01*
X94227438Y-131994285D02*
X94179819Y-131899047D01*
X94179819Y-131899047D02*
X94179819Y-131660952D01*
X94179819Y-131660952D02*
X94227438Y-131565714D01*
X94227438Y-131565714D02*
X94275057Y-131518095D01*
X94275057Y-131518095D02*
X94370295Y-131470476D01*
X94370295Y-131470476D02*
X94465533Y-131470476D01*
X94465533Y-131470476D02*
X94608390Y-131518095D01*
X94608390Y-131518095D02*
X95179819Y-132089523D01*
X95179819Y-132089523D02*
X95179819Y-131470476D01*
X58174819Y-83796666D02*
X57698628Y-84129999D01*
X58174819Y-84368094D02*
X57174819Y-84368094D01*
X57174819Y-84368094D02*
X57174819Y-83987142D01*
X57174819Y-83987142D02*
X57222438Y-83891904D01*
X57222438Y-83891904D02*
X57270057Y-83844285D01*
X57270057Y-83844285D02*
X57365295Y-83796666D01*
X57365295Y-83796666D02*
X57508152Y-83796666D01*
X57508152Y-83796666D02*
X57603390Y-83844285D01*
X57603390Y-83844285D02*
X57651009Y-83891904D01*
X57651009Y-83891904D02*
X57698628Y-83987142D01*
X57698628Y-83987142D02*
X57698628Y-84368094D01*
X57270057Y-83415713D02*
X57222438Y-83368094D01*
X57222438Y-83368094D02*
X57174819Y-83272856D01*
X57174819Y-83272856D02*
X57174819Y-83034761D01*
X57174819Y-83034761D02*
X57222438Y-82939523D01*
X57222438Y-82939523D02*
X57270057Y-82891904D01*
X57270057Y-82891904D02*
X57365295Y-82844285D01*
X57365295Y-82844285D02*
X57460533Y-82844285D01*
X57460533Y-82844285D02*
X57603390Y-82891904D01*
X57603390Y-82891904D02*
X58174819Y-83463332D01*
X58174819Y-83463332D02*
X58174819Y-82844285D01*
X73534819Y-128187857D02*
X73058628Y-128521190D01*
X73534819Y-128759285D02*
X72534819Y-128759285D01*
X72534819Y-128759285D02*
X72534819Y-128378333D01*
X72534819Y-128378333D02*
X72582438Y-128283095D01*
X72582438Y-128283095D02*
X72630057Y-128235476D01*
X72630057Y-128235476D02*
X72725295Y-128187857D01*
X72725295Y-128187857D02*
X72868152Y-128187857D01*
X72868152Y-128187857D02*
X72963390Y-128235476D01*
X72963390Y-128235476D02*
X73011009Y-128283095D01*
X73011009Y-128283095D02*
X73058628Y-128378333D01*
X73058628Y-128378333D02*
X73058628Y-128759285D01*
X73534819Y-127235476D02*
X73534819Y-127806904D01*
X73534819Y-127521190D02*
X72534819Y-127521190D01*
X72534819Y-127521190D02*
X72677676Y-127616428D01*
X72677676Y-127616428D02*
X72772914Y-127711666D01*
X72772914Y-127711666D02*
X72820533Y-127806904D01*
X72534819Y-126378333D02*
X72534819Y-126568809D01*
X72534819Y-126568809D02*
X72582438Y-126664047D01*
X72582438Y-126664047D02*
X72630057Y-126711666D01*
X72630057Y-126711666D02*
X72772914Y-126806904D01*
X72772914Y-126806904D02*
X72963390Y-126854523D01*
X72963390Y-126854523D02*
X73344342Y-126854523D01*
X73344342Y-126854523D02*
X73439580Y-126806904D01*
X73439580Y-126806904D02*
X73487200Y-126759285D01*
X73487200Y-126759285D02*
X73534819Y-126664047D01*
X73534819Y-126664047D02*
X73534819Y-126473571D01*
X73534819Y-126473571D02*
X73487200Y-126378333D01*
X73487200Y-126378333D02*
X73439580Y-126330714D01*
X73439580Y-126330714D02*
X73344342Y-126283095D01*
X73344342Y-126283095D02*
X73106247Y-126283095D01*
X73106247Y-126283095D02*
X73011009Y-126330714D01*
X73011009Y-126330714D02*
X72963390Y-126378333D01*
X72963390Y-126378333D02*
X72915771Y-126473571D01*
X72915771Y-126473571D02*
X72915771Y-126664047D01*
X72915771Y-126664047D02*
X72963390Y-126759285D01*
X72963390Y-126759285D02*
X73011009Y-126806904D01*
X73011009Y-126806904D02*
X73106247Y-126854523D01*
X114238095Y-140304819D02*
X114238095Y-139304819D01*
X114238095Y-139781009D02*
X114809523Y-139781009D01*
X114809523Y-140304819D02*
X114809523Y-139304819D01*
X115238095Y-139400057D02*
X115285714Y-139352438D01*
X115285714Y-139352438D02*
X115380952Y-139304819D01*
X115380952Y-139304819D02*
X115619047Y-139304819D01*
X115619047Y-139304819D02*
X115714285Y-139352438D01*
X115714285Y-139352438D02*
X115761904Y-139400057D01*
X115761904Y-139400057D02*
X115809523Y-139495295D01*
X115809523Y-139495295D02*
X115809523Y-139590533D01*
X115809523Y-139590533D02*
X115761904Y-139733390D01*
X115761904Y-139733390D02*
X115190476Y-140304819D01*
X115190476Y-140304819D02*
X115809523Y-140304819D01*
X201204761Y-63250057D02*
X201109523Y-63202438D01*
X201109523Y-63202438D02*
X201014285Y-63107200D01*
X201014285Y-63107200D02*
X200871428Y-62964342D01*
X200871428Y-62964342D02*
X200776190Y-62916723D01*
X200776190Y-62916723D02*
X200680952Y-62916723D01*
X200728571Y-63154819D02*
X200633333Y-63107200D01*
X200633333Y-63107200D02*
X200538095Y-63011961D01*
X200538095Y-63011961D02*
X200490476Y-62821485D01*
X200490476Y-62821485D02*
X200490476Y-62488152D01*
X200490476Y-62488152D02*
X200538095Y-62297676D01*
X200538095Y-62297676D02*
X200633333Y-62202438D01*
X200633333Y-62202438D02*
X200728571Y-62154819D01*
X200728571Y-62154819D02*
X200919047Y-62154819D01*
X200919047Y-62154819D02*
X201014285Y-62202438D01*
X201014285Y-62202438D02*
X201109523Y-62297676D01*
X201109523Y-62297676D02*
X201157142Y-62488152D01*
X201157142Y-62488152D02*
X201157142Y-62821485D01*
X201157142Y-62821485D02*
X201109523Y-63011961D01*
X201109523Y-63011961D02*
X201014285Y-63107200D01*
X201014285Y-63107200D02*
X200919047Y-63154819D01*
X200919047Y-63154819D02*
X200728571Y-63154819D01*
X202061904Y-62154819D02*
X201585714Y-62154819D01*
X201585714Y-62154819D02*
X201538095Y-62631009D01*
X201538095Y-62631009D02*
X201585714Y-62583390D01*
X201585714Y-62583390D02*
X201680952Y-62535771D01*
X201680952Y-62535771D02*
X201919047Y-62535771D01*
X201919047Y-62535771D02*
X202014285Y-62583390D01*
X202014285Y-62583390D02*
X202061904Y-62631009D01*
X202061904Y-62631009D02*
X202109523Y-62726247D01*
X202109523Y-62726247D02*
X202109523Y-62964342D01*
X202109523Y-62964342D02*
X202061904Y-63059580D01*
X202061904Y-63059580D02*
X202014285Y-63107200D01*
X202014285Y-63107200D02*
X201919047Y-63154819D01*
X201919047Y-63154819D02*
X201680952Y-63154819D01*
X201680952Y-63154819D02*
X201585714Y-63107200D01*
X201585714Y-63107200D02*
X201538095Y-63059580D01*
X100434819Y-141023094D02*
X99434819Y-141023094D01*
X99434819Y-141023094D02*
X99434819Y-140784999D01*
X99434819Y-140784999D02*
X99482438Y-140642142D01*
X99482438Y-140642142D02*
X99577676Y-140546904D01*
X99577676Y-140546904D02*
X99672914Y-140499285D01*
X99672914Y-140499285D02*
X99863390Y-140451666D01*
X99863390Y-140451666D02*
X100006247Y-140451666D01*
X100006247Y-140451666D02*
X100196723Y-140499285D01*
X100196723Y-140499285D02*
X100291961Y-140546904D01*
X100291961Y-140546904D02*
X100387200Y-140642142D01*
X100387200Y-140642142D02*
X100434819Y-140784999D01*
X100434819Y-140784999D02*
X100434819Y-141023094D01*
X99434819Y-140118332D02*
X99434819Y-139499285D01*
X99434819Y-139499285D02*
X99815771Y-139832618D01*
X99815771Y-139832618D02*
X99815771Y-139689761D01*
X99815771Y-139689761D02*
X99863390Y-139594523D01*
X99863390Y-139594523D02*
X99911009Y-139546904D01*
X99911009Y-139546904D02*
X100006247Y-139499285D01*
X100006247Y-139499285D02*
X100244342Y-139499285D01*
X100244342Y-139499285D02*
X100339580Y-139546904D01*
X100339580Y-139546904D02*
X100387200Y-139594523D01*
X100387200Y-139594523D02*
X100434819Y-139689761D01*
X100434819Y-139689761D02*
X100434819Y-139975475D01*
X100434819Y-139975475D02*
X100387200Y-140070713D01*
X100387200Y-140070713D02*
X100339580Y-140118332D01*
X81657142Y-118064580D02*
X81609523Y-118112200D01*
X81609523Y-118112200D02*
X81466666Y-118159819D01*
X81466666Y-118159819D02*
X81371428Y-118159819D01*
X81371428Y-118159819D02*
X81228571Y-118112200D01*
X81228571Y-118112200D02*
X81133333Y-118016961D01*
X81133333Y-118016961D02*
X81085714Y-117921723D01*
X81085714Y-117921723D02*
X81038095Y-117731247D01*
X81038095Y-117731247D02*
X81038095Y-117588390D01*
X81038095Y-117588390D02*
X81085714Y-117397914D01*
X81085714Y-117397914D02*
X81133333Y-117302676D01*
X81133333Y-117302676D02*
X81228571Y-117207438D01*
X81228571Y-117207438D02*
X81371428Y-117159819D01*
X81371428Y-117159819D02*
X81466666Y-117159819D01*
X81466666Y-117159819D02*
X81609523Y-117207438D01*
X81609523Y-117207438D02*
X81657142Y-117255057D01*
X82609523Y-118159819D02*
X82038095Y-118159819D01*
X82323809Y-118159819D02*
X82323809Y-117159819D01*
X82323809Y-117159819D02*
X82228571Y-117302676D01*
X82228571Y-117302676D02*
X82133333Y-117397914D01*
X82133333Y-117397914D02*
X82038095Y-117445533D01*
X83180952Y-117588390D02*
X83085714Y-117540771D01*
X83085714Y-117540771D02*
X83038095Y-117493152D01*
X83038095Y-117493152D02*
X82990476Y-117397914D01*
X82990476Y-117397914D02*
X82990476Y-117350295D01*
X82990476Y-117350295D02*
X83038095Y-117255057D01*
X83038095Y-117255057D02*
X83085714Y-117207438D01*
X83085714Y-117207438D02*
X83180952Y-117159819D01*
X83180952Y-117159819D02*
X83371428Y-117159819D01*
X83371428Y-117159819D02*
X83466666Y-117207438D01*
X83466666Y-117207438D02*
X83514285Y-117255057D01*
X83514285Y-117255057D02*
X83561904Y-117350295D01*
X83561904Y-117350295D02*
X83561904Y-117397914D01*
X83561904Y-117397914D02*
X83514285Y-117493152D01*
X83514285Y-117493152D02*
X83466666Y-117540771D01*
X83466666Y-117540771D02*
X83371428Y-117588390D01*
X83371428Y-117588390D02*
X83180952Y-117588390D01*
X83180952Y-117588390D02*
X83085714Y-117636009D01*
X83085714Y-117636009D02*
X83038095Y-117683628D01*
X83038095Y-117683628D02*
X82990476Y-117778866D01*
X82990476Y-117778866D02*
X82990476Y-117969342D01*
X82990476Y-117969342D02*
X83038095Y-118064580D01*
X83038095Y-118064580D02*
X83085714Y-118112200D01*
X83085714Y-118112200D02*
X83180952Y-118159819D01*
X83180952Y-118159819D02*
X83371428Y-118159819D01*
X83371428Y-118159819D02*
X83466666Y-118112200D01*
X83466666Y-118112200D02*
X83514285Y-118064580D01*
X83514285Y-118064580D02*
X83561904Y-117969342D01*
X83561904Y-117969342D02*
X83561904Y-117778866D01*
X83561904Y-117778866D02*
X83514285Y-117683628D01*
X83514285Y-117683628D02*
X83466666Y-117636009D01*
X83466666Y-117636009D02*
X83371428Y-117588390D01*
X107319580Y-124376666D02*
X107367200Y-124424285D01*
X107367200Y-124424285D02*
X107414819Y-124567142D01*
X107414819Y-124567142D02*
X107414819Y-124662380D01*
X107414819Y-124662380D02*
X107367200Y-124805237D01*
X107367200Y-124805237D02*
X107271961Y-124900475D01*
X107271961Y-124900475D02*
X107176723Y-124948094D01*
X107176723Y-124948094D02*
X106986247Y-124995713D01*
X106986247Y-124995713D02*
X106843390Y-124995713D01*
X106843390Y-124995713D02*
X106652914Y-124948094D01*
X106652914Y-124948094D02*
X106557676Y-124900475D01*
X106557676Y-124900475D02*
X106462438Y-124805237D01*
X106462438Y-124805237D02*
X106414819Y-124662380D01*
X106414819Y-124662380D02*
X106414819Y-124567142D01*
X106414819Y-124567142D02*
X106462438Y-124424285D01*
X106462438Y-124424285D02*
X106510057Y-124376666D01*
X106510057Y-123995713D02*
X106462438Y-123948094D01*
X106462438Y-123948094D02*
X106414819Y-123852856D01*
X106414819Y-123852856D02*
X106414819Y-123614761D01*
X106414819Y-123614761D02*
X106462438Y-123519523D01*
X106462438Y-123519523D02*
X106510057Y-123471904D01*
X106510057Y-123471904D02*
X106605295Y-123424285D01*
X106605295Y-123424285D02*
X106700533Y-123424285D01*
X106700533Y-123424285D02*
X106843390Y-123471904D01*
X106843390Y-123471904D02*
X107414819Y-124043332D01*
X107414819Y-124043332D02*
X107414819Y-123424285D01*
X190659580Y-105822857D02*
X190707200Y-105870476D01*
X190707200Y-105870476D02*
X190754819Y-106013333D01*
X190754819Y-106013333D02*
X190754819Y-106108571D01*
X190754819Y-106108571D02*
X190707200Y-106251428D01*
X190707200Y-106251428D02*
X190611961Y-106346666D01*
X190611961Y-106346666D02*
X190516723Y-106394285D01*
X190516723Y-106394285D02*
X190326247Y-106441904D01*
X190326247Y-106441904D02*
X190183390Y-106441904D01*
X190183390Y-106441904D02*
X189992914Y-106394285D01*
X189992914Y-106394285D02*
X189897676Y-106346666D01*
X189897676Y-106346666D02*
X189802438Y-106251428D01*
X189802438Y-106251428D02*
X189754819Y-106108571D01*
X189754819Y-106108571D02*
X189754819Y-106013333D01*
X189754819Y-106013333D02*
X189802438Y-105870476D01*
X189802438Y-105870476D02*
X189850057Y-105822857D01*
X190754819Y-104870476D02*
X190754819Y-105441904D01*
X190754819Y-105156190D02*
X189754819Y-105156190D01*
X189754819Y-105156190D02*
X189897676Y-105251428D01*
X189897676Y-105251428D02*
X189992914Y-105346666D01*
X189992914Y-105346666D02*
X190040533Y-105441904D01*
X190754819Y-104394285D02*
X190754819Y-104203809D01*
X190754819Y-104203809D02*
X190707200Y-104108571D01*
X190707200Y-104108571D02*
X190659580Y-104060952D01*
X190659580Y-104060952D02*
X190516723Y-103965714D01*
X190516723Y-103965714D02*
X190326247Y-103918095D01*
X190326247Y-103918095D02*
X189945295Y-103918095D01*
X189945295Y-103918095D02*
X189850057Y-103965714D01*
X189850057Y-103965714D02*
X189802438Y-104013333D01*
X189802438Y-104013333D02*
X189754819Y-104108571D01*
X189754819Y-104108571D02*
X189754819Y-104299047D01*
X189754819Y-104299047D02*
X189802438Y-104394285D01*
X189802438Y-104394285D02*
X189850057Y-104441904D01*
X189850057Y-104441904D02*
X189945295Y-104489523D01*
X189945295Y-104489523D02*
X190183390Y-104489523D01*
X190183390Y-104489523D02*
X190278628Y-104441904D01*
X190278628Y-104441904D02*
X190326247Y-104394285D01*
X190326247Y-104394285D02*
X190373866Y-104299047D01*
X190373866Y-104299047D02*
X190373866Y-104108571D01*
X190373866Y-104108571D02*
X190326247Y-104013333D01*
X190326247Y-104013333D02*
X190278628Y-103965714D01*
X190278628Y-103965714D02*
X190183390Y-103918095D01*
X84359580Y-146927857D02*
X84407200Y-146975476D01*
X84407200Y-146975476D02*
X84454819Y-147118333D01*
X84454819Y-147118333D02*
X84454819Y-147213571D01*
X84454819Y-147213571D02*
X84407200Y-147356428D01*
X84407200Y-147356428D02*
X84311961Y-147451666D01*
X84311961Y-147451666D02*
X84216723Y-147499285D01*
X84216723Y-147499285D02*
X84026247Y-147546904D01*
X84026247Y-147546904D02*
X83883390Y-147546904D01*
X83883390Y-147546904D02*
X83692914Y-147499285D01*
X83692914Y-147499285D02*
X83597676Y-147451666D01*
X83597676Y-147451666D02*
X83502438Y-147356428D01*
X83502438Y-147356428D02*
X83454819Y-147213571D01*
X83454819Y-147213571D02*
X83454819Y-147118333D01*
X83454819Y-147118333D02*
X83502438Y-146975476D01*
X83502438Y-146975476D02*
X83550057Y-146927857D01*
X84454819Y-145975476D02*
X84454819Y-146546904D01*
X84454819Y-146261190D02*
X83454819Y-146261190D01*
X83454819Y-146261190D02*
X83597676Y-146356428D01*
X83597676Y-146356428D02*
X83692914Y-146451666D01*
X83692914Y-146451666D02*
X83740533Y-146546904D01*
X83454819Y-145070714D02*
X83454819Y-145546904D01*
X83454819Y-145546904D02*
X83931009Y-145594523D01*
X83931009Y-145594523D02*
X83883390Y-145546904D01*
X83883390Y-145546904D02*
X83835771Y-145451666D01*
X83835771Y-145451666D02*
X83835771Y-145213571D01*
X83835771Y-145213571D02*
X83883390Y-145118333D01*
X83883390Y-145118333D02*
X83931009Y-145070714D01*
X83931009Y-145070714D02*
X84026247Y-145023095D01*
X84026247Y-145023095D02*
X84264342Y-145023095D01*
X84264342Y-145023095D02*
X84359580Y-145070714D01*
X84359580Y-145070714D02*
X84407200Y-145118333D01*
X84407200Y-145118333D02*
X84454819Y-145213571D01*
X84454819Y-145213571D02*
X84454819Y-145451666D01*
X84454819Y-145451666D02*
X84407200Y-145546904D01*
X84407200Y-145546904D02*
X84359580Y-145594523D01*
X210859761Y-143035057D02*
X210764523Y-142987438D01*
X210764523Y-142987438D02*
X210669285Y-142892200D01*
X210669285Y-142892200D02*
X210526428Y-142749342D01*
X210526428Y-142749342D02*
X210431190Y-142701723D01*
X210431190Y-142701723D02*
X210335952Y-142701723D01*
X210383571Y-142939819D02*
X210288333Y-142892200D01*
X210288333Y-142892200D02*
X210193095Y-142796961D01*
X210193095Y-142796961D02*
X210145476Y-142606485D01*
X210145476Y-142606485D02*
X210145476Y-142273152D01*
X210145476Y-142273152D02*
X210193095Y-142082676D01*
X210193095Y-142082676D02*
X210288333Y-141987438D01*
X210288333Y-141987438D02*
X210383571Y-141939819D01*
X210383571Y-141939819D02*
X210574047Y-141939819D01*
X210574047Y-141939819D02*
X210669285Y-141987438D01*
X210669285Y-141987438D02*
X210764523Y-142082676D01*
X210764523Y-142082676D02*
X210812142Y-142273152D01*
X210812142Y-142273152D02*
X210812142Y-142606485D01*
X210812142Y-142606485D02*
X210764523Y-142796961D01*
X210764523Y-142796961D02*
X210669285Y-142892200D01*
X210669285Y-142892200D02*
X210574047Y-142939819D01*
X210574047Y-142939819D02*
X210383571Y-142939819D01*
X211764523Y-142939819D02*
X211193095Y-142939819D01*
X211478809Y-142939819D02*
X211478809Y-141939819D01*
X211478809Y-141939819D02*
X211383571Y-142082676D01*
X211383571Y-142082676D02*
X211288333Y-142177914D01*
X211288333Y-142177914D02*
X211193095Y-142225533D01*
X155446666Y-63141009D02*
X155113333Y-63141009D01*
X155113333Y-63664819D02*
X155113333Y-62664819D01*
X155113333Y-62664819D02*
X155589523Y-62664819D01*
X156494285Y-63664819D02*
X155922857Y-63664819D01*
X156208571Y-63664819D02*
X156208571Y-62664819D01*
X156208571Y-62664819D02*
X156113333Y-62807676D01*
X156113333Y-62807676D02*
X156018095Y-62902914D01*
X156018095Y-62902914D02*
X155922857Y-62950533D01*
X116884819Y-65675238D02*
X116408628Y-66008571D01*
X116884819Y-66246666D02*
X115884819Y-66246666D01*
X115884819Y-66246666D02*
X115884819Y-65865714D01*
X115884819Y-65865714D02*
X115932438Y-65770476D01*
X115932438Y-65770476D02*
X115980057Y-65722857D01*
X115980057Y-65722857D02*
X116075295Y-65675238D01*
X116075295Y-65675238D02*
X116218152Y-65675238D01*
X116218152Y-65675238D02*
X116313390Y-65722857D01*
X116313390Y-65722857D02*
X116361009Y-65770476D01*
X116361009Y-65770476D02*
X116408628Y-65865714D01*
X116408628Y-65865714D02*
X116408628Y-66246666D01*
X115884819Y-65389523D02*
X116884819Y-65056190D01*
X116884819Y-65056190D02*
X115884819Y-64722857D01*
X116884819Y-63865714D02*
X116884819Y-64437142D01*
X116884819Y-64151428D02*
X115884819Y-64151428D01*
X115884819Y-64151428D02*
X116027676Y-64246666D01*
X116027676Y-64246666D02*
X116122914Y-64341904D01*
X116122914Y-64341904D02*
X116170533Y-64437142D01*
X217171905Y-106234819D02*
X217171905Y-105234819D01*
X217171905Y-105234819D02*
X217410000Y-105234819D01*
X217410000Y-105234819D02*
X217552857Y-105282438D01*
X217552857Y-105282438D02*
X217648095Y-105377676D01*
X217648095Y-105377676D02*
X217695714Y-105472914D01*
X217695714Y-105472914D02*
X217743333Y-105663390D01*
X217743333Y-105663390D02*
X217743333Y-105806247D01*
X217743333Y-105806247D02*
X217695714Y-105996723D01*
X217695714Y-105996723D02*
X217648095Y-106091961D01*
X217648095Y-106091961D02*
X217552857Y-106187200D01*
X217552857Y-106187200D02*
X217410000Y-106234819D01*
X217410000Y-106234819D02*
X217171905Y-106234819D01*
X218314762Y-105663390D02*
X218219524Y-105615771D01*
X218219524Y-105615771D02*
X218171905Y-105568152D01*
X218171905Y-105568152D02*
X218124286Y-105472914D01*
X218124286Y-105472914D02*
X218124286Y-105425295D01*
X218124286Y-105425295D02*
X218171905Y-105330057D01*
X218171905Y-105330057D02*
X218219524Y-105282438D01*
X218219524Y-105282438D02*
X218314762Y-105234819D01*
X218314762Y-105234819D02*
X218505238Y-105234819D01*
X218505238Y-105234819D02*
X218600476Y-105282438D01*
X218600476Y-105282438D02*
X218648095Y-105330057D01*
X218648095Y-105330057D02*
X218695714Y-105425295D01*
X218695714Y-105425295D02*
X218695714Y-105472914D01*
X218695714Y-105472914D02*
X218648095Y-105568152D01*
X218648095Y-105568152D02*
X218600476Y-105615771D01*
X218600476Y-105615771D02*
X218505238Y-105663390D01*
X218505238Y-105663390D02*
X218314762Y-105663390D01*
X218314762Y-105663390D02*
X218219524Y-105711009D01*
X218219524Y-105711009D02*
X218171905Y-105758628D01*
X218171905Y-105758628D02*
X218124286Y-105853866D01*
X218124286Y-105853866D02*
X218124286Y-106044342D01*
X218124286Y-106044342D02*
X218171905Y-106139580D01*
X218171905Y-106139580D02*
X218219524Y-106187200D01*
X218219524Y-106187200D02*
X218314762Y-106234819D01*
X218314762Y-106234819D02*
X218505238Y-106234819D01*
X218505238Y-106234819D02*
X218600476Y-106187200D01*
X218600476Y-106187200D02*
X218648095Y-106139580D01*
X218648095Y-106139580D02*
X218695714Y-106044342D01*
X218695714Y-106044342D02*
X218695714Y-105853866D01*
X218695714Y-105853866D02*
X218648095Y-105758628D01*
X218648095Y-105758628D02*
X218600476Y-105711009D01*
X218600476Y-105711009D02*
X218505238Y-105663390D01*
X102538825Y-141498724D02*
X102538825Y-142214466D01*
X102538825Y-142214466D02*
X102491109Y-142357614D01*
X102491109Y-142357614D02*
X102395677Y-142453047D01*
X102395677Y-142453047D02*
X102252528Y-142500763D01*
X102252528Y-142500763D02*
X102157096Y-142500763D01*
X103540864Y-142500763D02*
X102968270Y-142500763D01*
X103254567Y-142500763D02*
X103254567Y-141498724D01*
X103254567Y-141498724D02*
X103159135Y-141641872D01*
X103159135Y-141641872D02*
X103063702Y-141737304D01*
X103063702Y-141737304D02*
X102968270Y-141785021D01*
X104495187Y-142500763D02*
X103922593Y-142500763D01*
X104208890Y-142500763D02*
X104208890Y-141498724D01*
X104208890Y-141498724D02*
X104113458Y-141641872D01*
X104113458Y-141641872D02*
X104018025Y-141737304D01*
X104018025Y-141737304D02*
X103922593Y-141785021D01*
X224317142Y-154669580D02*
X224269523Y-154717200D01*
X224269523Y-154717200D02*
X224126666Y-154764819D01*
X224126666Y-154764819D02*
X224031428Y-154764819D01*
X224031428Y-154764819D02*
X223888571Y-154717200D01*
X223888571Y-154717200D02*
X223793333Y-154621961D01*
X223793333Y-154621961D02*
X223745714Y-154526723D01*
X223745714Y-154526723D02*
X223698095Y-154336247D01*
X223698095Y-154336247D02*
X223698095Y-154193390D01*
X223698095Y-154193390D02*
X223745714Y-154002914D01*
X223745714Y-154002914D02*
X223793333Y-153907676D01*
X223793333Y-153907676D02*
X223888571Y-153812438D01*
X223888571Y-153812438D02*
X224031428Y-153764819D01*
X224031428Y-153764819D02*
X224126666Y-153764819D01*
X224126666Y-153764819D02*
X224269523Y-153812438D01*
X224269523Y-153812438D02*
X224317142Y-153860057D01*
X225269523Y-154764819D02*
X224698095Y-154764819D01*
X224983809Y-154764819D02*
X224983809Y-153764819D01*
X224983809Y-153764819D02*
X224888571Y-153907676D01*
X224888571Y-153907676D02*
X224793333Y-154002914D01*
X224793333Y-154002914D02*
X224698095Y-154050533D01*
X226126666Y-154098152D02*
X226126666Y-154764819D01*
X225888571Y-153717200D02*
X225650476Y-154431485D01*
X225650476Y-154431485D02*
X226269523Y-154431485D01*
X53007142Y-87314580D02*
X52959523Y-87362200D01*
X52959523Y-87362200D02*
X52816666Y-87409819D01*
X52816666Y-87409819D02*
X52721428Y-87409819D01*
X52721428Y-87409819D02*
X52578571Y-87362200D01*
X52578571Y-87362200D02*
X52483333Y-87266961D01*
X52483333Y-87266961D02*
X52435714Y-87171723D01*
X52435714Y-87171723D02*
X52388095Y-86981247D01*
X52388095Y-86981247D02*
X52388095Y-86838390D01*
X52388095Y-86838390D02*
X52435714Y-86647914D01*
X52435714Y-86647914D02*
X52483333Y-86552676D01*
X52483333Y-86552676D02*
X52578571Y-86457438D01*
X52578571Y-86457438D02*
X52721428Y-86409819D01*
X52721428Y-86409819D02*
X52816666Y-86409819D01*
X52816666Y-86409819D02*
X52959523Y-86457438D01*
X52959523Y-86457438D02*
X53007142Y-86505057D01*
X53959523Y-87409819D02*
X53388095Y-87409819D01*
X53673809Y-87409819D02*
X53673809Y-86409819D01*
X53673809Y-86409819D02*
X53578571Y-86552676D01*
X53578571Y-86552676D02*
X53483333Y-86647914D01*
X53483333Y-86647914D02*
X53388095Y-86695533D01*
X54292857Y-86409819D02*
X54911904Y-86409819D01*
X54911904Y-86409819D02*
X54578571Y-86790771D01*
X54578571Y-86790771D02*
X54721428Y-86790771D01*
X54721428Y-86790771D02*
X54816666Y-86838390D01*
X54816666Y-86838390D02*
X54864285Y-86886009D01*
X54864285Y-86886009D02*
X54911904Y-86981247D01*
X54911904Y-86981247D02*
X54911904Y-87219342D01*
X54911904Y-87219342D02*
X54864285Y-87314580D01*
X54864285Y-87314580D02*
X54816666Y-87362200D01*
X54816666Y-87362200D02*
X54721428Y-87409819D01*
X54721428Y-87409819D02*
X54435714Y-87409819D01*
X54435714Y-87409819D02*
X54340476Y-87362200D01*
X54340476Y-87362200D02*
X54292857Y-87314580D01*
X198793333Y-131214819D02*
X198460000Y-130738628D01*
X198221905Y-131214819D02*
X198221905Y-130214819D01*
X198221905Y-130214819D02*
X198602857Y-130214819D01*
X198602857Y-130214819D02*
X198698095Y-130262438D01*
X198698095Y-130262438D02*
X198745714Y-130310057D01*
X198745714Y-130310057D02*
X198793333Y-130405295D01*
X198793333Y-130405295D02*
X198793333Y-130548152D01*
X198793333Y-130548152D02*
X198745714Y-130643390D01*
X198745714Y-130643390D02*
X198698095Y-130691009D01*
X198698095Y-130691009D02*
X198602857Y-130738628D01*
X198602857Y-130738628D02*
X198221905Y-130738628D01*
X199364762Y-130643390D02*
X199269524Y-130595771D01*
X199269524Y-130595771D02*
X199221905Y-130548152D01*
X199221905Y-130548152D02*
X199174286Y-130452914D01*
X199174286Y-130452914D02*
X199174286Y-130405295D01*
X199174286Y-130405295D02*
X199221905Y-130310057D01*
X199221905Y-130310057D02*
X199269524Y-130262438D01*
X199269524Y-130262438D02*
X199364762Y-130214819D01*
X199364762Y-130214819D02*
X199555238Y-130214819D01*
X199555238Y-130214819D02*
X199650476Y-130262438D01*
X199650476Y-130262438D02*
X199698095Y-130310057D01*
X199698095Y-130310057D02*
X199745714Y-130405295D01*
X199745714Y-130405295D02*
X199745714Y-130452914D01*
X199745714Y-130452914D02*
X199698095Y-130548152D01*
X199698095Y-130548152D02*
X199650476Y-130595771D01*
X199650476Y-130595771D02*
X199555238Y-130643390D01*
X199555238Y-130643390D02*
X199364762Y-130643390D01*
X199364762Y-130643390D02*
X199269524Y-130691009D01*
X199269524Y-130691009D02*
X199221905Y-130738628D01*
X199221905Y-130738628D02*
X199174286Y-130833866D01*
X199174286Y-130833866D02*
X199174286Y-131024342D01*
X199174286Y-131024342D02*
X199221905Y-131119580D01*
X199221905Y-131119580D02*
X199269524Y-131167200D01*
X199269524Y-131167200D02*
X199364762Y-131214819D01*
X199364762Y-131214819D02*
X199555238Y-131214819D01*
X199555238Y-131214819D02*
X199650476Y-131167200D01*
X199650476Y-131167200D02*
X199698095Y-131119580D01*
X199698095Y-131119580D02*
X199745714Y-131024342D01*
X199745714Y-131024342D02*
X199745714Y-130833866D01*
X199745714Y-130833866D02*
X199698095Y-130738628D01*
X199698095Y-130738628D02*
X199650476Y-130691009D01*
X199650476Y-130691009D02*
X199555238Y-130643390D01*
X197079047Y-83181009D02*
X197221904Y-83228628D01*
X197221904Y-83228628D02*
X197269523Y-83276247D01*
X197269523Y-83276247D02*
X197317142Y-83371485D01*
X197317142Y-83371485D02*
X197317142Y-83514342D01*
X197317142Y-83514342D02*
X197269523Y-83609580D01*
X197269523Y-83609580D02*
X197221904Y-83657200D01*
X197221904Y-83657200D02*
X197126666Y-83704819D01*
X197126666Y-83704819D02*
X196745714Y-83704819D01*
X196745714Y-83704819D02*
X196745714Y-82704819D01*
X196745714Y-82704819D02*
X197079047Y-82704819D01*
X197079047Y-82704819D02*
X197174285Y-82752438D01*
X197174285Y-82752438D02*
X197221904Y-82800057D01*
X197221904Y-82800057D02*
X197269523Y-82895295D01*
X197269523Y-82895295D02*
X197269523Y-82990533D01*
X197269523Y-82990533D02*
X197221904Y-83085771D01*
X197221904Y-83085771D02*
X197174285Y-83133390D01*
X197174285Y-83133390D02*
X197079047Y-83181009D01*
X197079047Y-83181009D02*
X196745714Y-83181009D01*
X197650476Y-82704819D02*
X198317142Y-82704819D01*
X198317142Y-82704819D02*
X197650476Y-83704819D01*
X197650476Y-83704819D02*
X198317142Y-83704819D01*
X199221904Y-83704819D02*
X198650476Y-83704819D01*
X198936190Y-83704819D02*
X198936190Y-82704819D01*
X198936190Y-82704819D02*
X198840952Y-82847676D01*
X198840952Y-82847676D02*
X198745714Y-82942914D01*
X198745714Y-82942914D02*
X198650476Y-82990533D01*
X206289048Y-80263866D02*
X207050953Y-80263866D01*
X206670000Y-80644819D02*
X206670000Y-79882914D01*
X214421905Y-142444819D02*
X214421905Y-141444819D01*
X214421905Y-141444819D02*
X214660000Y-141444819D01*
X214660000Y-141444819D02*
X214802857Y-141492438D01*
X214802857Y-141492438D02*
X214898095Y-141587676D01*
X214898095Y-141587676D02*
X214945714Y-141682914D01*
X214945714Y-141682914D02*
X214993333Y-141873390D01*
X214993333Y-141873390D02*
X214993333Y-142016247D01*
X214993333Y-142016247D02*
X214945714Y-142206723D01*
X214945714Y-142206723D02*
X214898095Y-142301961D01*
X214898095Y-142301961D02*
X214802857Y-142397200D01*
X214802857Y-142397200D02*
X214660000Y-142444819D01*
X214660000Y-142444819D02*
X214421905Y-142444819D01*
X215374286Y-141540057D02*
X215421905Y-141492438D01*
X215421905Y-141492438D02*
X215517143Y-141444819D01*
X215517143Y-141444819D02*
X215755238Y-141444819D01*
X215755238Y-141444819D02*
X215850476Y-141492438D01*
X215850476Y-141492438D02*
X215898095Y-141540057D01*
X215898095Y-141540057D02*
X215945714Y-141635295D01*
X215945714Y-141635295D02*
X215945714Y-141730533D01*
X215945714Y-141730533D02*
X215898095Y-141873390D01*
X215898095Y-141873390D02*
X215326667Y-142444819D01*
X215326667Y-142444819D02*
X215945714Y-142444819D01*
X86206666Y-73044819D02*
X86206666Y-73759104D01*
X86206666Y-73759104D02*
X86159047Y-73901961D01*
X86159047Y-73901961D02*
X86063809Y-73997200D01*
X86063809Y-73997200D02*
X85920952Y-74044819D01*
X85920952Y-74044819D02*
X85825714Y-74044819D01*
X87111428Y-73378152D02*
X87111428Y-74044819D01*
X86873333Y-72997200D02*
X86635238Y-73711485D01*
X86635238Y-73711485D02*
X87254285Y-73711485D01*
X88857142Y-63724819D02*
X88523809Y-63248628D01*
X88285714Y-63724819D02*
X88285714Y-62724819D01*
X88285714Y-62724819D02*
X88666666Y-62724819D01*
X88666666Y-62724819D02*
X88761904Y-62772438D01*
X88761904Y-62772438D02*
X88809523Y-62820057D01*
X88809523Y-62820057D02*
X88857142Y-62915295D01*
X88857142Y-62915295D02*
X88857142Y-63058152D01*
X88857142Y-63058152D02*
X88809523Y-63153390D01*
X88809523Y-63153390D02*
X88761904Y-63201009D01*
X88761904Y-63201009D02*
X88666666Y-63248628D01*
X88666666Y-63248628D02*
X88285714Y-63248628D01*
X89809523Y-63724819D02*
X89238095Y-63724819D01*
X89523809Y-63724819D02*
X89523809Y-62724819D01*
X89523809Y-62724819D02*
X89428571Y-62867676D01*
X89428571Y-62867676D02*
X89333333Y-62962914D01*
X89333333Y-62962914D02*
X89238095Y-63010533D01*
X90428571Y-62724819D02*
X90523809Y-62724819D01*
X90523809Y-62724819D02*
X90619047Y-62772438D01*
X90619047Y-62772438D02*
X90666666Y-62820057D01*
X90666666Y-62820057D02*
X90714285Y-62915295D01*
X90714285Y-62915295D02*
X90761904Y-63105771D01*
X90761904Y-63105771D02*
X90761904Y-63343866D01*
X90761904Y-63343866D02*
X90714285Y-63534342D01*
X90714285Y-63534342D02*
X90666666Y-63629580D01*
X90666666Y-63629580D02*
X90619047Y-63677200D01*
X90619047Y-63677200D02*
X90523809Y-63724819D01*
X90523809Y-63724819D02*
X90428571Y-63724819D01*
X90428571Y-63724819D02*
X90333333Y-63677200D01*
X90333333Y-63677200D02*
X90285714Y-63629580D01*
X90285714Y-63629580D02*
X90238095Y-63534342D01*
X90238095Y-63534342D02*
X90190476Y-63343866D01*
X90190476Y-63343866D02*
X90190476Y-63105771D01*
X90190476Y-63105771D02*
X90238095Y-62915295D01*
X90238095Y-62915295D02*
X90285714Y-62820057D01*
X90285714Y-62820057D02*
X90333333Y-62772438D01*
X90333333Y-62772438D02*
X90428571Y-62724819D01*
X192815714Y-110134819D02*
X192815714Y-109134819D01*
X192815714Y-109134819D02*
X193053809Y-109134819D01*
X193053809Y-109134819D02*
X193196666Y-109182438D01*
X193196666Y-109182438D02*
X193291904Y-109277676D01*
X193291904Y-109277676D02*
X193339523Y-109372914D01*
X193339523Y-109372914D02*
X193387142Y-109563390D01*
X193387142Y-109563390D02*
X193387142Y-109706247D01*
X193387142Y-109706247D02*
X193339523Y-109896723D01*
X193339523Y-109896723D02*
X193291904Y-109991961D01*
X193291904Y-109991961D02*
X193196666Y-110087200D01*
X193196666Y-110087200D02*
X193053809Y-110134819D01*
X193053809Y-110134819D02*
X192815714Y-110134819D01*
X194339523Y-110134819D02*
X193768095Y-110134819D01*
X194053809Y-110134819D02*
X194053809Y-109134819D01*
X194053809Y-109134819D02*
X193958571Y-109277676D01*
X193958571Y-109277676D02*
X193863333Y-109372914D01*
X193863333Y-109372914D02*
X193768095Y-109420533D01*
X194958571Y-109134819D02*
X195053809Y-109134819D01*
X195053809Y-109134819D02*
X195149047Y-109182438D01*
X195149047Y-109182438D02*
X195196666Y-109230057D01*
X195196666Y-109230057D02*
X195244285Y-109325295D01*
X195244285Y-109325295D02*
X195291904Y-109515771D01*
X195291904Y-109515771D02*
X195291904Y-109753866D01*
X195291904Y-109753866D02*
X195244285Y-109944342D01*
X195244285Y-109944342D02*
X195196666Y-110039580D01*
X195196666Y-110039580D02*
X195149047Y-110087200D01*
X195149047Y-110087200D02*
X195053809Y-110134819D01*
X195053809Y-110134819D02*
X194958571Y-110134819D01*
X194958571Y-110134819D02*
X194863333Y-110087200D01*
X194863333Y-110087200D02*
X194815714Y-110039580D01*
X194815714Y-110039580D02*
X194768095Y-109944342D01*
X194768095Y-109944342D02*
X194720476Y-109753866D01*
X194720476Y-109753866D02*
X194720476Y-109515771D01*
X194720476Y-109515771D02*
X194768095Y-109325295D01*
X194768095Y-109325295D02*
X194815714Y-109230057D01*
X194815714Y-109230057D02*
X194863333Y-109182438D01*
X194863333Y-109182438D02*
X194958571Y-109134819D01*
X192748095Y-105234819D02*
X192748095Y-104234819D01*
X193319523Y-105234819D02*
X192890952Y-104663390D01*
X193319523Y-104234819D02*
X192748095Y-104806247D01*
X91636666Y-73084819D02*
X91636666Y-73799104D01*
X91636666Y-73799104D02*
X91589047Y-73941961D01*
X91589047Y-73941961D02*
X91493809Y-74037200D01*
X91493809Y-74037200D02*
X91350952Y-74084819D01*
X91350952Y-74084819D02*
X91255714Y-74084819D01*
X92065238Y-73180057D02*
X92112857Y-73132438D01*
X92112857Y-73132438D02*
X92208095Y-73084819D01*
X92208095Y-73084819D02*
X92446190Y-73084819D01*
X92446190Y-73084819D02*
X92541428Y-73132438D01*
X92541428Y-73132438D02*
X92589047Y-73180057D01*
X92589047Y-73180057D02*
X92636666Y-73275295D01*
X92636666Y-73275295D02*
X92636666Y-73370533D01*
X92636666Y-73370533D02*
X92589047Y-73513390D01*
X92589047Y-73513390D02*
X92017619Y-74084819D01*
X92017619Y-74084819D02*
X92636666Y-74084819D01*
X72404819Y-140323094D02*
X71404819Y-140323094D01*
X71404819Y-140323094D02*
X71404819Y-140084999D01*
X71404819Y-140084999D02*
X71452438Y-139942142D01*
X71452438Y-139942142D02*
X71547676Y-139846904D01*
X71547676Y-139846904D02*
X71642914Y-139799285D01*
X71642914Y-139799285D02*
X71833390Y-139751666D01*
X71833390Y-139751666D02*
X71976247Y-139751666D01*
X71976247Y-139751666D02*
X72166723Y-139799285D01*
X72166723Y-139799285D02*
X72261961Y-139846904D01*
X72261961Y-139846904D02*
X72357200Y-139942142D01*
X72357200Y-139942142D02*
X72404819Y-140084999D01*
X72404819Y-140084999D02*
X72404819Y-140323094D01*
X71404819Y-139418332D02*
X71404819Y-138751666D01*
X71404819Y-138751666D02*
X72404819Y-139180237D01*
X51238095Y-41304819D02*
X51238095Y-40304819D01*
X51238095Y-40781009D02*
X51809523Y-40781009D01*
X51809523Y-41304819D02*
X51809523Y-40304819D01*
X52809523Y-41304819D02*
X52238095Y-41304819D01*
X52523809Y-41304819D02*
X52523809Y-40304819D01*
X52523809Y-40304819D02*
X52428571Y-40447676D01*
X52428571Y-40447676D02*
X52333333Y-40542914D01*
X52333333Y-40542914D02*
X52238095Y-40590533D01*
X55696667Y-54797200D02*
X55839524Y-54844819D01*
X55839524Y-54844819D02*
X56077619Y-54844819D01*
X56077619Y-54844819D02*
X56172857Y-54797200D01*
X56172857Y-54797200D02*
X56220476Y-54749580D01*
X56220476Y-54749580D02*
X56268095Y-54654342D01*
X56268095Y-54654342D02*
X56268095Y-54559104D01*
X56268095Y-54559104D02*
X56220476Y-54463866D01*
X56220476Y-54463866D02*
X56172857Y-54416247D01*
X56172857Y-54416247D02*
X56077619Y-54368628D01*
X56077619Y-54368628D02*
X55887143Y-54321009D01*
X55887143Y-54321009D02*
X55791905Y-54273390D01*
X55791905Y-54273390D02*
X55744286Y-54225771D01*
X55744286Y-54225771D02*
X55696667Y-54130533D01*
X55696667Y-54130533D02*
X55696667Y-54035295D01*
X55696667Y-54035295D02*
X55744286Y-53940057D01*
X55744286Y-53940057D02*
X55791905Y-53892438D01*
X55791905Y-53892438D02*
X55887143Y-53844819D01*
X55887143Y-53844819D02*
X56125238Y-53844819D01*
X56125238Y-53844819D02*
X56268095Y-53892438D01*
X56601429Y-53844819D02*
X56839524Y-54844819D01*
X56839524Y-54844819D02*
X57030000Y-54130533D01*
X57030000Y-54130533D02*
X57220476Y-54844819D01*
X57220476Y-54844819D02*
X57458572Y-53844819D01*
X57791905Y-53940057D02*
X57839524Y-53892438D01*
X57839524Y-53892438D02*
X57934762Y-53844819D01*
X57934762Y-53844819D02*
X58172857Y-53844819D01*
X58172857Y-53844819D02*
X58268095Y-53892438D01*
X58268095Y-53892438D02*
X58315714Y-53940057D01*
X58315714Y-53940057D02*
X58363333Y-54035295D01*
X58363333Y-54035295D02*
X58363333Y-54130533D01*
X58363333Y-54130533D02*
X58315714Y-54273390D01*
X58315714Y-54273390D02*
X57744286Y-54844819D01*
X57744286Y-54844819D02*
X58363333Y-54844819D01*
X161232142Y-86929580D02*
X161184523Y-86977200D01*
X161184523Y-86977200D02*
X161041666Y-87024819D01*
X161041666Y-87024819D02*
X160946428Y-87024819D01*
X160946428Y-87024819D02*
X160803571Y-86977200D01*
X160803571Y-86977200D02*
X160708333Y-86881961D01*
X160708333Y-86881961D02*
X160660714Y-86786723D01*
X160660714Y-86786723D02*
X160613095Y-86596247D01*
X160613095Y-86596247D02*
X160613095Y-86453390D01*
X160613095Y-86453390D02*
X160660714Y-86262914D01*
X160660714Y-86262914D02*
X160708333Y-86167676D01*
X160708333Y-86167676D02*
X160803571Y-86072438D01*
X160803571Y-86072438D02*
X160946428Y-86024819D01*
X160946428Y-86024819D02*
X161041666Y-86024819D01*
X161041666Y-86024819D02*
X161184523Y-86072438D01*
X161184523Y-86072438D02*
X161232142Y-86120057D01*
X162184523Y-87024819D02*
X161613095Y-87024819D01*
X161898809Y-87024819D02*
X161898809Y-86024819D01*
X161898809Y-86024819D02*
X161803571Y-86167676D01*
X161803571Y-86167676D02*
X161708333Y-86262914D01*
X161708333Y-86262914D02*
X161613095Y-86310533D01*
X162803571Y-86024819D02*
X162898809Y-86024819D01*
X162898809Y-86024819D02*
X162994047Y-86072438D01*
X162994047Y-86072438D02*
X163041666Y-86120057D01*
X163041666Y-86120057D02*
X163089285Y-86215295D01*
X163089285Y-86215295D02*
X163136904Y-86405771D01*
X163136904Y-86405771D02*
X163136904Y-86643866D01*
X163136904Y-86643866D02*
X163089285Y-86834342D01*
X163089285Y-86834342D02*
X163041666Y-86929580D01*
X163041666Y-86929580D02*
X162994047Y-86977200D01*
X162994047Y-86977200D02*
X162898809Y-87024819D01*
X162898809Y-87024819D02*
X162803571Y-87024819D01*
X162803571Y-87024819D02*
X162708333Y-86977200D01*
X162708333Y-86977200D02*
X162660714Y-86929580D01*
X162660714Y-86929580D02*
X162613095Y-86834342D01*
X162613095Y-86834342D02*
X162565476Y-86643866D01*
X162565476Y-86643866D02*
X162565476Y-86405771D01*
X162565476Y-86405771D02*
X162613095Y-86215295D01*
X162613095Y-86215295D02*
X162660714Y-86120057D01*
X162660714Y-86120057D02*
X162708333Y-86072438D01*
X162708333Y-86072438D02*
X162803571Y-86024819D01*
X146095595Y-87317319D02*
X146095595Y-88126842D01*
X146095595Y-88126842D02*
X146143214Y-88222080D01*
X146143214Y-88222080D02*
X146190833Y-88269700D01*
X146190833Y-88269700D02*
X146286071Y-88317319D01*
X146286071Y-88317319D02*
X146476547Y-88317319D01*
X146476547Y-88317319D02*
X146571785Y-88269700D01*
X146571785Y-88269700D02*
X146619404Y-88222080D01*
X146619404Y-88222080D02*
X146667023Y-88126842D01*
X146667023Y-88126842D02*
X146667023Y-87317319D01*
X147095595Y-87412557D02*
X147143214Y-87364938D01*
X147143214Y-87364938D02*
X147238452Y-87317319D01*
X147238452Y-87317319D02*
X147476547Y-87317319D01*
X147476547Y-87317319D02*
X147571785Y-87364938D01*
X147571785Y-87364938D02*
X147619404Y-87412557D01*
X147619404Y-87412557D02*
X147667023Y-87507795D01*
X147667023Y-87507795D02*
X147667023Y-87603033D01*
X147667023Y-87603033D02*
X147619404Y-87745890D01*
X147619404Y-87745890D02*
X147047976Y-88317319D01*
X147047976Y-88317319D02*
X147667023Y-88317319D01*
X54459580Y-147327857D02*
X54507200Y-147375476D01*
X54507200Y-147375476D02*
X54554819Y-147518333D01*
X54554819Y-147518333D02*
X54554819Y-147613571D01*
X54554819Y-147613571D02*
X54507200Y-147756428D01*
X54507200Y-147756428D02*
X54411961Y-147851666D01*
X54411961Y-147851666D02*
X54316723Y-147899285D01*
X54316723Y-147899285D02*
X54126247Y-147946904D01*
X54126247Y-147946904D02*
X53983390Y-147946904D01*
X53983390Y-147946904D02*
X53792914Y-147899285D01*
X53792914Y-147899285D02*
X53697676Y-147851666D01*
X53697676Y-147851666D02*
X53602438Y-147756428D01*
X53602438Y-147756428D02*
X53554819Y-147613571D01*
X53554819Y-147613571D02*
X53554819Y-147518333D01*
X53554819Y-147518333D02*
X53602438Y-147375476D01*
X53602438Y-147375476D02*
X53650057Y-147327857D01*
X53650057Y-146946904D02*
X53602438Y-146899285D01*
X53602438Y-146899285D02*
X53554819Y-146804047D01*
X53554819Y-146804047D02*
X53554819Y-146565952D01*
X53554819Y-146565952D02*
X53602438Y-146470714D01*
X53602438Y-146470714D02*
X53650057Y-146423095D01*
X53650057Y-146423095D02*
X53745295Y-146375476D01*
X53745295Y-146375476D02*
X53840533Y-146375476D01*
X53840533Y-146375476D02*
X53983390Y-146423095D01*
X53983390Y-146423095D02*
X54554819Y-146994523D01*
X54554819Y-146994523D02*
X54554819Y-146375476D01*
X53554819Y-145756428D02*
X53554819Y-145661190D01*
X53554819Y-145661190D02*
X53602438Y-145565952D01*
X53602438Y-145565952D02*
X53650057Y-145518333D01*
X53650057Y-145518333D02*
X53745295Y-145470714D01*
X53745295Y-145470714D02*
X53935771Y-145423095D01*
X53935771Y-145423095D02*
X54173866Y-145423095D01*
X54173866Y-145423095D02*
X54364342Y-145470714D01*
X54364342Y-145470714D02*
X54459580Y-145518333D01*
X54459580Y-145518333D02*
X54507200Y-145565952D01*
X54507200Y-145565952D02*
X54554819Y-145661190D01*
X54554819Y-145661190D02*
X54554819Y-145756428D01*
X54554819Y-145756428D02*
X54507200Y-145851666D01*
X54507200Y-145851666D02*
X54459580Y-145899285D01*
X54459580Y-145899285D02*
X54364342Y-145946904D01*
X54364342Y-145946904D02*
X54173866Y-145994523D01*
X54173866Y-145994523D02*
X53935771Y-145994523D01*
X53935771Y-145994523D02*
X53745295Y-145946904D01*
X53745295Y-145946904D02*
X53650057Y-145899285D01*
X53650057Y-145899285D02*
X53602438Y-145851666D01*
X53602438Y-145851666D02*
X53554819Y-145756428D01*
X53804819Y-123077857D02*
X53328628Y-123411190D01*
X53804819Y-123649285D02*
X52804819Y-123649285D01*
X52804819Y-123649285D02*
X52804819Y-123268333D01*
X52804819Y-123268333D02*
X52852438Y-123173095D01*
X52852438Y-123173095D02*
X52900057Y-123125476D01*
X52900057Y-123125476D02*
X52995295Y-123077857D01*
X52995295Y-123077857D02*
X53138152Y-123077857D01*
X53138152Y-123077857D02*
X53233390Y-123125476D01*
X53233390Y-123125476D02*
X53281009Y-123173095D01*
X53281009Y-123173095D02*
X53328628Y-123268333D01*
X53328628Y-123268333D02*
X53328628Y-123649285D01*
X53804819Y-122125476D02*
X53804819Y-122696904D01*
X53804819Y-122411190D02*
X52804819Y-122411190D01*
X52804819Y-122411190D02*
X52947676Y-122506428D01*
X52947676Y-122506428D02*
X53042914Y-122601666D01*
X53042914Y-122601666D02*
X53090533Y-122696904D01*
X53138152Y-121268333D02*
X53804819Y-121268333D01*
X52757200Y-121506428D02*
X53471485Y-121744523D01*
X53471485Y-121744523D02*
X53471485Y-121125476D01*
X181980476Y-86634819D02*
X181980476Y-87349104D01*
X181980476Y-87349104D02*
X181932857Y-87491961D01*
X181932857Y-87491961D02*
X181837619Y-87587200D01*
X181837619Y-87587200D02*
X181694762Y-87634819D01*
X181694762Y-87634819D02*
X181599524Y-87634819D01*
X182980476Y-87634819D02*
X182409048Y-87634819D01*
X182694762Y-87634819D02*
X182694762Y-86634819D01*
X182694762Y-86634819D02*
X182599524Y-86777676D01*
X182599524Y-86777676D02*
X182504286Y-86872914D01*
X182504286Y-86872914D02*
X182409048Y-86920533D01*
X183361429Y-86730057D02*
X183409048Y-86682438D01*
X183409048Y-86682438D02*
X183504286Y-86634819D01*
X183504286Y-86634819D02*
X183742381Y-86634819D01*
X183742381Y-86634819D02*
X183837619Y-86682438D01*
X183837619Y-86682438D02*
X183885238Y-86730057D01*
X183885238Y-86730057D02*
X183932857Y-86825295D01*
X183932857Y-86825295D02*
X183932857Y-86920533D01*
X183932857Y-86920533D02*
X183885238Y-87063390D01*
X183885238Y-87063390D02*
X183313810Y-87634819D01*
X183313810Y-87634819D02*
X183932857Y-87634819D01*
X96604819Y-117803094D02*
X95604819Y-117803094D01*
X95604819Y-117803094D02*
X95604819Y-117564999D01*
X95604819Y-117564999D02*
X95652438Y-117422142D01*
X95652438Y-117422142D02*
X95747676Y-117326904D01*
X95747676Y-117326904D02*
X95842914Y-117279285D01*
X95842914Y-117279285D02*
X96033390Y-117231666D01*
X96033390Y-117231666D02*
X96176247Y-117231666D01*
X96176247Y-117231666D02*
X96366723Y-117279285D01*
X96366723Y-117279285D02*
X96461961Y-117326904D01*
X96461961Y-117326904D02*
X96557200Y-117422142D01*
X96557200Y-117422142D02*
X96604819Y-117564999D01*
X96604819Y-117564999D02*
X96604819Y-117803094D01*
X95604819Y-116326904D02*
X95604819Y-116803094D01*
X95604819Y-116803094D02*
X96081009Y-116850713D01*
X96081009Y-116850713D02*
X96033390Y-116803094D01*
X96033390Y-116803094D02*
X95985771Y-116707856D01*
X95985771Y-116707856D02*
X95985771Y-116469761D01*
X95985771Y-116469761D02*
X96033390Y-116374523D01*
X96033390Y-116374523D02*
X96081009Y-116326904D01*
X96081009Y-116326904D02*
X96176247Y-116279285D01*
X96176247Y-116279285D02*
X96414342Y-116279285D01*
X96414342Y-116279285D02*
X96509580Y-116326904D01*
X96509580Y-116326904D02*
X96557200Y-116374523D01*
X96557200Y-116374523D02*
X96604819Y-116469761D01*
X96604819Y-116469761D02*
X96604819Y-116707856D01*
X96604819Y-116707856D02*
X96557200Y-116803094D01*
X96557200Y-116803094D02*
X96509580Y-116850713D01*
X101404819Y-116106904D02*
X100404819Y-116106904D01*
X101404819Y-115535476D02*
X100833390Y-115964047D01*
X100404819Y-115535476D02*
X100976247Y-116106904D01*
X87274819Y-122281666D02*
X86798628Y-122614999D01*
X87274819Y-122853094D02*
X86274819Y-122853094D01*
X86274819Y-122853094D02*
X86274819Y-122472142D01*
X86274819Y-122472142D02*
X86322438Y-122376904D01*
X86322438Y-122376904D02*
X86370057Y-122329285D01*
X86370057Y-122329285D02*
X86465295Y-122281666D01*
X86465295Y-122281666D02*
X86608152Y-122281666D01*
X86608152Y-122281666D02*
X86703390Y-122329285D01*
X86703390Y-122329285D02*
X86751009Y-122376904D01*
X86751009Y-122376904D02*
X86798628Y-122472142D01*
X86798628Y-122472142D02*
X86798628Y-122853094D01*
X86274819Y-121948332D02*
X86274819Y-121281666D01*
X86274819Y-121281666D02*
X87274819Y-121710237D01*
X114118333Y-136939580D02*
X114070714Y-136987200D01*
X114070714Y-136987200D02*
X113927857Y-137034819D01*
X113927857Y-137034819D02*
X113832619Y-137034819D01*
X113832619Y-137034819D02*
X113689762Y-136987200D01*
X113689762Y-136987200D02*
X113594524Y-136891961D01*
X113594524Y-136891961D02*
X113546905Y-136796723D01*
X113546905Y-136796723D02*
X113499286Y-136606247D01*
X113499286Y-136606247D02*
X113499286Y-136463390D01*
X113499286Y-136463390D02*
X113546905Y-136272914D01*
X113546905Y-136272914D02*
X113594524Y-136177676D01*
X113594524Y-136177676D02*
X113689762Y-136082438D01*
X113689762Y-136082438D02*
X113832619Y-136034819D01*
X113832619Y-136034819D02*
X113927857Y-136034819D01*
X113927857Y-136034819D02*
X114070714Y-136082438D01*
X114070714Y-136082438D02*
X114118333Y-136130057D01*
X114451667Y-136034819D02*
X115070714Y-136034819D01*
X115070714Y-136034819D02*
X114737381Y-136415771D01*
X114737381Y-136415771D02*
X114880238Y-136415771D01*
X114880238Y-136415771D02*
X114975476Y-136463390D01*
X114975476Y-136463390D02*
X115023095Y-136511009D01*
X115023095Y-136511009D02*
X115070714Y-136606247D01*
X115070714Y-136606247D02*
X115070714Y-136844342D01*
X115070714Y-136844342D02*
X115023095Y-136939580D01*
X115023095Y-136939580D02*
X114975476Y-136987200D01*
X114975476Y-136987200D02*
X114880238Y-137034819D01*
X114880238Y-137034819D02*
X114594524Y-137034819D01*
X114594524Y-137034819D02*
X114499286Y-136987200D01*
X114499286Y-136987200D02*
X114451667Y-136939580D01*
X197167142Y-99934819D02*
X196833809Y-99458628D01*
X196595714Y-99934819D02*
X196595714Y-98934819D01*
X196595714Y-98934819D02*
X196976666Y-98934819D01*
X196976666Y-98934819D02*
X197071904Y-98982438D01*
X197071904Y-98982438D02*
X197119523Y-99030057D01*
X197119523Y-99030057D02*
X197167142Y-99125295D01*
X197167142Y-99125295D02*
X197167142Y-99268152D01*
X197167142Y-99268152D02*
X197119523Y-99363390D01*
X197119523Y-99363390D02*
X197071904Y-99411009D01*
X197071904Y-99411009D02*
X196976666Y-99458628D01*
X196976666Y-99458628D02*
X196595714Y-99458628D01*
X198119523Y-99934819D02*
X197548095Y-99934819D01*
X197833809Y-99934819D02*
X197833809Y-98934819D01*
X197833809Y-98934819D02*
X197738571Y-99077676D01*
X197738571Y-99077676D02*
X197643333Y-99172914D01*
X197643333Y-99172914D02*
X197548095Y-99220533D01*
X198452857Y-98934819D02*
X199119523Y-98934819D01*
X199119523Y-98934819D02*
X198690952Y-99934819D01*
X59024819Y-117507857D02*
X58548628Y-117841190D01*
X59024819Y-118079285D02*
X58024819Y-118079285D01*
X58024819Y-118079285D02*
X58024819Y-117698333D01*
X58024819Y-117698333D02*
X58072438Y-117603095D01*
X58072438Y-117603095D02*
X58120057Y-117555476D01*
X58120057Y-117555476D02*
X58215295Y-117507857D01*
X58215295Y-117507857D02*
X58358152Y-117507857D01*
X58358152Y-117507857D02*
X58453390Y-117555476D01*
X58453390Y-117555476D02*
X58501009Y-117603095D01*
X58501009Y-117603095D02*
X58548628Y-117698333D01*
X58548628Y-117698333D02*
X58548628Y-118079285D01*
X59024819Y-116555476D02*
X59024819Y-117126904D01*
X59024819Y-116841190D02*
X58024819Y-116841190D01*
X58024819Y-116841190D02*
X58167676Y-116936428D01*
X58167676Y-116936428D02*
X58262914Y-117031666D01*
X58262914Y-117031666D02*
X58310533Y-117126904D01*
X58120057Y-116174523D02*
X58072438Y-116126904D01*
X58072438Y-116126904D02*
X58024819Y-116031666D01*
X58024819Y-116031666D02*
X58024819Y-115793571D01*
X58024819Y-115793571D02*
X58072438Y-115698333D01*
X58072438Y-115698333D02*
X58120057Y-115650714D01*
X58120057Y-115650714D02*
X58215295Y-115603095D01*
X58215295Y-115603095D02*
X58310533Y-115603095D01*
X58310533Y-115603095D02*
X58453390Y-115650714D01*
X58453390Y-115650714D02*
X59024819Y-116222142D01*
X59024819Y-116222142D02*
X59024819Y-115603095D01*
X223848825Y-128713724D02*
X223848825Y-129429466D01*
X223848825Y-129429466D02*
X223801109Y-129572614D01*
X223801109Y-129572614D02*
X223705677Y-129668047D01*
X223705677Y-129668047D02*
X223562528Y-129715763D01*
X223562528Y-129715763D02*
X223467096Y-129715763D01*
X224850864Y-129715763D02*
X224278270Y-129715763D01*
X224564567Y-129715763D02*
X224564567Y-128713724D01*
X224564567Y-128713724D02*
X224469135Y-128856872D01*
X224469135Y-128856872D02*
X224373702Y-128952304D01*
X224373702Y-128952304D02*
X224278270Y-129000021D01*
X225471174Y-128713724D02*
X225566606Y-128713724D01*
X225566606Y-128713724D02*
X225662038Y-128761440D01*
X225662038Y-128761440D02*
X225709755Y-128809156D01*
X225709755Y-128809156D02*
X225757471Y-128904588D01*
X225757471Y-128904588D02*
X225805187Y-129095453D01*
X225805187Y-129095453D02*
X225805187Y-129334034D01*
X225805187Y-129334034D02*
X225757471Y-129524898D01*
X225757471Y-129524898D02*
X225709755Y-129620330D01*
X225709755Y-129620330D02*
X225662038Y-129668047D01*
X225662038Y-129668047D02*
X225566606Y-129715763D01*
X225566606Y-129715763D02*
X225471174Y-129715763D01*
X225471174Y-129715763D02*
X225375742Y-129668047D01*
X225375742Y-129668047D02*
X225328025Y-129620330D01*
X225328025Y-129620330D02*
X225280309Y-129524898D01*
X225280309Y-129524898D02*
X225232593Y-129334034D01*
X225232593Y-129334034D02*
X225232593Y-129095453D01*
X225232593Y-129095453D02*
X225280309Y-128904588D01*
X225280309Y-128904588D02*
X225328025Y-128809156D01*
X225328025Y-128809156D02*
X225375742Y-128761440D01*
X225375742Y-128761440D02*
X225471174Y-128713724D01*
X80926666Y-73014819D02*
X80926666Y-73729104D01*
X80926666Y-73729104D02*
X80879047Y-73871961D01*
X80879047Y-73871961D02*
X80783809Y-73967200D01*
X80783809Y-73967200D02*
X80640952Y-74014819D01*
X80640952Y-74014819D02*
X80545714Y-74014819D01*
X81831428Y-73014819D02*
X81640952Y-73014819D01*
X81640952Y-73014819D02*
X81545714Y-73062438D01*
X81545714Y-73062438D02*
X81498095Y-73110057D01*
X81498095Y-73110057D02*
X81402857Y-73252914D01*
X81402857Y-73252914D02*
X81355238Y-73443390D01*
X81355238Y-73443390D02*
X81355238Y-73824342D01*
X81355238Y-73824342D02*
X81402857Y-73919580D01*
X81402857Y-73919580D02*
X81450476Y-73967200D01*
X81450476Y-73967200D02*
X81545714Y-74014819D01*
X81545714Y-74014819D02*
X81736190Y-74014819D01*
X81736190Y-74014819D02*
X81831428Y-73967200D01*
X81831428Y-73967200D02*
X81879047Y-73919580D01*
X81879047Y-73919580D02*
X81926666Y-73824342D01*
X81926666Y-73824342D02*
X81926666Y-73586247D01*
X81926666Y-73586247D02*
X81879047Y-73491009D01*
X81879047Y-73491009D02*
X81831428Y-73443390D01*
X81831428Y-73443390D02*
X81736190Y-73395771D01*
X81736190Y-73395771D02*
X81545714Y-73395771D01*
X81545714Y-73395771D02*
X81450476Y-73443390D01*
X81450476Y-73443390D02*
X81402857Y-73491009D01*
X81402857Y-73491009D02*
X81355238Y-73586247D01*
X193507142Y-118304819D02*
X193173809Y-117828628D01*
X192935714Y-118304819D02*
X192935714Y-117304819D01*
X192935714Y-117304819D02*
X193316666Y-117304819D01*
X193316666Y-117304819D02*
X193411904Y-117352438D01*
X193411904Y-117352438D02*
X193459523Y-117400057D01*
X193459523Y-117400057D02*
X193507142Y-117495295D01*
X193507142Y-117495295D02*
X193507142Y-117638152D01*
X193507142Y-117638152D02*
X193459523Y-117733390D01*
X193459523Y-117733390D02*
X193411904Y-117781009D01*
X193411904Y-117781009D02*
X193316666Y-117828628D01*
X193316666Y-117828628D02*
X192935714Y-117828628D01*
X194459523Y-118304819D02*
X193888095Y-118304819D01*
X194173809Y-118304819D02*
X194173809Y-117304819D01*
X194173809Y-117304819D02*
X194078571Y-117447676D01*
X194078571Y-117447676D02*
X193983333Y-117542914D01*
X193983333Y-117542914D02*
X193888095Y-117590533D01*
X194792857Y-117304819D02*
X195411904Y-117304819D01*
X195411904Y-117304819D02*
X195078571Y-117685771D01*
X195078571Y-117685771D02*
X195221428Y-117685771D01*
X195221428Y-117685771D02*
X195316666Y-117733390D01*
X195316666Y-117733390D02*
X195364285Y-117781009D01*
X195364285Y-117781009D02*
X195411904Y-117876247D01*
X195411904Y-117876247D02*
X195411904Y-118114342D01*
X195411904Y-118114342D02*
X195364285Y-118209580D01*
X195364285Y-118209580D02*
X195316666Y-118257200D01*
X195316666Y-118257200D02*
X195221428Y-118304819D01*
X195221428Y-118304819D02*
X194935714Y-118304819D01*
X194935714Y-118304819D02*
X194840476Y-118257200D01*
X194840476Y-118257200D02*
X194792857Y-118209580D01*
X217961905Y-89774819D02*
X217961905Y-88774819D01*
X217961905Y-88774819D02*
X218200000Y-88774819D01*
X218200000Y-88774819D02*
X218342857Y-88822438D01*
X218342857Y-88822438D02*
X218438095Y-88917676D01*
X218438095Y-88917676D02*
X218485714Y-89012914D01*
X218485714Y-89012914D02*
X218533333Y-89203390D01*
X218533333Y-89203390D02*
X218533333Y-89346247D01*
X218533333Y-89346247D02*
X218485714Y-89536723D01*
X218485714Y-89536723D02*
X218438095Y-89631961D01*
X218438095Y-89631961D02*
X218342857Y-89727200D01*
X218342857Y-89727200D02*
X218200000Y-89774819D01*
X218200000Y-89774819D02*
X217961905Y-89774819D01*
X219390476Y-88774819D02*
X219200000Y-88774819D01*
X219200000Y-88774819D02*
X219104762Y-88822438D01*
X219104762Y-88822438D02*
X219057143Y-88870057D01*
X219057143Y-88870057D02*
X218961905Y-89012914D01*
X218961905Y-89012914D02*
X218914286Y-89203390D01*
X218914286Y-89203390D02*
X218914286Y-89584342D01*
X218914286Y-89584342D02*
X218961905Y-89679580D01*
X218961905Y-89679580D02*
X219009524Y-89727200D01*
X219009524Y-89727200D02*
X219104762Y-89774819D01*
X219104762Y-89774819D02*
X219295238Y-89774819D01*
X219295238Y-89774819D02*
X219390476Y-89727200D01*
X219390476Y-89727200D02*
X219438095Y-89679580D01*
X219438095Y-89679580D02*
X219485714Y-89584342D01*
X219485714Y-89584342D02*
X219485714Y-89346247D01*
X219485714Y-89346247D02*
X219438095Y-89251009D01*
X219438095Y-89251009D02*
X219390476Y-89203390D01*
X219390476Y-89203390D02*
X219295238Y-89155771D01*
X219295238Y-89155771D02*
X219104762Y-89155771D01*
X219104762Y-89155771D02*
X219009524Y-89203390D01*
X219009524Y-89203390D02*
X218961905Y-89251009D01*
X218961905Y-89251009D02*
X218914286Y-89346247D01*
X176443333Y-75319580D02*
X176395714Y-75367200D01*
X176395714Y-75367200D02*
X176252857Y-75414819D01*
X176252857Y-75414819D02*
X176157619Y-75414819D01*
X176157619Y-75414819D02*
X176014762Y-75367200D01*
X176014762Y-75367200D02*
X175919524Y-75271961D01*
X175919524Y-75271961D02*
X175871905Y-75176723D01*
X175871905Y-75176723D02*
X175824286Y-74986247D01*
X175824286Y-74986247D02*
X175824286Y-74843390D01*
X175824286Y-74843390D02*
X175871905Y-74652914D01*
X175871905Y-74652914D02*
X175919524Y-74557676D01*
X175919524Y-74557676D02*
X176014762Y-74462438D01*
X176014762Y-74462438D02*
X176157619Y-74414819D01*
X176157619Y-74414819D02*
X176252857Y-74414819D01*
X176252857Y-74414819D02*
X176395714Y-74462438D01*
X176395714Y-74462438D02*
X176443333Y-74510057D01*
X177014762Y-74843390D02*
X176919524Y-74795771D01*
X176919524Y-74795771D02*
X176871905Y-74748152D01*
X176871905Y-74748152D02*
X176824286Y-74652914D01*
X176824286Y-74652914D02*
X176824286Y-74605295D01*
X176824286Y-74605295D02*
X176871905Y-74510057D01*
X176871905Y-74510057D02*
X176919524Y-74462438D01*
X176919524Y-74462438D02*
X177014762Y-74414819D01*
X177014762Y-74414819D02*
X177205238Y-74414819D01*
X177205238Y-74414819D02*
X177300476Y-74462438D01*
X177300476Y-74462438D02*
X177348095Y-74510057D01*
X177348095Y-74510057D02*
X177395714Y-74605295D01*
X177395714Y-74605295D02*
X177395714Y-74652914D01*
X177395714Y-74652914D02*
X177348095Y-74748152D01*
X177348095Y-74748152D02*
X177300476Y-74795771D01*
X177300476Y-74795771D02*
X177205238Y-74843390D01*
X177205238Y-74843390D02*
X177014762Y-74843390D01*
X177014762Y-74843390D02*
X176919524Y-74891009D01*
X176919524Y-74891009D02*
X176871905Y-74938628D01*
X176871905Y-74938628D02*
X176824286Y-75033866D01*
X176824286Y-75033866D02*
X176824286Y-75224342D01*
X176824286Y-75224342D02*
X176871905Y-75319580D01*
X176871905Y-75319580D02*
X176919524Y-75367200D01*
X176919524Y-75367200D02*
X177014762Y-75414819D01*
X177014762Y-75414819D02*
X177205238Y-75414819D01*
X177205238Y-75414819D02*
X177300476Y-75367200D01*
X177300476Y-75367200D02*
X177348095Y-75319580D01*
X177348095Y-75319580D02*
X177395714Y-75224342D01*
X177395714Y-75224342D02*
X177395714Y-75033866D01*
X177395714Y-75033866D02*
X177348095Y-74938628D01*
X177348095Y-74938628D02*
X177300476Y-74891009D01*
X177300476Y-74891009D02*
X177205238Y-74843390D01*
X156034819Y-66523333D02*
X156749104Y-66523333D01*
X156749104Y-66523333D02*
X156891961Y-66570952D01*
X156891961Y-66570952D02*
X156987200Y-66666190D01*
X156987200Y-66666190D02*
X157034819Y-66809047D01*
X157034819Y-66809047D02*
X157034819Y-66904285D01*
X156463390Y-65904285D02*
X156415771Y-65999523D01*
X156415771Y-65999523D02*
X156368152Y-66047142D01*
X156368152Y-66047142D02*
X156272914Y-66094761D01*
X156272914Y-66094761D02*
X156225295Y-66094761D01*
X156225295Y-66094761D02*
X156130057Y-66047142D01*
X156130057Y-66047142D02*
X156082438Y-65999523D01*
X156082438Y-65999523D02*
X156034819Y-65904285D01*
X156034819Y-65904285D02*
X156034819Y-65713809D01*
X156034819Y-65713809D02*
X156082438Y-65618571D01*
X156082438Y-65618571D02*
X156130057Y-65570952D01*
X156130057Y-65570952D02*
X156225295Y-65523333D01*
X156225295Y-65523333D02*
X156272914Y-65523333D01*
X156272914Y-65523333D02*
X156368152Y-65570952D01*
X156368152Y-65570952D02*
X156415771Y-65618571D01*
X156415771Y-65618571D02*
X156463390Y-65713809D01*
X156463390Y-65713809D02*
X156463390Y-65904285D01*
X156463390Y-65904285D02*
X156511009Y-65999523D01*
X156511009Y-65999523D02*
X156558628Y-66047142D01*
X156558628Y-66047142D02*
X156653866Y-66094761D01*
X156653866Y-66094761D02*
X156844342Y-66094761D01*
X156844342Y-66094761D02*
X156939580Y-66047142D01*
X156939580Y-66047142D02*
X156987200Y-65999523D01*
X156987200Y-65999523D02*
X157034819Y-65904285D01*
X157034819Y-65904285D02*
X157034819Y-65713809D01*
X157034819Y-65713809D02*
X156987200Y-65618571D01*
X156987200Y-65618571D02*
X156939580Y-65570952D01*
X156939580Y-65570952D02*
X156844342Y-65523333D01*
X156844342Y-65523333D02*
X156653866Y-65523333D01*
X156653866Y-65523333D02*
X156558628Y-65570952D01*
X156558628Y-65570952D02*
X156511009Y-65618571D01*
X156511009Y-65618571D02*
X156463390Y-65713809D01*
X211029761Y-111255057D02*
X210934523Y-111207438D01*
X210934523Y-111207438D02*
X210839285Y-111112200D01*
X210839285Y-111112200D02*
X210696428Y-110969342D01*
X210696428Y-110969342D02*
X210601190Y-110921723D01*
X210601190Y-110921723D02*
X210505952Y-110921723D01*
X210553571Y-111159819D02*
X210458333Y-111112200D01*
X210458333Y-111112200D02*
X210363095Y-111016961D01*
X210363095Y-111016961D02*
X210315476Y-110826485D01*
X210315476Y-110826485D02*
X210315476Y-110493152D01*
X210315476Y-110493152D02*
X210363095Y-110302676D01*
X210363095Y-110302676D02*
X210458333Y-110207438D01*
X210458333Y-110207438D02*
X210553571Y-110159819D01*
X210553571Y-110159819D02*
X210744047Y-110159819D01*
X210744047Y-110159819D02*
X210839285Y-110207438D01*
X210839285Y-110207438D02*
X210934523Y-110302676D01*
X210934523Y-110302676D02*
X210982142Y-110493152D01*
X210982142Y-110493152D02*
X210982142Y-110826485D01*
X210982142Y-110826485D02*
X210934523Y-111016961D01*
X210934523Y-111016961D02*
X210839285Y-111112200D01*
X210839285Y-111112200D02*
X210744047Y-111159819D01*
X210744047Y-111159819D02*
X210553571Y-111159819D01*
X211839285Y-110493152D02*
X211839285Y-111159819D01*
X211601190Y-110112200D02*
X211363095Y-110826485D01*
X211363095Y-110826485D02*
X211982142Y-110826485D01*
X224467142Y-123489580D02*
X224419523Y-123537200D01*
X224419523Y-123537200D02*
X224276666Y-123584819D01*
X224276666Y-123584819D02*
X224181428Y-123584819D01*
X224181428Y-123584819D02*
X224038571Y-123537200D01*
X224038571Y-123537200D02*
X223943333Y-123441961D01*
X223943333Y-123441961D02*
X223895714Y-123346723D01*
X223895714Y-123346723D02*
X223848095Y-123156247D01*
X223848095Y-123156247D02*
X223848095Y-123013390D01*
X223848095Y-123013390D02*
X223895714Y-122822914D01*
X223895714Y-122822914D02*
X223943333Y-122727676D01*
X223943333Y-122727676D02*
X224038571Y-122632438D01*
X224038571Y-122632438D02*
X224181428Y-122584819D01*
X224181428Y-122584819D02*
X224276666Y-122584819D01*
X224276666Y-122584819D02*
X224419523Y-122632438D01*
X224419523Y-122632438D02*
X224467142Y-122680057D01*
X224848095Y-122680057D02*
X224895714Y-122632438D01*
X224895714Y-122632438D02*
X224990952Y-122584819D01*
X224990952Y-122584819D02*
X225229047Y-122584819D01*
X225229047Y-122584819D02*
X225324285Y-122632438D01*
X225324285Y-122632438D02*
X225371904Y-122680057D01*
X225371904Y-122680057D02*
X225419523Y-122775295D01*
X225419523Y-122775295D02*
X225419523Y-122870533D01*
X225419523Y-122870533D02*
X225371904Y-123013390D01*
X225371904Y-123013390D02*
X224800476Y-123584819D01*
X224800476Y-123584819D02*
X225419523Y-123584819D01*
X226371904Y-123584819D02*
X225800476Y-123584819D01*
X226086190Y-123584819D02*
X226086190Y-122584819D01*
X226086190Y-122584819D02*
X225990952Y-122727676D01*
X225990952Y-122727676D02*
X225895714Y-122822914D01*
X225895714Y-122822914D02*
X225800476Y-122870533D01*
X103407142Y-113344580D02*
X103359523Y-113392200D01*
X103359523Y-113392200D02*
X103216666Y-113439819D01*
X103216666Y-113439819D02*
X103121428Y-113439819D01*
X103121428Y-113439819D02*
X102978571Y-113392200D01*
X102978571Y-113392200D02*
X102883333Y-113296961D01*
X102883333Y-113296961D02*
X102835714Y-113201723D01*
X102835714Y-113201723D02*
X102788095Y-113011247D01*
X102788095Y-113011247D02*
X102788095Y-112868390D01*
X102788095Y-112868390D02*
X102835714Y-112677914D01*
X102835714Y-112677914D02*
X102883333Y-112582676D01*
X102883333Y-112582676D02*
X102978571Y-112487438D01*
X102978571Y-112487438D02*
X103121428Y-112439819D01*
X103121428Y-112439819D02*
X103216666Y-112439819D01*
X103216666Y-112439819D02*
X103359523Y-112487438D01*
X103359523Y-112487438D02*
X103407142Y-112535057D01*
X104359523Y-113439819D02*
X103788095Y-113439819D01*
X104073809Y-113439819D02*
X104073809Y-112439819D01*
X104073809Y-112439819D02*
X103978571Y-112582676D01*
X103978571Y-112582676D02*
X103883333Y-112677914D01*
X103883333Y-112677914D02*
X103788095Y-112725533D01*
X104740476Y-112535057D02*
X104788095Y-112487438D01*
X104788095Y-112487438D02*
X104883333Y-112439819D01*
X104883333Y-112439819D02*
X105121428Y-112439819D01*
X105121428Y-112439819D02*
X105216666Y-112487438D01*
X105216666Y-112487438D02*
X105264285Y-112535057D01*
X105264285Y-112535057D02*
X105311904Y-112630295D01*
X105311904Y-112630295D02*
X105311904Y-112725533D01*
X105311904Y-112725533D02*
X105264285Y-112868390D01*
X105264285Y-112868390D02*
X104692857Y-113439819D01*
X104692857Y-113439819D02*
X105311904Y-113439819D01*
X70978095Y-75604819D02*
X70978095Y-76414342D01*
X70978095Y-76414342D02*
X71025714Y-76509580D01*
X71025714Y-76509580D02*
X71073333Y-76557200D01*
X71073333Y-76557200D02*
X71168571Y-76604819D01*
X71168571Y-76604819D02*
X71359047Y-76604819D01*
X71359047Y-76604819D02*
X71454285Y-76557200D01*
X71454285Y-76557200D02*
X71501904Y-76509580D01*
X71501904Y-76509580D02*
X71549523Y-76414342D01*
X71549523Y-76414342D02*
X71549523Y-75604819D01*
X72549523Y-76604819D02*
X71978095Y-76604819D01*
X72263809Y-76604819D02*
X72263809Y-75604819D01*
X72263809Y-75604819D02*
X72168571Y-75747676D01*
X72168571Y-75747676D02*
X72073333Y-75842914D01*
X72073333Y-75842914D02*
X71978095Y-75890533D01*
X80403724Y-147396174D02*
X81119466Y-147396174D01*
X81119466Y-147396174D02*
X81262614Y-147443890D01*
X81262614Y-147443890D02*
X81358047Y-147539322D01*
X81358047Y-147539322D02*
X81405763Y-147682471D01*
X81405763Y-147682471D02*
X81405763Y-147777903D01*
X81405763Y-146394135D02*
X81405763Y-146966729D01*
X81405763Y-146680432D02*
X80403724Y-146680432D01*
X80403724Y-146680432D02*
X80546872Y-146775864D01*
X80546872Y-146775864D02*
X80642304Y-146871297D01*
X80642304Y-146871297D02*
X80690021Y-146966729D01*
X80403724Y-146060122D02*
X80403724Y-145439812D01*
X80403724Y-145439812D02*
X80785453Y-145773825D01*
X80785453Y-145773825D02*
X80785453Y-145630677D01*
X80785453Y-145630677D02*
X80833169Y-145535245D01*
X80833169Y-145535245D02*
X80880885Y-145487528D01*
X80880885Y-145487528D02*
X80976317Y-145439812D01*
X80976317Y-145439812D02*
X81214898Y-145439812D01*
X81214898Y-145439812D02*
X81310330Y-145487528D01*
X81310330Y-145487528D02*
X81358047Y-145535245D01*
X81358047Y-145535245D02*
X81405763Y-145630677D01*
X81405763Y-145630677D02*
X81405763Y-145916974D01*
X81405763Y-145916974D02*
X81358047Y-146012406D01*
X81358047Y-146012406D02*
X81310330Y-146060122D01*
X189553333Y-60549580D02*
X189505714Y-60597200D01*
X189505714Y-60597200D02*
X189362857Y-60644819D01*
X189362857Y-60644819D02*
X189267619Y-60644819D01*
X189267619Y-60644819D02*
X189124762Y-60597200D01*
X189124762Y-60597200D02*
X189029524Y-60501961D01*
X189029524Y-60501961D02*
X188981905Y-60406723D01*
X188981905Y-60406723D02*
X188934286Y-60216247D01*
X188934286Y-60216247D02*
X188934286Y-60073390D01*
X188934286Y-60073390D02*
X188981905Y-59882914D01*
X188981905Y-59882914D02*
X189029524Y-59787676D01*
X189029524Y-59787676D02*
X189124762Y-59692438D01*
X189124762Y-59692438D02*
X189267619Y-59644819D01*
X189267619Y-59644819D02*
X189362857Y-59644819D01*
X189362857Y-59644819D02*
X189505714Y-59692438D01*
X189505714Y-59692438D02*
X189553333Y-59740057D01*
X190458095Y-59644819D02*
X189981905Y-59644819D01*
X189981905Y-59644819D02*
X189934286Y-60121009D01*
X189934286Y-60121009D02*
X189981905Y-60073390D01*
X189981905Y-60073390D02*
X190077143Y-60025771D01*
X190077143Y-60025771D02*
X190315238Y-60025771D01*
X190315238Y-60025771D02*
X190410476Y-60073390D01*
X190410476Y-60073390D02*
X190458095Y-60121009D01*
X190458095Y-60121009D02*
X190505714Y-60216247D01*
X190505714Y-60216247D02*
X190505714Y-60454342D01*
X190505714Y-60454342D02*
X190458095Y-60549580D01*
X190458095Y-60549580D02*
X190410476Y-60597200D01*
X190410476Y-60597200D02*
X190315238Y-60644819D01*
X190315238Y-60644819D02*
X190077143Y-60644819D01*
X190077143Y-60644819D02*
X189981905Y-60597200D01*
X189981905Y-60597200D02*
X189934286Y-60549580D01*
X196674819Y-53533333D02*
X197389104Y-53533333D01*
X197389104Y-53533333D02*
X197531961Y-53580952D01*
X197531961Y-53580952D02*
X197627200Y-53676190D01*
X197627200Y-53676190D02*
X197674819Y-53819047D01*
X197674819Y-53819047D02*
X197674819Y-53914285D01*
X197674819Y-52533333D02*
X197674819Y-53104761D01*
X197674819Y-52819047D02*
X196674819Y-52819047D01*
X196674819Y-52819047D02*
X196817676Y-52914285D01*
X196817676Y-52914285D02*
X196912914Y-53009523D01*
X196912914Y-53009523D02*
X196960533Y-53104761D01*
X224238095Y-42304819D02*
X224238095Y-41304819D01*
X224238095Y-41781009D02*
X224809523Y-41781009D01*
X224809523Y-42304819D02*
X224809523Y-41304819D01*
X225190476Y-41304819D02*
X225809523Y-41304819D01*
X225809523Y-41304819D02*
X225476190Y-41685771D01*
X225476190Y-41685771D02*
X225619047Y-41685771D01*
X225619047Y-41685771D02*
X225714285Y-41733390D01*
X225714285Y-41733390D02*
X225761904Y-41781009D01*
X225761904Y-41781009D02*
X225809523Y-41876247D01*
X225809523Y-41876247D02*
X225809523Y-42114342D01*
X225809523Y-42114342D02*
X225761904Y-42209580D01*
X225761904Y-42209580D02*
X225714285Y-42257200D01*
X225714285Y-42257200D02*
X225619047Y-42304819D01*
X225619047Y-42304819D02*
X225333333Y-42304819D01*
X225333333Y-42304819D02*
X225238095Y-42257200D01*
X225238095Y-42257200D02*
X225190476Y-42209580D01*
X191124819Y-82272857D02*
X190648628Y-82606190D01*
X191124819Y-82844285D02*
X190124819Y-82844285D01*
X190124819Y-82844285D02*
X190124819Y-82463333D01*
X190124819Y-82463333D02*
X190172438Y-82368095D01*
X190172438Y-82368095D02*
X190220057Y-82320476D01*
X190220057Y-82320476D02*
X190315295Y-82272857D01*
X190315295Y-82272857D02*
X190458152Y-82272857D01*
X190458152Y-82272857D02*
X190553390Y-82320476D01*
X190553390Y-82320476D02*
X190601009Y-82368095D01*
X190601009Y-82368095D02*
X190648628Y-82463333D01*
X190648628Y-82463333D02*
X190648628Y-82844285D01*
X191124819Y-81320476D02*
X191124819Y-81891904D01*
X191124819Y-81606190D02*
X190124819Y-81606190D01*
X190124819Y-81606190D02*
X190267676Y-81701428D01*
X190267676Y-81701428D02*
X190362914Y-81796666D01*
X190362914Y-81796666D02*
X190410533Y-81891904D01*
X190553390Y-80749047D02*
X190505771Y-80844285D01*
X190505771Y-80844285D02*
X190458152Y-80891904D01*
X190458152Y-80891904D02*
X190362914Y-80939523D01*
X190362914Y-80939523D02*
X190315295Y-80939523D01*
X190315295Y-80939523D02*
X190220057Y-80891904D01*
X190220057Y-80891904D02*
X190172438Y-80844285D01*
X190172438Y-80844285D02*
X190124819Y-80749047D01*
X190124819Y-80749047D02*
X190124819Y-80558571D01*
X190124819Y-80558571D02*
X190172438Y-80463333D01*
X190172438Y-80463333D02*
X190220057Y-80415714D01*
X190220057Y-80415714D02*
X190315295Y-80368095D01*
X190315295Y-80368095D02*
X190362914Y-80368095D01*
X190362914Y-80368095D02*
X190458152Y-80415714D01*
X190458152Y-80415714D02*
X190505771Y-80463333D01*
X190505771Y-80463333D02*
X190553390Y-80558571D01*
X190553390Y-80558571D02*
X190553390Y-80749047D01*
X190553390Y-80749047D02*
X190601009Y-80844285D01*
X190601009Y-80844285D02*
X190648628Y-80891904D01*
X190648628Y-80891904D02*
X190743866Y-80939523D01*
X190743866Y-80939523D02*
X190934342Y-80939523D01*
X190934342Y-80939523D02*
X191029580Y-80891904D01*
X191029580Y-80891904D02*
X191077200Y-80844285D01*
X191077200Y-80844285D02*
X191124819Y-80749047D01*
X191124819Y-80749047D02*
X191124819Y-80558571D01*
X191124819Y-80558571D02*
X191077200Y-80463333D01*
X191077200Y-80463333D02*
X191029580Y-80415714D01*
X191029580Y-80415714D02*
X190934342Y-80368095D01*
X190934342Y-80368095D02*
X190743866Y-80368095D01*
X190743866Y-80368095D02*
X190648628Y-80415714D01*
X190648628Y-80415714D02*
X190601009Y-80463333D01*
X190601009Y-80463333D02*
X190553390Y-80558571D01*
X202508333Y-61509580D02*
X202460714Y-61557200D01*
X202460714Y-61557200D02*
X202317857Y-61604819D01*
X202317857Y-61604819D02*
X202222619Y-61604819D01*
X202222619Y-61604819D02*
X202079762Y-61557200D01*
X202079762Y-61557200D02*
X201984524Y-61461961D01*
X201984524Y-61461961D02*
X201936905Y-61366723D01*
X201936905Y-61366723D02*
X201889286Y-61176247D01*
X201889286Y-61176247D02*
X201889286Y-61033390D01*
X201889286Y-61033390D02*
X201936905Y-60842914D01*
X201936905Y-60842914D02*
X201984524Y-60747676D01*
X201984524Y-60747676D02*
X202079762Y-60652438D01*
X202079762Y-60652438D02*
X202222619Y-60604819D01*
X202222619Y-60604819D02*
X202317857Y-60604819D01*
X202317857Y-60604819D02*
X202460714Y-60652438D01*
X202460714Y-60652438D02*
X202508333Y-60700057D01*
X202984524Y-61604819D02*
X203175000Y-61604819D01*
X203175000Y-61604819D02*
X203270238Y-61557200D01*
X203270238Y-61557200D02*
X203317857Y-61509580D01*
X203317857Y-61509580D02*
X203413095Y-61366723D01*
X203413095Y-61366723D02*
X203460714Y-61176247D01*
X203460714Y-61176247D02*
X203460714Y-60795295D01*
X203460714Y-60795295D02*
X203413095Y-60700057D01*
X203413095Y-60700057D02*
X203365476Y-60652438D01*
X203365476Y-60652438D02*
X203270238Y-60604819D01*
X203270238Y-60604819D02*
X203079762Y-60604819D01*
X203079762Y-60604819D02*
X202984524Y-60652438D01*
X202984524Y-60652438D02*
X202936905Y-60700057D01*
X202936905Y-60700057D02*
X202889286Y-60795295D01*
X202889286Y-60795295D02*
X202889286Y-61033390D01*
X202889286Y-61033390D02*
X202936905Y-61128628D01*
X202936905Y-61128628D02*
X202984524Y-61176247D01*
X202984524Y-61176247D02*
X203079762Y-61223866D01*
X203079762Y-61223866D02*
X203270238Y-61223866D01*
X203270238Y-61223866D02*
X203365476Y-61176247D01*
X203365476Y-61176247D02*
X203413095Y-61128628D01*
X203413095Y-61128628D02*
X203460714Y-61033390D01*
X194313333Y-149784819D02*
X193980000Y-149308628D01*
X193741905Y-149784819D02*
X193741905Y-148784819D01*
X193741905Y-148784819D02*
X194122857Y-148784819D01*
X194122857Y-148784819D02*
X194218095Y-148832438D01*
X194218095Y-148832438D02*
X194265714Y-148880057D01*
X194265714Y-148880057D02*
X194313333Y-148975295D01*
X194313333Y-148975295D02*
X194313333Y-149118152D01*
X194313333Y-149118152D02*
X194265714Y-149213390D01*
X194265714Y-149213390D02*
X194218095Y-149261009D01*
X194218095Y-149261009D02*
X194122857Y-149308628D01*
X194122857Y-149308628D02*
X193741905Y-149308628D01*
X195170476Y-149118152D02*
X195170476Y-149784819D01*
X194932381Y-148737200D02*
X194694286Y-149451485D01*
X194694286Y-149451485D02*
X195313333Y-149451485D01*
X99274580Y-84156666D02*
X99322200Y-84204285D01*
X99322200Y-84204285D02*
X99369819Y-84347142D01*
X99369819Y-84347142D02*
X99369819Y-84442380D01*
X99369819Y-84442380D02*
X99322200Y-84585237D01*
X99322200Y-84585237D02*
X99226961Y-84680475D01*
X99226961Y-84680475D02*
X99131723Y-84728094D01*
X99131723Y-84728094D02*
X98941247Y-84775713D01*
X98941247Y-84775713D02*
X98798390Y-84775713D01*
X98798390Y-84775713D02*
X98607914Y-84728094D01*
X98607914Y-84728094D02*
X98512676Y-84680475D01*
X98512676Y-84680475D02*
X98417438Y-84585237D01*
X98417438Y-84585237D02*
X98369819Y-84442380D01*
X98369819Y-84442380D02*
X98369819Y-84347142D01*
X98369819Y-84347142D02*
X98417438Y-84204285D01*
X98417438Y-84204285D02*
X98465057Y-84156666D01*
X98369819Y-83299523D02*
X98369819Y-83489999D01*
X98369819Y-83489999D02*
X98417438Y-83585237D01*
X98417438Y-83585237D02*
X98465057Y-83632856D01*
X98465057Y-83632856D02*
X98607914Y-83728094D01*
X98607914Y-83728094D02*
X98798390Y-83775713D01*
X98798390Y-83775713D02*
X99179342Y-83775713D01*
X99179342Y-83775713D02*
X99274580Y-83728094D01*
X99274580Y-83728094D02*
X99322200Y-83680475D01*
X99322200Y-83680475D02*
X99369819Y-83585237D01*
X99369819Y-83585237D02*
X99369819Y-83394761D01*
X99369819Y-83394761D02*
X99322200Y-83299523D01*
X99322200Y-83299523D02*
X99274580Y-83251904D01*
X99274580Y-83251904D02*
X99179342Y-83204285D01*
X99179342Y-83204285D02*
X98941247Y-83204285D01*
X98941247Y-83204285D02*
X98846009Y-83251904D01*
X98846009Y-83251904D02*
X98798390Y-83299523D01*
X98798390Y-83299523D02*
X98750771Y-83394761D01*
X98750771Y-83394761D02*
X98750771Y-83585237D01*
X98750771Y-83585237D02*
X98798390Y-83680475D01*
X98798390Y-83680475D02*
X98846009Y-83728094D01*
X98846009Y-83728094D02*
X98941247Y-83775713D01*
X52370476Y-73899819D02*
X52370476Y-72899819D01*
X52370476Y-72899819D02*
X52703809Y-73614104D01*
X52703809Y-73614104D02*
X53037142Y-72899819D01*
X53037142Y-72899819D02*
X53037142Y-73899819D01*
X54037142Y-73899819D02*
X53465714Y-73899819D01*
X53751428Y-73899819D02*
X53751428Y-72899819D01*
X53751428Y-72899819D02*
X53656190Y-73042676D01*
X53656190Y-73042676D02*
X53560952Y-73137914D01*
X53560952Y-73137914D02*
X53465714Y-73185533D01*
X219943724Y-104271174D02*
X220659466Y-104271174D01*
X220659466Y-104271174D02*
X220802614Y-104318890D01*
X220802614Y-104318890D02*
X220898047Y-104414322D01*
X220898047Y-104414322D02*
X220945763Y-104557471D01*
X220945763Y-104557471D02*
X220945763Y-104652903D01*
X220945763Y-103269135D02*
X220945763Y-103841729D01*
X220945763Y-103555432D02*
X219943724Y-103555432D01*
X219943724Y-103555432D02*
X220086872Y-103650864D01*
X220086872Y-103650864D02*
X220182304Y-103746297D01*
X220182304Y-103746297D02*
X220230021Y-103841729D01*
X220277737Y-102410245D02*
X220945763Y-102410245D01*
X219896008Y-102648825D02*
X220611750Y-102887406D01*
X220611750Y-102887406D02*
X220611750Y-102267096D01*
X216474819Y-80044285D02*
X215474819Y-80044285D01*
X215474819Y-80044285D02*
X215474819Y-79806190D01*
X215474819Y-79806190D02*
X215522438Y-79663333D01*
X215522438Y-79663333D02*
X215617676Y-79568095D01*
X215617676Y-79568095D02*
X215712914Y-79520476D01*
X215712914Y-79520476D02*
X215903390Y-79472857D01*
X215903390Y-79472857D02*
X216046247Y-79472857D01*
X216046247Y-79472857D02*
X216236723Y-79520476D01*
X216236723Y-79520476D02*
X216331961Y-79568095D01*
X216331961Y-79568095D02*
X216427200Y-79663333D01*
X216427200Y-79663333D02*
X216474819Y-79806190D01*
X216474819Y-79806190D02*
X216474819Y-80044285D01*
X216474819Y-78520476D02*
X216474819Y-79091904D01*
X216474819Y-78806190D02*
X215474819Y-78806190D01*
X215474819Y-78806190D02*
X215617676Y-78901428D01*
X215617676Y-78901428D02*
X215712914Y-78996666D01*
X215712914Y-78996666D02*
X215760533Y-79091904D01*
X216474819Y-77568095D02*
X216474819Y-78139523D01*
X216474819Y-77853809D02*
X215474819Y-77853809D01*
X215474819Y-77853809D02*
X215617676Y-77949047D01*
X215617676Y-77949047D02*
X215712914Y-78044285D01*
X215712914Y-78044285D02*
X215760533Y-78139523D01*
X211574819Y-80091904D02*
X210574819Y-80091904D01*
X211574819Y-79520476D02*
X211003390Y-79949047D01*
X210574819Y-79520476D02*
X211146247Y-80091904D01*
X185238095Y-120304819D02*
X185238095Y-119304819D01*
X185238095Y-119781009D02*
X185809523Y-119781009D01*
X185809523Y-120304819D02*
X185809523Y-119304819D01*
X186714285Y-119638152D02*
X186714285Y-120304819D01*
X186476190Y-119257200D02*
X186238095Y-119971485D01*
X186238095Y-119971485D02*
X186857142Y-119971485D01*
X199953333Y-150154819D02*
X199620000Y-149678628D01*
X199381905Y-150154819D02*
X199381905Y-149154819D01*
X199381905Y-149154819D02*
X199762857Y-149154819D01*
X199762857Y-149154819D02*
X199858095Y-149202438D01*
X199858095Y-149202438D02*
X199905714Y-149250057D01*
X199905714Y-149250057D02*
X199953333Y-149345295D01*
X199953333Y-149345295D02*
X199953333Y-149488152D01*
X199953333Y-149488152D02*
X199905714Y-149583390D01*
X199905714Y-149583390D02*
X199858095Y-149631009D01*
X199858095Y-149631009D02*
X199762857Y-149678628D01*
X199762857Y-149678628D02*
X199381905Y-149678628D01*
X200810476Y-149154819D02*
X200620000Y-149154819D01*
X200620000Y-149154819D02*
X200524762Y-149202438D01*
X200524762Y-149202438D02*
X200477143Y-149250057D01*
X200477143Y-149250057D02*
X200381905Y-149392914D01*
X200381905Y-149392914D02*
X200334286Y-149583390D01*
X200334286Y-149583390D02*
X200334286Y-149964342D01*
X200334286Y-149964342D02*
X200381905Y-150059580D01*
X200381905Y-150059580D02*
X200429524Y-150107200D01*
X200429524Y-150107200D02*
X200524762Y-150154819D01*
X200524762Y-150154819D02*
X200715238Y-150154819D01*
X200715238Y-150154819D02*
X200810476Y-150107200D01*
X200810476Y-150107200D02*
X200858095Y-150059580D01*
X200858095Y-150059580D02*
X200905714Y-149964342D01*
X200905714Y-149964342D02*
X200905714Y-149726247D01*
X200905714Y-149726247D02*
X200858095Y-149631009D01*
X200858095Y-149631009D02*
X200810476Y-149583390D01*
X200810476Y-149583390D02*
X200715238Y-149535771D01*
X200715238Y-149535771D02*
X200524762Y-149535771D01*
X200524762Y-149535771D02*
X200429524Y-149583390D01*
X200429524Y-149583390D02*
X200381905Y-149631009D01*
X200381905Y-149631009D02*
X200334286Y-149726247D01*
X145001905Y-45924819D02*
X145001905Y-44924819D01*
X145001905Y-44924819D02*
X145240000Y-44924819D01*
X145240000Y-44924819D02*
X145382857Y-44972438D01*
X145382857Y-44972438D02*
X145478095Y-45067676D01*
X145478095Y-45067676D02*
X145525714Y-45162914D01*
X145525714Y-45162914D02*
X145573333Y-45353390D01*
X145573333Y-45353390D02*
X145573333Y-45496247D01*
X145573333Y-45496247D02*
X145525714Y-45686723D01*
X145525714Y-45686723D02*
X145478095Y-45781961D01*
X145478095Y-45781961D02*
X145382857Y-45877200D01*
X145382857Y-45877200D02*
X145240000Y-45924819D01*
X145240000Y-45924819D02*
X145001905Y-45924819D01*
X146525714Y-45924819D02*
X145954286Y-45924819D01*
X146240000Y-45924819D02*
X146240000Y-44924819D01*
X146240000Y-44924819D02*
X146144762Y-45067676D01*
X146144762Y-45067676D02*
X146049524Y-45162914D01*
X146049524Y-45162914D02*
X145954286Y-45210533D01*
X153198095Y-52324819D02*
X153198095Y-51324819D01*
X153769523Y-52324819D02*
X153340952Y-51753390D01*
X153769523Y-51324819D02*
X153198095Y-51896247D01*
X67104819Y-117103094D02*
X66104819Y-117103094D01*
X66104819Y-117103094D02*
X66104819Y-116864999D01*
X66104819Y-116864999D02*
X66152438Y-116722142D01*
X66152438Y-116722142D02*
X66247676Y-116626904D01*
X66247676Y-116626904D02*
X66342914Y-116579285D01*
X66342914Y-116579285D02*
X66533390Y-116531666D01*
X66533390Y-116531666D02*
X66676247Y-116531666D01*
X66676247Y-116531666D02*
X66866723Y-116579285D01*
X66866723Y-116579285D02*
X66961961Y-116626904D01*
X66961961Y-116626904D02*
X67057200Y-116722142D01*
X67057200Y-116722142D02*
X67104819Y-116864999D01*
X67104819Y-116864999D02*
X67104819Y-117103094D01*
X67104819Y-116055475D02*
X67104819Y-115864999D01*
X67104819Y-115864999D02*
X67057200Y-115769761D01*
X67057200Y-115769761D02*
X67009580Y-115722142D01*
X67009580Y-115722142D02*
X66866723Y-115626904D01*
X66866723Y-115626904D02*
X66676247Y-115579285D01*
X66676247Y-115579285D02*
X66295295Y-115579285D01*
X66295295Y-115579285D02*
X66200057Y-115626904D01*
X66200057Y-115626904D02*
X66152438Y-115674523D01*
X66152438Y-115674523D02*
X66104819Y-115769761D01*
X66104819Y-115769761D02*
X66104819Y-115960237D01*
X66104819Y-115960237D02*
X66152438Y-116055475D01*
X66152438Y-116055475D02*
X66200057Y-116103094D01*
X66200057Y-116103094D02*
X66295295Y-116150713D01*
X66295295Y-116150713D02*
X66533390Y-116150713D01*
X66533390Y-116150713D02*
X66628628Y-116103094D01*
X66628628Y-116103094D02*
X66676247Y-116055475D01*
X66676247Y-116055475D02*
X66723866Y-115960237D01*
X66723866Y-115960237D02*
X66723866Y-115769761D01*
X66723866Y-115769761D02*
X66676247Y-115674523D01*
X66676247Y-115674523D02*
X66628628Y-115626904D01*
X66628628Y-115626904D02*
X66533390Y-115579285D01*
X72204819Y-115106904D02*
X71204819Y-115106904D01*
X72204819Y-114535476D02*
X71633390Y-114964047D01*
X71204819Y-114535476D02*
X71776247Y-115106904D01*
X102289580Y-69876666D02*
X102337200Y-69924285D01*
X102337200Y-69924285D02*
X102384819Y-70067142D01*
X102384819Y-70067142D02*
X102384819Y-70162380D01*
X102384819Y-70162380D02*
X102337200Y-70305237D01*
X102337200Y-70305237D02*
X102241961Y-70400475D01*
X102241961Y-70400475D02*
X102146723Y-70448094D01*
X102146723Y-70448094D02*
X101956247Y-70495713D01*
X101956247Y-70495713D02*
X101813390Y-70495713D01*
X101813390Y-70495713D02*
X101622914Y-70448094D01*
X101622914Y-70448094D02*
X101527676Y-70400475D01*
X101527676Y-70400475D02*
X101432438Y-70305237D01*
X101432438Y-70305237D02*
X101384819Y-70162380D01*
X101384819Y-70162380D02*
X101384819Y-70067142D01*
X101384819Y-70067142D02*
X101432438Y-69924285D01*
X101432438Y-69924285D02*
X101480057Y-69876666D01*
X102384819Y-68924285D02*
X102384819Y-69495713D01*
X102384819Y-69209999D02*
X101384819Y-69209999D01*
X101384819Y-69209999D02*
X101527676Y-69305237D01*
X101527676Y-69305237D02*
X101622914Y-69400475D01*
X101622914Y-69400475D02*
X101670533Y-69495713D01*
X66393333Y-76509580D02*
X66345714Y-76557200D01*
X66345714Y-76557200D02*
X66202857Y-76604819D01*
X66202857Y-76604819D02*
X66107619Y-76604819D01*
X66107619Y-76604819D02*
X65964762Y-76557200D01*
X65964762Y-76557200D02*
X65869524Y-76461961D01*
X65869524Y-76461961D02*
X65821905Y-76366723D01*
X65821905Y-76366723D02*
X65774286Y-76176247D01*
X65774286Y-76176247D02*
X65774286Y-76033390D01*
X65774286Y-76033390D02*
X65821905Y-75842914D01*
X65821905Y-75842914D02*
X65869524Y-75747676D01*
X65869524Y-75747676D02*
X65964762Y-75652438D01*
X65964762Y-75652438D02*
X66107619Y-75604819D01*
X66107619Y-75604819D02*
X66202857Y-75604819D01*
X66202857Y-75604819D02*
X66345714Y-75652438D01*
X66345714Y-75652438D02*
X66393333Y-75700057D01*
X67250476Y-75938152D02*
X67250476Y-76604819D01*
X67012381Y-75557200D02*
X66774286Y-76271485D01*
X66774286Y-76271485D02*
X67393333Y-76271485D01*
X107874819Y-78156666D02*
X107398628Y-78489999D01*
X107874819Y-78728094D02*
X106874819Y-78728094D01*
X106874819Y-78728094D02*
X106874819Y-78347142D01*
X106874819Y-78347142D02*
X106922438Y-78251904D01*
X106922438Y-78251904D02*
X106970057Y-78204285D01*
X106970057Y-78204285D02*
X107065295Y-78156666D01*
X107065295Y-78156666D02*
X107208152Y-78156666D01*
X107208152Y-78156666D02*
X107303390Y-78204285D01*
X107303390Y-78204285D02*
X107351009Y-78251904D01*
X107351009Y-78251904D02*
X107398628Y-78347142D01*
X107398628Y-78347142D02*
X107398628Y-78728094D01*
X107874819Y-77204285D02*
X107874819Y-77775713D01*
X107874819Y-77489999D02*
X106874819Y-77489999D01*
X106874819Y-77489999D02*
X107017676Y-77585237D01*
X107017676Y-77585237D02*
X107112914Y-77680475D01*
X107112914Y-77680475D02*
X107160533Y-77775713D01*
X97164819Y-83976666D02*
X96688628Y-84309999D01*
X97164819Y-84548094D02*
X96164819Y-84548094D01*
X96164819Y-84548094D02*
X96164819Y-84167142D01*
X96164819Y-84167142D02*
X96212438Y-84071904D01*
X96212438Y-84071904D02*
X96260057Y-84024285D01*
X96260057Y-84024285D02*
X96355295Y-83976666D01*
X96355295Y-83976666D02*
X96498152Y-83976666D01*
X96498152Y-83976666D02*
X96593390Y-84024285D01*
X96593390Y-84024285D02*
X96641009Y-84071904D01*
X96641009Y-84071904D02*
X96688628Y-84167142D01*
X96688628Y-84167142D02*
X96688628Y-84548094D01*
X96164819Y-83643332D02*
X96164819Y-83024285D01*
X96164819Y-83024285D02*
X96545771Y-83357618D01*
X96545771Y-83357618D02*
X96545771Y-83214761D01*
X96545771Y-83214761D02*
X96593390Y-83119523D01*
X96593390Y-83119523D02*
X96641009Y-83071904D01*
X96641009Y-83071904D02*
X96736247Y-83024285D01*
X96736247Y-83024285D02*
X96974342Y-83024285D01*
X96974342Y-83024285D02*
X97069580Y-83071904D01*
X97069580Y-83071904D02*
X97117200Y-83119523D01*
X97117200Y-83119523D02*
X97164819Y-83214761D01*
X97164819Y-83214761D02*
X97164819Y-83500475D01*
X97164819Y-83500475D02*
X97117200Y-83595713D01*
X97117200Y-83595713D02*
X97069580Y-83643332D01*
D11*
%TO.C,C17*%
X65325000Y-56380000D02*
X75865000Y-56380000D01*
X65325000Y-61120000D02*
X65325000Y-56380000D01*
X75865000Y-56380000D02*
X75865000Y-61120000D01*
X75865000Y-61120000D02*
X65325000Y-61120000D01*
%TO.C,D4*%
X195980000Y-138660000D02*
X196890000Y-138660000D01*
X198315000Y-135940000D02*
X198315000Y-141380000D01*
X198435000Y-135940000D02*
X198435000Y-141380000D01*
X198555000Y-135940000D02*
X198555000Y-141380000D01*
X207540000Y-138660000D02*
X206630000Y-138660000D01*
X196890000Y-135940000D02*
X206630000Y-135940000D01*
X206630000Y-141380000D01*
X196890000Y-141380000D01*
X196890000Y-135940000D01*
D12*
%TO.C,Q3*%
X59400000Y-129615000D02*
X59400000Y-140155000D01*
X59400000Y-140155000D02*
X64100000Y-140155000D01*
X64100000Y-129615000D02*
X59400000Y-129615000D01*
X64100000Y-140155000D02*
X64100000Y-129615000D01*
D13*
X58990000Y-132345000D02*
G75*
G02*
X58790000Y-132345000I-100000J0D01*
G01*
X58790000Y-132345000D02*
G75*
G02*
X58990000Y-132345000I100000J0D01*
G01*
D12*
%TO.C,J9*%
X157870000Y-40900000D02*
X168030000Y-40900000D01*
X157870000Y-41900000D02*
X157870000Y-40900000D01*
X157870000Y-49100000D02*
X157870000Y-41900000D01*
X168030000Y-40900000D02*
X168030000Y-41900000D01*
X168030000Y-41900000D02*
X157870000Y-41900000D01*
X168030000Y-41900000D02*
X168030000Y-49100000D01*
X168030000Y-49100000D02*
X157870000Y-49100000D01*
D11*
%TO.C,SW1*%
X129030000Y-89540000D02*
X129030000Y-91040000D01*
X130280000Y-93540000D02*
X134780000Y-93540000D01*
X134780000Y-87040000D02*
X130280000Y-87040000D01*
X136030000Y-91040000D02*
X136030000Y-89540000D01*
%TO.C,RV2*%
X104690000Y-61580000D02*
X114430000Y-61580000D01*
X104690000Y-67221000D02*
X104690000Y-61580000D01*
X104690000Y-67221000D02*
X114430000Y-67221000D01*
X105940000Y-56580000D02*
X113180000Y-56580000D01*
X105940000Y-61580000D02*
X105940000Y-56580000D01*
X106940000Y-49580000D02*
X112180000Y-49580000D01*
X106940000Y-56580000D02*
X106940000Y-49580000D01*
X112180000Y-56580000D02*
X112180000Y-49580000D01*
X113180000Y-61580000D02*
X113180000Y-56580000D01*
X114430000Y-67221000D02*
X114430000Y-61580000D01*
%TO.C,R9*%
X104550000Y-120825000D02*
X104550000Y-123475000D01*
X104550000Y-138265000D02*
X104550000Y-135615000D01*
X102180000Y-135615000D02*
X106920000Y-135615000D01*
X106920000Y-123475000D01*
X102180000Y-123475000D01*
X102180000Y-135615000D01*
%TO.C,R5*%
X91190000Y-104140000D02*
X91190000Y-106790000D01*
X91190000Y-121580000D02*
X91190000Y-118930000D01*
X88820000Y-118930000D02*
X93560000Y-118930000D01*
X93560000Y-106790000D01*
X88820000Y-106790000D01*
X88820000Y-118930000D01*
%TO.C,J7*%
X75550000Y-69860000D02*
X75550000Y-64670000D01*
X78310000Y-64670000D02*
X75550000Y-64670000D01*
X78310000Y-69860000D02*
X75550000Y-69860000D01*
X78310000Y-69860000D02*
X78310000Y-64670000D01*
X78310000Y-71130000D02*
X78310000Y-72510000D01*
X78310000Y-72510000D02*
X76930000Y-72510000D01*
%TO.C,R11*%
X194330000Y-88500000D02*
X196980000Y-88500000D01*
X211770000Y-88500000D02*
X209120000Y-88500000D01*
X196980000Y-86130000D02*
X209120000Y-86130000D01*
X209120000Y-90870000D01*
X196980000Y-90870000D01*
X196980000Y-86130000D01*
%TO.C,R15*%
X199030000Y-120780000D02*
X201680000Y-120780000D01*
X216470000Y-120780000D02*
X213820000Y-120780000D01*
X213820000Y-123150000D02*
X201680000Y-123150000D01*
X201680000Y-118410000D01*
X213820000Y-118410000D01*
X213820000Y-123150000D01*
%TO.C,J5*%
X211125000Y-59030000D02*
X211125000Y-57650000D01*
X212505000Y-59030000D02*
X211125000Y-59030000D01*
X213775000Y-56270000D02*
X216425000Y-56270000D01*
X213775000Y-59030000D02*
X213775000Y-56270000D01*
X213775000Y-59030000D02*
X216425000Y-59030000D01*
X216425000Y-59030000D02*
X216425000Y-56270000D01*
D12*
%TO.C,J3*%
X170290000Y-40900000D02*
X180450000Y-40900000D01*
X170290000Y-41900000D02*
X170290000Y-40900000D01*
X170290000Y-49100000D02*
X170290000Y-41900000D01*
X180450000Y-40900000D02*
X180450000Y-41900000D01*
X180450000Y-41900000D02*
X170290000Y-41900000D01*
X180450000Y-41900000D02*
X180450000Y-49100000D01*
X180450000Y-49100000D02*
X170290000Y-49100000D01*
D11*
%TO.C,C11*%
X190780000Y-135210000D02*
G75*
G02*
X182540000Y-135210000I-4120000J0D01*
G01*
X182540000Y-135210000D02*
G75*
G02*
X190780000Y-135210000I4120000J0D01*
G01*
%TO.C,C16*%
X113955000Y-85580000D02*
X124495000Y-85580000D01*
X113955000Y-90320000D02*
X113955000Y-85580000D01*
X124495000Y-85580000D02*
X124495000Y-90320000D01*
X124495000Y-90320000D02*
X113955000Y-90320000D01*
%TO.C,C7*%
X208200000Y-42765000D02*
X212940000Y-42765000D01*
X208200000Y-53305000D02*
X208200000Y-42765000D01*
X212940000Y-42765000D02*
X212940000Y-53305000D01*
X212940000Y-53305000D02*
X208200000Y-53305000D01*
%TO.C,DS1*%
X155740000Y-76390000D02*
X155740000Y-75010000D01*
X157120000Y-76390000D02*
X155740000Y-76390000D01*
X158390000Y-73630000D02*
X166120000Y-73630000D01*
X158390000Y-76390000D02*
X158390000Y-73630000D01*
X158390000Y-76390000D02*
X166120000Y-76390000D01*
X166120000Y-76390000D02*
X166120000Y-73630000D01*
D12*
%TO.C,Q2*%
X89040000Y-129055000D02*
X89040000Y-139595000D01*
X89040000Y-139595000D02*
X93740000Y-139595000D01*
X93740000Y-129055000D02*
X89040000Y-129055000D01*
X93740000Y-139595000D02*
X93740000Y-129055000D01*
D13*
X88630000Y-131785000D02*
G75*
G02*
X88430000Y-131785000I-100000J0D01*
G01*
X88430000Y-131785000D02*
G75*
G02*
X88630000Y-131785000I100000J0D01*
G01*
D11*
%TO.C,R2*%
X59520000Y-67170000D02*
X59520000Y-69820000D01*
X59520000Y-84610000D02*
X59520000Y-81960000D01*
X61890000Y-69820000D02*
X57150000Y-69820000D01*
X57150000Y-81960000D01*
X61890000Y-81960000D01*
X61890000Y-69820000D01*
%TO.C,R16*%
X76450000Y-118825000D02*
X76450000Y-121475000D01*
X76450000Y-136265000D02*
X76450000Y-133615000D01*
X74080000Y-133615000D02*
X78820000Y-133615000D01*
X78820000Y-121475000D01*
X74080000Y-121475000D01*
X74080000Y-133615000D01*
%TO.C,Q5*%
X199500000Y-68110000D02*
X203100000Y-68110000D01*
X199461522Y-68098478D02*
G75*
G02*
X201300000Y-63659999I1838478J1838478D01*
G01*
X201300000Y-63660000D02*
G75*
G02*
X203138478Y-68098478I0J-2600000D01*
G01*
%TO.C,D3*%
X96220000Y-136649000D02*
X96220000Y-136805000D01*
X96220000Y-138965000D02*
X96220000Y-139121000D01*
X96220000Y-136649484D02*
G75*
G02*
X99451437Y-136805000I1560000J-1235516D01*
G01*
X96739039Y-136805000D02*
G75*
G02*
X98820961Y-136805000I1040961J-1080000D01*
G01*
X98820961Y-138965000D02*
G75*
G02*
X96739039Y-138965000I-1040961J1080000D01*
G01*
X99451437Y-138965000D02*
G75*
G02*
X96220000Y-139120516I-1671437J1080000D01*
G01*
%TO.C,C18*%
X86420000Y-112455000D02*
G75*
G02*
X78180000Y-112455000I-4120000J0D01*
G01*
X78180000Y-112455000D02*
G75*
G02*
X86420000Y-112455000I4120000J0D01*
G01*
%TO.C,C2*%
X116330000Y-124210000D02*
G75*
G02*
X108090000Y-124210000I-4120000J0D01*
G01*
X108090000Y-124210000D02*
G75*
G02*
X116330000Y-124210000I4120000J0D01*
G01*
%TO.C,C19*%
X189170000Y-105180000D02*
G75*
G02*
X180930000Y-105180000I-4120000J0D01*
G01*
X180930000Y-105180000D02*
G75*
G02*
X189170000Y-105180000I4120000J0D01*
G01*
%TO.C,C15*%
X95370000Y-146285000D02*
G75*
G02*
X85130000Y-146285000I-5120000J0D01*
G01*
X85130000Y-146285000D02*
G75*
G02*
X95370000Y-146285000I5120000J0D01*
G01*
D12*
%TO.C,Q1*%
X207730000Y-143470000D02*
X207730000Y-148170000D01*
X207730000Y-148170000D02*
X218270000Y-148170000D01*
X218270000Y-143470000D02*
X207730000Y-143470000D01*
X218270000Y-148170000D02*
X218270000Y-143470000D01*
D13*
X210560000Y-148680000D02*
G75*
G02*
X210360000Y-148680000I-100000J0D01*
G01*
X210360000Y-148680000D02*
G75*
G02*
X210560000Y-148680000I100000J0D01*
G01*
D11*
%TO.C,F1*%
X139060000Y-54510000D02*
X139060000Y-61510000D01*
D10*
X139060000Y-58010000D02*
X138380000Y-58010000D01*
D11*
X171700000Y-54510000D02*
X139060000Y-54510000D01*
X171700000Y-61510000D02*
X139060000Y-61510000D01*
X171700000Y-61510000D02*
X171700000Y-54510000D01*
D10*
X172480000Y-58010000D02*
X171700000Y-58010000D01*
D11*
%TO.C,RV1*%
X117560000Y-61510000D02*
X127300000Y-61510000D01*
X117560000Y-67151000D02*
X117560000Y-61510000D01*
X117560000Y-67151000D02*
X127300000Y-67151000D01*
X118810000Y-56510000D02*
X126050000Y-56510000D01*
X118810000Y-61510000D02*
X118810000Y-56510000D01*
X119810000Y-49510000D02*
X125050000Y-49510000D01*
X119810000Y-56510000D02*
X119810000Y-49510000D01*
X125050000Y-56510000D02*
X125050000Y-49510000D01*
X126050000Y-61510000D02*
X126050000Y-56510000D01*
X127300000Y-67151000D02*
X127300000Y-61510000D01*
%TO.C,D8*%
X213874000Y-109010000D02*
X214030000Y-109010000D01*
X216190000Y-109010000D02*
X216346000Y-109010000D01*
X213874484Y-109010000D02*
G75*
G02*
X214030000Y-105778563I1235516J1560000D01*
G01*
X214030000Y-108490961D02*
G75*
G02*
X214030000Y-106409039I1080000J1040961D01*
G01*
X216190000Y-105778563D02*
G75*
G02*
X216345516Y-109010000I-1080000J-1671437D01*
G01*
X216190000Y-106409039D02*
G75*
G02*
X216190000Y-108490961I-1080000J-1040961D01*
G01*
D12*
%TO.C,J11*%
X96910000Y-142965000D02*
X107070000Y-142965000D01*
X96910000Y-150165000D02*
X96910000Y-142965000D01*
X96910000Y-150165000D02*
X107070000Y-150165000D01*
X96910000Y-151165000D02*
X96910000Y-150165000D01*
X107070000Y-142965000D02*
X107070000Y-150165000D01*
X107070000Y-150165000D02*
X107070000Y-151165000D01*
X107070000Y-151165000D02*
X96910000Y-151165000D01*
D11*
%TO.C,C14*%
X230080000Y-148060000D02*
G75*
G02*
X219840000Y-148060000I-5120000J0D01*
G01*
X219840000Y-148060000D02*
G75*
G02*
X230080000Y-148060000I5120000J0D01*
G01*
%TO.C,C13*%
X51230000Y-75200000D02*
X55970000Y-75200000D01*
X51230000Y-85740000D02*
X51230000Y-75200000D01*
X55970000Y-75200000D02*
X55970000Y-85740000D01*
X55970000Y-85740000D02*
X51230000Y-85740000D01*
%TO.C,R8*%
X197940000Y-132560000D02*
X200590000Y-132560000D01*
X215380000Y-132560000D02*
X212730000Y-132560000D01*
X212730000Y-134930000D02*
X200590000Y-134930000D01*
X200590000Y-130190000D01*
X212730000Y-130190000D01*
X212730000Y-134930000D01*
%TO.C,BZ1*%
X208960000Y-77650000D02*
G75*
G02*
X196760000Y-77650000I-6100000J0D01*
G01*
X196760000Y-77650000D02*
G75*
G02*
X208960000Y-77650000I6100000J0D01*
G01*
%TO.C,D2*%
X215124000Y-140250000D02*
X215280000Y-140250000D01*
X217440000Y-140250000D02*
X217596000Y-140250000D01*
X215124484Y-140250000D02*
G75*
G02*
X215280000Y-137018563I1235516J1560000D01*
G01*
X215280000Y-139730961D02*
G75*
G02*
X215280000Y-137649039I1080000J1040961D01*
G01*
X217440000Y-137018563D02*
G75*
G02*
X217595516Y-140250000I-1080000J-1671437D01*
G01*
X217440000Y-137649039D02*
G75*
G02*
X217440000Y-139730961I-1080000J-1040961D01*
G01*
%TO.C,J4*%
X85160000Y-69940000D02*
X85160000Y-64750000D01*
X87920000Y-64750000D02*
X85160000Y-64750000D01*
X87920000Y-69940000D02*
X85160000Y-69940000D01*
X87920000Y-69940000D02*
X87920000Y-64750000D01*
X87920000Y-71210000D02*
X87920000Y-72590000D01*
X87920000Y-72590000D02*
X86540000Y-72590000D01*
%TO.C,R10*%
X80780000Y-59900000D02*
X83430000Y-59900000D01*
X98220000Y-59900000D02*
X95570000Y-59900000D01*
X95570000Y-62270000D02*
X83430000Y-62270000D01*
X83430000Y-57530000D01*
X95570000Y-57530000D01*
X95570000Y-62270000D01*
%TO.C,D10*%
X194850000Y-107380000D02*
X195760000Y-107380000D01*
X197185000Y-104660000D02*
X197185000Y-110100000D01*
X197305000Y-104660000D02*
X197305000Y-110100000D01*
X197425000Y-104660000D02*
X197425000Y-110100000D01*
X206410000Y-107380000D02*
X205500000Y-107380000D01*
X195760000Y-104660000D02*
X205500000Y-104660000D01*
X205500000Y-110100000D01*
X195760000Y-110100000D01*
X195760000Y-104660000D01*
%TO.C,J2*%
X90590000Y-69980000D02*
X90590000Y-64790000D01*
X93350000Y-64790000D02*
X90590000Y-64790000D01*
X93350000Y-69980000D02*
X90590000Y-69980000D01*
X93350000Y-69980000D02*
X93350000Y-64790000D01*
X93350000Y-71250000D02*
X93350000Y-72630000D01*
X93350000Y-72630000D02*
X91970000Y-72630000D01*
%TO.C,D7*%
X68320000Y-135649000D02*
X68320000Y-135805000D01*
X68320000Y-137965000D02*
X68320000Y-138121000D01*
X68320000Y-135649484D02*
G75*
G02*
X71551437Y-135805000I1560000J-1235516D01*
G01*
X68839039Y-135805000D02*
G75*
G02*
X70920961Y-135805000I1040961J-1080000D01*
G01*
X70920961Y-137965000D02*
G75*
G02*
X68839039Y-137965000I-1040961J1080000D01*
G01*
X71551437Y-137965000D02*
G75*
G02*
X68320000Y-138120516I-1671437J1080000D01*
G01*
%TO.C,SW2*%
X53530000Y-57890000D02*
X53530000Y-59390000D01*
X54780000Y-61890000D02*
X59280000Y-61890000D01*
X59280000Y-55390000D02*
X54780000Y-55390000D01*
X60530000Y-59390000D02*
X60530000Y-57890000D01*
%TO.C,C10*%
X156605000Y-80700000D02*
X167145000Y-80700000D01*
X156605000Y-85440000D02*
X156605000Y-80700000D01*
X167145000Y-80700000D02*
X167145000Y-85440000D01*
X167145000Y-85440000D02*
X156605000Y-85440000D01*
D12*
%TO.C,U2*%
X138920000Y-143060000D02*
X138920000Y-96800000D01*
X139920000Y-95800000D02*
X143890000Y-95800000D01*
X139920000Y-144060000D02*
X148840000Y-144060000D01*
X143890000Y-89060000D02*
X161890000Y-89060000D01*
X143890000Y-95800000D02*
X143890000Y-89060000D01*
X148840000Y-144060000D02*
X148840000Y-145060000D01*
X148840000Y-145060000D02*
X156940000Y-145060000D01*
X156940000Y-144060000D02*
X165860000Y-144060000D01*
X156940000Y-145060000D02*
X156940000Y-144060000D01*
X161890000Y-89060000D02*
X161890000Y-95800000D01*
X161890000Y-95800000D02*
X165860000Y-95800000D01*
X166860000Y-143060000D02*
X166860000Y-96800000D01*
X138920000Y-96800000D02*
G75*
G02*
X139920000Y-95800000I999999J1D01*
G01*
X139920000Y-144060000D02*
G75*
G02*
X138920000Y-143060000I-1J999999D01*
G01*
X165860000Y-95800000D02*
G75*
G02*
X166860000Y-96800000I0J-1000000D01*
G01*
X166860000Y-143060000D02*
G75*
G02*
X165860000Y-144060000I-1000000J0D01*
G01*
D13*
X138490000Y-97095000D02*
G75*
G02*
X138290000Y-97095000I-100000J0D01*
G01*
X138290000Y-97095000D02*
G75*
G02*
X138490000Y-97095000I100000J0D01*
G01*
D11*
%TO.C,C20*%
X65470000Y-146685000D02*
G75*
G02*
X55230000Y-146685000I-5120000J0D01*
G01*
X55230000Y-146685000D02*
G75*
G02*
X65470000Y-146685000I5120000J0D01*
G01*
%TO.C,R14*%
X54850000Y-121315000D02*
X54850000Y-123965000D01*
X54850000Y-138755000D02*
X54850000Y-136105000D01*
X57220000Y-123965000D02*
X52480000Y-123965000D01*
X52480000Y-136105000D01*
X57220000Y-136105000D01*
X57220000Y-123965000D01*
%TO.C,J12*%
X181380000Y-70390000D02*
X182760000Y-70390000D01*
X181380000Y-71770000D02*
X181380000Y-70390000D01*
X181380000Y-73040000D02*
X181380000Y-85850000D01*
X181380000Y-73040000D02*
X184140000Y-73040000D01*
X181380000Y-85850000D02*
X184140000Y-85850000D01*
X184140000Y-73040000D02*
X184140000Y-85850000D01*
%TO.C,D5*%
X98350000Y-117685000D02*
X98350000Y-118595000D01*
X98350000Y-129245000D02*
X98350000Y-128335000D01*
X101070000Y-120020000D02*
X95630000Y-120020000D01*
X101070000Y-120140000D02*
X95630000Y-120140000D01*
X101070000Y-120260000D02*
X95630000Y-120260000D01*
X101070000Y-118595000D02*
X95630000Y-118595000D01*
X95630000Y-128335000D01*
X101070000Y-128335000D01*
X101070000Y-118595000D01*
%TO.C,R7*%
X83620000Y-122055000D02*
X83620000Y-124705000D01*
X83620000Y-139495000D02*
X83620000Y-136845000D01*
X85990000Y-124705000D02*
X81250000Y-124705000D01*
X81250000Y-136845000D01*
X85990000Y-136845000D01*
X85990000Y-124705000D01*
%TO.C,C3*%
X109015000Y-130710000D02*
X119555000Y-130710000D01*
X109015000Y-135450000D02*
X109015000Y-130710000D01*
X119555000Y-130710000D02*
X119555000Y-135450000D01*
X119555000Y-135450000D02*
X109015000Y-135450000D01*
%TO.C,R17*%
X196890000Y-101180000D02*
X199540000Y-101180000D01*
X214330000Y-101180000D02*
X211680000Y-101180000D01*
X211680000Y-103550000D02*
X199540000Y-103550000D01*
X199540000Y-98810000D01*
X211680000Y-98810000D01*
X211680000Y-103550000D01*
%TO.C,R12*%
X61940000Y-108145000D02*
X61940000Y-110795000D01*
X61940000Y-125585000D02*
X61940000Y-122935000D01*
X59570000Y-122935000D02*
X64310000Y-122935000D01*
X64310000Y-110795000D01*
X59570000Y-110795000D01*
X59570000Y-122935000D01*
D12*
%TO.C,J10*%
X220760000Y-130720000D02*
X227960000Y-130720000D01*
X220760000Y-140880000D02*
X220760000Y-130720000D01*
X227960000Y-130720000D02*
X228960000Y-130720000D01*
X227960000Y-140880000D02*
X220760000Y-140880000D01*
X227960000Y-140880000D02*
X227960000Y-130720000D01*
X228960000Y-130720000D02*
X228960000Y-140880000D01*
X228960000Y-140880000D02*
X227960000Y-140880000D01*
D11*
%TO.C,J6*%
X79880000Y-69910000D02*
X79880000Y-64720000D01*
X82640000Y-64720000D02*
X79880000Y-64720000D01*
X82640000Y-69910000D02*
X79880000Y-69910000D01*
X82640000Y-69910000D02*
X82640000Y-64720000D01*
X82640000Y-71180000D02*
X82640000Y-72560000D01*
X82640000Y-72560000D02*
X81260000Y-72560000D01*
%TO.C,R13*%
X185430000Y-114480000D02*
X188080000Y-114480000D01*
X202870000Y-114480000D02*
X200220000Y-114480000D01*
X200220000Y-116850000D02*
X188080000Y-116850000D01*
X188080000Y-112110000D01*
X200220000Y-112110000D01*
X200220000Y-116850000D01*
%TO.C,D6*%
X220260000Y-85280000D02*
X220260000Y-85124000D01*
X220260000Y-87596000D02*
X220260000Y-87440000D01*
X217028563Y-85280000D02*
G75*
G02*
X220260000Y-85124484I1671437J-1080000D01*
G01*
X217659039Y-85280000D02*
G75*
G02*
X219740961Y-85280000I1040961J-1080000D01*
G01*
X219740961Y-87440000D02*
G75*
G02*
X217659039Y-87440000I-1040961J1080000D01*
G01*
X220260000Y-87595516D02*
G75*
G02*
X217028563Y-87440000I-1560000J1235516D01*
G01*
%TO.C,C8*%
X177630000Y-70060000D02*
G75*
G02*
X167390000Y-70060000I-5120000J0D01*
G01*
X167390000Y-70060000D02*
G75*
G02*
X177630000Y-70060000I5120000J0D01*
G01*
%TO.C,J8*%
X145200000Y-64810000D02*
X145200000Y-67570000D01*
X152930000Y-64810000D02*
X145200000Y-64810000D01*
X152930000Y-64810000D02*
X152930000Y-67570000D01*
X152930000Y-67570000D02*
X145200000Y-67570000D01*
X154200000Y-64810000D02*
X155580000Y-64810000D01*
X155580000Y-64810000D02*
X155580000Y-66190000D01*
D12*
%TO.C,Q4*%
X207900000Y-111690000D02*
X207900000Y-116390000D01*
X207900000Y-116390000D02*
X218440000Y-116390000D01*
X218440000Y-111690000D02*
X207900000Y-111690000D01*
X218440000Y-116390000D02*
X218440000Y-111690000D01*
D13*
X210730000Y-116900000D02*
G75*
G02*
X210530000Y-116900000I-100000J0D01*
G01*
X210530000Y-116900000D02*
G75*
G02*
X210730000Y-116900000I100000J0D01*
G01*
D11*
%TO.C,C21*%
X230230000Y-116880000D02*
G75*
G02*
X219990000Y-116880000I-5120000J0D01*
G01*
X219990000Y-116880000D02*
G75*
G02*
X230230000Y-116880000I5120000J0D01*
G01*
%TO.C,C12*%
X105070000Y-108285000D02*
G75*
G02*
X96830000Y-108285000I-4120000J0D01*
G01*
X96830000Y-108285000D02*
G75*
G02*
X105070000Y-108285000I4120000J0D01*
G01*
%TO.C,U1*%
X70360000Y-64650000D02*
X71740000Y-64650000D01*
X70360000Y-66030000D02*
X70360000Y-64650000D01*
X70360000Y-67300000D02*
X70360000Y-75030000D01*
X70360000Y-67300000D02*
X73120000Y-67300000D01*
X70360000Y-75030000D02*
X73120000Y-75030000D01*
X73120000Y-67300000D02*
X73120000Y-75030000D01*
D12*
%TO.C,J13*%
X68830000Y-142485000D02*
X78990000Y-142485000D01*
X68830000Y-149685000D02*
X68830000Y-142485000D01*
X68830000Y-149685000D02*
X78990000Y-149685000D01*
X68830000Y-150685000D02*
X68830000Y-149685000D01*
X78990000Y-142485000D02*
X78990000Y-149685000D01*
X78990000Y-149685000D02*
X78990000Y-150685000D01*
X78990000Y-150685000D02*
X68830000Y-150685000D01*
D11*
%TO.C,C5*%
X188340000Y-59590000D02*
G75*
G02*
X178100000Y-59590000I-5120000J0D01*
G01*
X178100000Y-59590000D02*
G75*
G02*
X188340000Y-59590000I5120000J0D01*
G01*
%TO.C,J1*%
X192520000Y-36200000D02*
X201720000Y-36200000D01*
X192520000Y-45000000D02*
X192520000Y-36200000D01*
X192520000Y-50900000D02*
X192520000Y-49000000D01*
X195220000Y-50900000D02*
X192520000Y-50900000D01*
X200870000Y-51100000D02*
X201920000Y-51100000D01*
X201720000Y-36200000D02*
X201720000Y-50900000D01*
X201720000Y-50900000D02*
X199120000Y-50900000D01*
X201920000Y-50050000D02*
X201920000Y-51100000D01*
%TO.C,R18*%
X192370000Y-64610000D02*
X192370000Y-67260000D01*
X192370000Y-82050000D02*
X192370000Y-79400000D01*
X194740000Y-67260000D02*
X190000000Y-67260000D01*
X190000000Y-79400000D01*
X194740000Y-79400000D01*
X194740000Y-67260000D01*
%TO.C,C9*%
X197405000Y-55280000D02*
X207945000Y-55280000D01*
X197405000Y-60020000D02*
X197405000Y-55280000D01*
X207945000Y-55280000D02*
X207945000Y-60020000D01*
X207945000Y-60020000D02*
X197405000Y-60020000D01*
%TO.C,R4*%
X185760000Y-145960000D02*
X188410000Y-145960000D01*
X203200000Y-145960000D02*
X200550000Y-145960000D01*
X200550000Y-148330000D02*
X188410000Y-148330000D01*
X188410000Y-143590000D01*
X200550000Y-143590000D01*
X200550000Y-148330000D01*
%TO.C,C6*%
X100095000Y-81520000D02*
X110635000Y-81520000D01*
X100095000Y-86260000D02*
X100095000Y-81520000D01*
X110635000Y-81520000D02*
X110635000Y-86260000D01*
X110635000Y-86260000D02*
X100095000Y-86260000D01*
%TO.C,M1*%
X51800000Y-69795000D02*
X51800000Y-64605000D01*
X54560000Y-64605000D02*
X51800000Y-64605000D01*
X54560000Y-69795000D02*
X51800000Y-69795000D01*
X54560000Y-69795000D02*
X54560000Y-64605000D01*
X54560000Y-71065000D02*
X54560000Y-72445000D01*
X54560000Y-72445000D02*
X53180000Y-72445000D01*
D12*
%TO.C,J14*%
X221410000Y-99300000D02*
X228610000Y-99300000D01*
X221410000Y-109460000D02*
X221410000Y-99300000D01*
X228610000Y-99300000D02*
X229610000Y-99300000D01*
X228610000Y-109460000D02*
X221410000Y-109460000D01*
X228610000Y-109460000D02*
X228610000Y-99300000D01*
X229610000Y-99300000D02*
X229610000Y-109460000D01*
X229610000Y-109460000D02*
X228610000Y-109460000D01*
D11*
%TO.C,D11*%
X211000000Y-75415000D02*
X216440000Y-75415000D01*
X211000000Y-75535000D02*
X216440000Y-75535000D01*
X211000000Y-75655000D02*
X216440000Y-75655000D01*
X213720000Y-66430000D02*
X213720000Y-67340000D01*
X213720000Y-77990000D02*
X213720000Y-77080000D01*
X211000000Y-77080000D02*
X216440000Y-77080000D01*
X216440000Y-67340000D01*
X211000000Y-67340000D01*
X211000000Y-77080000D01*
%TO.C,R6*%
X199260000Y-152860000D02*
X201910000Y-152860000D01*
X216700000Y-152860000D02*
X214050000Y-152860000D01*
X214050000Y-155230000D02*
X201910000Y-155230000D01*
X201910000Y-150490000D01*
X214050000Y-150490000D01*
X214050000Y-155230000D01*
%TO.C,D1*%
X140060000Y-49270000D02*
X140970000Y-49270000D01*
X149045000Y-51990000D02*
X149045000Y-46550000D01*
X149165000Y-51990000D02*
X149165000Y-46550000D01*
X149285000Y-51990000D02*
X149285000Y-46550000D01*
X151620000Y-49270000D02*
X150710000Y-49270000D01*
X150710000Y-51990000D02*
X140970000Y-51990000D01*
X140970000Y-46550000D01*
X150710000Y-46550000D01*
X150710000Y-51990000D01*
%TO.C,D9*%
X69150000Y-116685000D02*
X69150000Y-117595000D01*
X69150000Y-128245000D02*
X69150000Y-127335000D01*
X71870000Y-119020000D02*
X66430000Y-119020000D01*
X71870000Y-119140000D02*
X66430000Y-119140000D01*
X71870000Y-119260000D02*
X66430000Y-119260000D01*
X71870000Y-117595000D02*
X66430000Y-117595000D01*
X66430000Y-127335000D01*
X71870000Y-127335000D01*
X71870000Y-117595000D01*
%TO.C,C1*%
X95760000Y-64235000D02*
X100500000Y-64235000D01*
X95760000Y-74775000D02*
X95760000Y-64235000D01*
X100500000Y-64235000D02*
X100500000Y-74775000D01*
X100500000Y-74775000D02*
X95760000Y-74775000D01*
%TO.C,C4*%
X64230000Y-64375000D02*
X68970000Y-64375000D01*
X64230000Y-74915000D02*
X64230000Y-64375000D01*
X68970000Y-64375000D02*
X68970000Y-74915000D01*
X68970000Y-74915000D02*
X64230000Y-74915000D01*
%TO.C,R1*%
X86200000Y-77990000D02*
X88850000Y-77990000D01*
X103640000Y-77990000D02*
X100990000Y-77990000D01*
X88850000Y-75620000D02*
X100990000Y-75620000D01*
X100990000Y-80360000D01*
X88850000Y-80360000D01*
X88850000Y-75620000D01*
%TO.C,R3*%
X75390000Y-83810000D02*
X78040000Y-83810000D01*
X92830000Y-83810000D02*
X90180000Y-83810000D01*
X78040000Y-81440000D02*
X90180000Y-81440000D01*
X90180000Y-86180000D01*
X78040000Y-86180000D01*
X78040000Y-81440000D01*
%TD*%
%LPC*%
D14*
%TO.C,C17*%
X66845000Y-58750000D03*
X74345000Y-58750000D03*
%TD*%
D15*
%TO.C,D4*%
X194140000Y-138660000D03*
D16*
X209380000Y-138660000D03*
%TD*%
D17*
%TO.C,Q3*%
X60810000Y-132345000D03*
D18*
X60810000Y-134885000D03*
X60810000Y-137425000D03*
%TD*%
D19*
%TO.C,J9*%
X165490000Y-45000000D03*
D20*
X160410000Y-45000000D03*
%TD*%
D14*
%TO.C,SW1*%
X129280000Y-88040000D03*
X135780000Y-88040000D03*
X129280000Y-92540000D03*
X135780000Y-92540000D03*
%TD*%
D21*
%TO.C,RV2*%
X112060000Y-65150000D03*
D22*
X109560000Y-65150000D03*
X107060000Y-65150000D03*
%TD*%
D23*
%TO.C,R9*%
X104550000Y-139705000D03*
X104550000Y-119385000D03*
%TD*%
%TO.C,R5*%
X91190000Y-123020000D03*
X91190000Y-102700000D03*
%TD*%
D24*
%TO.C,J7*%
X76930000Y-71130000D03*
D25*
X76930000Y-68590000D03*
X76930000Y-66050000D03*
%TD*%
D23*
%TO.C,R11*%
X192890000Y-88500000D03*
X213210000Y-88500000D03*
%TD*%
%TO.C,R15*%
X217910000Y-120780000D03*
X197590000Y-120780000D03*
%TD*%
D24*
%TO.C,J5*%
X212505000Y-57650000D03*
D25*
X215045000Y-57650000D03*
%TD*%
D19*
%TO.C,J3*%
X177910000Y-45000000D03*
D20*
X172830000Y-45000000D03*
%TD*%
D26*
%TO.C,C11*%
X186660000Y-133460000D03*
X186660000Y-136960000D03*
%TD*%
D14*
%TO.C,C16*%
X122975000Y-87950000D03*
X115475000Y-87950000D03*
%TD*%
%TO.C,C7*%
X210570000Y-51785000D03*
X210570000Y-44285000D03*
%TD*%
D24*
%TO.C,DS1*%
X157120000Y-75010000D03*
D25*
X159660000Y-75010000D03*
X162200000Y-75010000D03*
X164740000Y-75010000D03*
%TD*%
D17*
%TO.C,Q2*%
X90450000Y-131785000D03*
D18*
X90450000Y-134325000D03*
X90450000Y-136865000D03*
%TD*%
D23*
%TO.C,R2*%
X59520000Y-65730000D03*
X59520000Y-86050000D03*
%TD*%
%TO.C,R16*%
X76450000Y-137705000D03*
X76450000Y-117385000D03*
%TD*%
D16*
%TO.C,H2*%
X115000000Y-144000000D03*
%TD*%
D27*
%TO.C,Q5*%
X200030000Y-66260000D03*
D28*
X201300000Y-66260000D03*
X202570000Y-66260000D03*
%TD*%
D21*
%TO.C,D3*%
X96510000Y-137885000D03*
D22*
X99050000Y-137885000D03*
%TD*%
D26*
%TO.C,C18*%
X84050000Y-112455000D03*
X80550000Y-112455000D03*
%TD*%
%TO.C,C2*%
X112210000Y-125960000D03*
X112210000Y-122460000D03*
%TD*%
%TO.C,C19*%
X185050000Y-103430000D03*
X185050000Y-106930000D03*
%TD*%
%TO.C,C15*%
X90250000Y-148785000D03*
X90250000Y-143785000D03*
%TD*%
D29*
%TO.C,Q1*%
X210460000Y-146760000D03*
D18*
X213000000Y-146760000D03*
X215540000Y-146760000D03*
%TD*%
D23*
%TO.C,F1*%
X173880000Y-58010000D03*
X136880000Y-58010000D03*
%TD*%
D21*
%TO.C,RV1*%
X124930000Y-65080000D03*
D22*
X122430000Y-65080000D03*
X119930000Y-65080000D03*
%TD*%
D21*
%TO.C,D8*%
X215110000Y-108720000D03*
D22*
X215110000Y-106180000D03*
%TD*%
D30*
%TO.C,J11*%
X99450000Y-147065000D03*
D20*
X104530000Y-147065000D03*
%TD*%
D26*
%TO.C,C14*%
X227460000Y-148060000D03*
X222460000Y-148060000D03*
%TD*%
D14*
%TO.C,C13*%
X53600000Y-76720000D03*
X53600000Y-84220000D03*
%TD*%
D23*
%TO.C,R8*%
X216820000Y-132560000D03*
X196500000Y-132560000D03*
%TD*%
D31*
%TO.C,BZ1*%
X206660000Y-77650000D03*
D14*
X199060000Y-77650000D03*
%TD*%
D21*
%TO.C,D2*%
X216360000Y-139960000D03*
D22*
X216360000Y-137420000D03*
%TD*%
D24*
%TO.C,J4*%
X86540000Y-71210000D03*
D25*
X86540000Y-68670000D03*
X86540000Y-66130000D03*
%TD*%
D23*
%TO.C,R10*%
X99660000Y-59900000D03*
X79340000Y-59900000D03*
%TD*%
D15*
%TO.C,D10*%
X193010000Y-107380000D03*
D16*
X208250000Y-107380000D03*
%TD*%
D24*
%TO.C,J2*%
X91970000Y-71250000D03*
D25*
X91970000Y-68710000D03*
X91970000Y-66170000D03*
%TD*%
D21*
%TO.C,D7*%
X68610000Y-136885000D03*
D22*
X71150000Y-136885000D03*
%TD*%
D16*
%TO.C,H1*%
X52000000Y-45000000D03*
%TD*%
D14*
%TO.C,SW2*%
X53780000Y-56390000D03*
X60280000Y-56390000D03*
X53780000Y-60890000D03*
X60280000Y-60890000D03*
%TD*%
%TO.C,C10*%
X165625000Y-83070000D03*
X158125000Y-83070000D03*
%TD*%
D32*
%TO.C,U2*%
X140190000Y-97095000D03*
D33*
X140190000Y-99635000D03*
X140190000Y-102175000D03*
X140190000Y-104715000D03*
X140190000Y-107255000D03*
X140190000Y-109795000D03*
X140190000Y-112335000D03*
X140190000Y-114875000D03*
X140190000Y-117415000D03*
X140190000Y-119955000D03*
X140190000Y-122495000D03*
X140190000Y-125035000D03*
X140190000Y-127575000D03*
X140190000Y-130115000D03*
X140190000Y-132655000D03*
X140190000Y-135195000D03*
X140190000Y-137735000D03*
X140190000Y-140275000D03*
X140190000Y-142815000D03*
X165590000Y-97095000D03*
X165590000Y-99635000D03*
X165590000Y-102175000D03*
X165590000Y-104715000D03*
X165590000Y-107255000D03*
X165590000Y-109795000D03*
X165590000Y-112335000D03*
X165590000Y-114875000D03*
X165590000Y-117415000D03*
X165590000Y-119955000D03*
X165590000Y-122495000D03*
X165590000Y-125035000D03*
X165590000Y-127575000D03*
X165590000Y-130115000D03*
X165590000Y-132655000D03*
X165590000Y-135195000D03*
X165590000Y-137735000D03*
X165590000Y-140275000D03*
X165590000Y-142815000D03*
%TD*%
D26*
%TO.C,C20*%
X60350000Y-149185000D03*
X60350000Y-144185000D03*
%TD*%
D23*
%TO.C,R14*%
X54850000Y-119875000D03*
X54850000Y-140195000D03*
%TD*%
D24*
%TO.C,J12*%
X182760000Y-71770000D03*
D25*
X182760000Y-74310000D03*
X182760000Y-76850000D03*
X182760000Y-79390000D03*
X182760000Y-81930000D03*
X182760000Y-84470000D03*
%TD*%
D34*
%TO.C,D5*%
X98350000Y-115845000D03*
D16*
X98350000Y-131085000D03*
%TD*%
D23*
%TO.C,R7*%
X83620000Y-120615000D03*
X83620000Y-140935000D03*
%TD*%
D14*
%TO.C,C3*%
X118035000Y-133080000D03*
X110535000Y-133080000D03*
%TD*%
D23*
%TO.C,R17*%
X215770000Y-101180000D03*
X195450000Y-101180000D03*
%TD*%
%TO.C,R12*%
X61940000Y-127025000D03*
X61940000Y-106705000D03*
%TD*%
D35*
%TO.C,J10*%
X224860000Y-138340000D03*
D20*
X224860000Y-133260000D03*
%TD*%
D24*
%TO.C,J6*%
X81260000Y-71180000D03*
D25*
X81260000Y-68640000D03*
X81260000Y-66100000D03*
%TD*%
D23*
%TO.C,R13*%
X204310000Y-114480000D03*
X183990000Y-114480000D03*
%TD*%
D21*
%TO.C,D6*%
X219970000Y-86360000D03*
D22*
X217430000Y-86360000D03*
%TD*%
D26*
%TO.C,C8*%
X170010000Y-70060000D03*
X175010000Y-70060000D03*
%TD*%
D24*
%TO.C,J8*%
X154200000Y-66190000D03*
D25*
X151660000Y-66190000D03*
X149120000Y-66190000D03*
X146580000Y-66190000D03*
%TD*%
D29*
%TO.C,Q4*%
X210630000Y-114980000D03*
D18*
X213170000Y-114980000D03*
X215710000Y-114980000D03*
%TD*%
D26*
%TO.C,C21*%
X227610000Y-116880000D03*
X222610000Y-116880000D03*
%TD*%
%TO.C,C12*%
X102700000Y-108285000D03*
X99200000Y-108285000D03*
%TD*%
D24*
%TO.C,U1*%
X71740000Y-66030000D03*
D25*
X71740000Y-68570000D03*
X71740000Y-71110000D03*
X71740000Y-73650000D03*
%TD*%
D30*
%TO.C,J13*%
X71370000Y-146585000D03*
D20*
X76450000Y-146585000D03*
%TD*%
D26*
%TO.C,C5*%
X180720000Y-59590000D03*
X185720000Y-59590000D03*
%TD*%
D36*
%TO.C,J1*%
X197120000Y-50000000D03*
D37*
X197120000Y-44000000D03*
D38*
X192420000Y-47000000D03*
%TD*%
D16*
%TO.C,H3*%
X225000000Y-46000000D03*
%TD*%
D23*
%TO.C,R18*%
X192370000Y-63170000D03*
X192370000Y-83490000D03*
%TD*%
D14*
%TO.C,C9*%
X206425000Y-57650000D03*
X198925000Y-57650000D03*
%TD*%
D23*
%TO.C,R4*%
X204640000Y-145960000D03*
X184320000Y-145960000D03*
%TD*%
D14*
%TO.C,C6*%
X101615000Y-83890000D03*
X109115000Y-83890000D03*
%TD*%
D24*
%TO.C,M1*%
X53180000Y-71065000D03*
D25*
X53180000Y-68525000D03*
X53180000Y-65985000D03*
%TD*%
D35*
%TO.C,J14*%
X225510000Y-106920000D03*
D20*
X225510000Y-101840000D03*
%TD*%
D39*
%TO.C,D11*%
X213720000Y-79830000D03*
D16*
X213720000Y-64590000D03*
%TD*%
%TO.C,H4*%
X186000000Y-124000000D03*
%TD*%
D23*
%TO.C,R6*%
X218140000Y-152860000D03*
X197820000Y-152860000D03*
%TD*%
D40*
%TO.C,D1*%
X153460000Y-49270000D03*
D16*
X138220000Y-49270000D03*
%TD*%
D34*
%TO.C,D9*%
X69150000Y-114845000D03*
D16*
X69150000Y-130085000D03*
%TD*%
D14*
%TO.C,C1*%
X98130000Y-73255000D03*
X98130000Y-65755000D03*
%TD*%
%TO.C,C4*%
X66600000Y-65895000D03*
X66600000Y-73395000D03*
%TD*%
D23*
%TO.C,R1*%
X84760000Y-77990000D03*
X105080000Y-77990000D03*
%TD*%
%TO.C,R3*%
X73950000Y-83810000D03*
X94270000Y-83810000D03*
%TD*%
%LPD*%
M02*
