M48
; DRILL file {KiCad 9.0.4} date 2026-05-02T13:54:13+0100
; FORMAT={-:-/ absolute / inch / decimal}
; #@! TF.CreationDate,2026-05-02T13:54:13+01:00
; #@! TF.GenerationSoftware,Kicad,Pcbnew,9.0.4
; #@! TF.FileFunction,Plated,1,2,PTH
FMAT,2
INCH
; #@! TA.AperFunction,Plated,PTH,ComponentDrill
T1C0.0295
; #@! TA.AperFunction,Plated,PTH,ComponentDrill
T2C0.0315
; #@! TA.AperFunction,Plated,PTH,ComponentDrill
T3C0.0354
; #@! TA.AperFunction,Plated,PTH,ComponentDrill
T4C0.0394
; #@! TA.AperFunction,Plated,PTH,ComponentDrill
T5C0.0433
; #@! TA.AperFunction,Plated,PTH,ComponentDrill
T6C0.0472
; #@! TA.AperFunction,Plated,PTH,ComponentDrill
T7C0.0484
; #@! TA.AperFunction,Plated,PTH,ComponentDrill
T8C0.0630
%
G90
G05
T1
X7.8752Y-2.6087
X7.9252Y-2.6087
X7.9752Y-2.6087
T2
X2.376Y-5.6766
X2.376Y-5.8734
X3.1713Y-4.4274
X3.3091Y-4.4274
X3.5531Y-5.6608
X3.5531Y-5.8577
X3.9055Y-4.2632
X4.0433Y-4.2632
X4.4177Y-4.8213
X4.4177Y-4.9591
X6.6933Y-2.7583
X6.8902Y-2.7583
X7.115Y-2.3461
X7.2854Y-4.072
X7.2854Y-4.2098
X7.3118Y-2.3461
X7.3488Y-5.2543
X7.3488Y-5.3921
X8.7583Y-5.8291
X8.7642Y-4.6016
X8.9551Y-5.8291
X8.961Y-4.6016
T3
X2.7012Y-5.3892
X2.8012Y-5.3892
X3.7996Y-5.4285
X3.8996Y-5.4285
X5.5193Y-3.8226
X5.5193Y-3.9226
X5.5193Y-4.0226
X5.5193Y-4.1226
X5.5193Y-4.2226
X5.5193Y-4.3226
X5.5193Y-4.4226
X5.5193Y-4.5226
X5.5193Y-4.6226
X5.5193Y-4.7226
X5.5193Y-4.8226
X5.5193Y-4.9226
X5.5193Y-5.0226
X5.5193Y-5.1226
X5.5193Y-5.2226
X5.5193Y-5.3226
X5.5193Y-5.4226
X5.5193Y-5.5226
X5.5193Y-5.6226
X6.5193Y-3.8226
X6.5193Y-3.9226
X6.5193Y-4.0226
X6.5193Y-4.1226
X6.5193Y-4.2226
X6.5193Y-4.3226
X6.5193Y-4.4226
X6.5193Y-4.5226
X6.5193Y-4.6226
X6.5193Y-4.7226
X6.5193Y-4.8226
X6.5193Y-4.9226
X6.5193Y-5.0226
X6.5193Y-5.1226
X6.5193Y-5.2226
X6.5193Y-5.3226
X6.5193Y-5.4226
X6.5193Y-5.5226
X6.5193Y-5.6226
X8.4689Y-4.1803
X8.4689Y-4.2803
X8.5181Y-5.4102
X8.5181Y-5.5102
X8.5602Y-3.4
X8.6602Y-3.4
T4
X2.0937Y-2.5978
X2.0937Y-2.6978
X2.0937Y-2.7978
X2.1102Y-3.0205
X2.1102Y-3.3157
X2.622Y-2.5943
X2.622Y-2.8896
X2.6317Y-2.313
X2.8244Y-2.5996
X2.8244Y-2.6996
X2.8244Y-2.7996
X2.8244Y-2.8996
X2.927Y-2.313
X3.0287Y-2.6004
X3.0287Y-2.7004
X3.0287Y-2.8004
X3.1992Y-2.6024
X3.1992Y-2.7024
X3.1992Y-2.8024
X3.4071Y-2.6035
X3.4071Y-2.7035
X3.4071Y-2.8035
X3.6209Y-2.6051
X3.6209Y-2.7051
X3.6209Y-2.8051
X3.8634Y-2.5888
X3.8634Y-2.8841
X4.0006Y-3.3028
X4.215Y-2.565
X4.2959Y-3.3028
X4.3134Y-2.565
X4.3518Y-5.2394
X4.4118Y-2.565
X4.5463Y-3.4626
X4.647Y-5.2394
X4.7217Y-2.5622
X4.8201Y-2.5622
X4.8415Y-3.4626
X4.9185Y-2.5622
X5.7709Y-2.6059
X5.8709Y-2.6059
X5.9709Y-2.6059
X6.0709Y-2.6059
X6.1858Y-2.9531
X6.2254Y-3.2705
X6.2858Y-2.9531
X6.3858Y-2.9531
X6.4858Y-2.9531
X6.5207Y-3.2705
X7.1953Y-2.8256
X7.1953Y-2.9256
X7.1953Y-3.0256
X7.1953Y-3.1256
X7.1953Y-3.2256
X7.1953Y-3.3256
X7.8317Y-2.2697
X7.837Y-3.0571
X8.127Y-2.2697
X8.1362Y-3.0571
X8.2902Y-1.7435
X8.2902Y-2.0388
X8.3663Y-2.2697
X8.4663Y-2.2697
T5
X2.1173Y-2.2201
X2.1173Y-2.3972
X2.3732Y-2.2201
X2.3732Y-2.3972
X2.8098Y-5.7711
X3.0098Y-5.7711
X3.9154Y-5.79
X4.1154Y-5.79
X5.0898Y-3.4661
X5.0898Y-3.6433
X5.3457Y-3.4661
X5.3457Y-3.6433
X6.3154Y-1.7717
X6.5154Y-1.7717
X6.8043Y-1.7717
X7.0043Y-1.7717
X8.8528Y-5.2465
X8.8528Y-5.4465
X8.8783Y-4.0094
X8.8783Y-4.2094
T6
X2.1594Y-4.7195
X2.1594Y-5.5195
X2.3433Y-2.5878
X2.3433Y-3.3878
X2.4386Y-4.201
X2.4386Y-5.001
X2.9114Y-3.2996
X3.0098Y-4.6215
X3.0098Y-5.4215
X3.1236Y-2.3583
X3.2921Y-4.7486
X3.2921Y-5.5486
X3.337Y-3.0705
X3.5902Y-4.0433
X3.5902Y-4.8433
X3.7114Y-3.2996
X3.9236Y-2.3583
X4.1161Y-4.7002
X4.1161Y-5.5002
X4.137Y-3.0705
X5.389Y-2.2839
X6.8457Y-2.2839
X7.2437Y-4.5071
X7.2567Y-5.7465
X7.5736Y-2.487
X7.5736Y-3.287
X7.5941Y-3.4843
X7.6949Y-3.9835
X7.7362Y-5.2189
X7.7791Y-4.7551
X7.7882Y-6.0181
X8.0437Y-4.5071
X8.0567Y-5.7465
X8.3941Y-3.4843
X8.4949Y-3.9835
X8.5362Y-5.2189
X8.5791Y-4.7551
X8.5882Y-6.0181
T7
X2.3941Y-5.2104
X2.3941Y-5.3104
X2.3941Y-5.4104
X3.561Y-5.1884
X3.561Y-5.2884
X3.561Y-5.3884
X8.2858Y-5.778
X8.2925Y-4.5268
X8.3858Y-5.778
X8.3925Y-4.5268
X8.4858Y-5.778
X8.4925Y-4.5268
T8
X2.7224Y-4.5215
X2.7224Y-5.1215
X3.872Y-4.5608
X3.872Y-5.1608
X5.4417Y-1.9398
X6.0417Y-1.9398
X7.5988Y-4.2276
X7.6433Y-5.4591
X8.1988Y-4.2276
X8.2433Y-5.4591
X8.4142Y-2.5429
X8.4142Y-3.1429
T4
G00X7.5756Y-1.811
M15
G01X7.5756Y-1.8898
M16
G05
G00X7.8Y-1.7323
M15
G01X7.7213Y-1.7323
M16
G05
G00X7.8Y-1.9685
M15
G01X7.7213Y-1.9685
M16
G05
M30
