%TF.GenerationSoftware,KiCad,Pcbnew,9.0.4*%
%TF.CreationDate,2026-05-02T13:54:13+01:00*%
%TF.ProjectId,circuit_smart-soja,63697263-7569-4745-9f73-6d6172742d73,rev?*%
%TF.SameCoordinates,Original*%
%TF.FileFunction,Soldermask,Top*%
%TF.FilePolarity,Negative*%
%FSLAX46Y46*%
G04 Gerber Fmt 4.6, Leading zero omitted, Abs format (unit mm)*
G04 Created by KiCad (PCBNEW 9.0.4) date 2026-05-02 13:54:13*
%MOMM*%
%LPD*%
G01*
G04 APERTURE LIST*
G04 Aperture macros list*
%AMRoundRect*
0 Rectangle with rounded corners*
0 $1 Rounding radius*
0 $2 $3 $4 $5 $6 $7 $8 $9 X,Y pos of 4 corners*
0 Add a 4 corners polygon primitive as box body*
4,1,4,$2,$3,$4,$5,$6,$7,$8,$9,$2,$3,0*
0 Add four circle primitives for the rounded corners*
1,1,$1+$1,$2,$3*
1,1,$1+$1,$4,$5*
1,1,$1+$1,$6,$7*
1,1,$1+$1,$8,$9*
0 Add four rect primitives between the rounded corners*
20,1,$1+$1,$2,$3,$4,$5,0*
20,1,$1+$1,$4,$5,$6,$7,0*
20,1,$1+$1,$6,$7,$8,$9,0*
20,1,$1+$1,$8,$9,$2,$3,0*%
G04 Aperture macros list end*
%ADD10C,2.000000*%
%ADD11RoundRect,0.250000X-1.350000X-1.350000X1.350000X-1.350000X1.350000X1.350000X-1.350000X1.350000X0*%
%ADD12C,3.200000*%
%ADD13RoundRect,0.102000X-0.925000X0.925000X-0.925000X-0.925000X0.925000X-0.925000X0.925000X0.925000X0*%
%ADD14C,2.054000*%
%ADD15RoundRect,0.102000X0.825000X0.825000X-0.825000X0.825000X-0.825000X-0.825000X0.825000X-0.825000X0*%
%ADD16C,1.854000*%
%ADD17R,1.800000X1.800000*%
%ADD18C,1.800000*%
%ADD19C,2.400000*%
%ADD20R,1.700000X1.700000*%
%ADD21C,1.700000*%
%ADD22C,1.600000*%
%ADD23R,1.050000X1.500000*%
%ADD24O,1.050000X1.500000*%
%ADD25RoundRect,0.102000X-0.925000X-0.925000X0.925000X-0.925000X0.925000X0.925000X-0.925000X0.925000X0*%
%ADD26RoundRect,0.102000X-0.825000X-0.825000X0.825000X-0.825000X0.825000X0.825000X-0.825000X0.825000X0*%
%ADD27R,2.000000X2.000000*%
%ADD28RoundRect,0.102000X-0.704000X-0.704000X0.704000X-0.704000X0.704000X0.704000X-0.704000X0.704000X0*%
%ADD29C,1.612000*%
%ADD30RoundRect,0.250000X-1.350000X1.350000X-1.350000X-1.350000X1.350000X-1.350000X1.350000X1.350000X0*%
%ADD31RoundRect,0.102000X0.825000X-0.825000X0.825000X0.825000X-0.825000X0.825000X-0.825000X-0.825000X0*%
%ADD32R,3.500000X3.500000*%
%ADD33RoundRect,0.750000X-1.000000X0.750000X-1.000000X-0.750000X1.000000X-0.750000X1.000000X0.750000X0*%
%ADD34RoundRect,0.875000X-0.875000X0.875000X-0.875000X-0.875000X0.875000X-0.875000X0.875000X0.875000X0*%
%ADD35RoundRect,0.250000X1.350000X-1.350000X1.350000X1.350000X-1.350000X1.350000X-1.350000X-1.350000X0*%
%ADD36RoundRect,0.250000X1.350000X1.350000X-1.350000X1.350000X-1.350000X-1.350000X1.350000X-1.350000X0*%
G04 APERTURE END LIST*
D10*
%TO.C,C17*%
X66845000Y-58750000D03*
X74345000Y-58750000D03*
%TD*%
D11*
%TO.C,D4*%
X194140000Y-138660000D03*
D12*
X209380000Y-138660000D03*
%TD*%
D13*
%TO.C,Q3*%
X60810000Y-132345000D03*
D14*
X60810000Y-134885000D03*
X60810000Y-137425000D03*
%TD*%
D15*
%TO.C,J9*%
X165490000Y-45000000D03*
D16*
X160410000Y-45000000D03*
%TD*%
D10*
%TO.C,SW1*%
X129280000Y-88040000D03*
X135780000Y-88040000D03*
X129280000Y-92540000D03*
X135780000Y-92540000D03*
%TD*%
D17*
%TO.C,RV2*%
X112060000Y-65150000D03*
D18*
X109560000Y-65150000D03*
X107060000Y-65150000D03*
%TD*%
D19*
%TO.C,R9*%
X104550000Y-139705000D03*
X104550000Y-119385000D03*
%TD*%
%TO.C,R5*%
X91190000Y-123020000D03*
X91190000Y-102700000D03*
%TD*%
D20*
%TO.C,J7*%
X76930000Y-71130000D03*
D21*
X76930000Y-68590000D03*
X76930000Y-66050000D03*
%TD*%
D19*
%TO.C,R11*%
X192890000Y-88500000D03*
X213210000Y-88500000D03*
%TD*%
%TO.C,R15*%
X217910000Y-120780000D03*
X197590000Y-120780000D03*
%TD*%
D20*
%TO.C,J5*%
X212505000Y-57650000D03*
D21*
X215045000Y-57650000D03*
%TD*%
D15*
%TO.C,J3*%
X177910000Y-45000000D03*
D16*
X172830000Y-45000000D03*
%TD*%
D22*
%TO.C,C11*%
X186660000Y-133460000D03*
X186660000Y-136960000D03*
%TD*%
D10*
%TO.C,C16*%
X122975000Y-87950000D03*
X115475000Y-87950000D03*
%TD*%
%TO.C,C7*%
X210570000Y-51785000D03*
X210570000Y-44285000D03*
%TD*%
D20*
%TO.C,DS1*%
X157120000Y-75010000D03*
D21*
X159660000Y-75010000D03*
X162200000Y-75010000D03*
X164740000Y-75010000D03*
%TD*%
D13*
%TO.C,Q2*%
X90450000Y-131785000D03*
D14*
X90450000Y-134325000D03*
X90450000Y-136865000D03*
%TD*%
D19*
%TO.C,R2*%
X59520000Y-65730000D03*
X59520000Y-86050000D03*
%TD*%
%TO.C,R16*%
X76450000Y-137705000D03*
X76450000Y-117385000D03*
%TD*%
D23*
%TO.C,Q5*%
X200030000Y-66260000D03*
D24*
X201300000Y-66260000D03*
X202570000Y-66260000D03*
%TD*%
D17*
%TO.C,D3*%
X96510000Y-137885000D03*
D18*
X99050000Y-137885000D03*
%TD*%
D22*
%TO.C,C18*%
X84050000Y-112455000D03*
X80550000Y-112455000D03*
%TD*%
%TO.C,C2*%
X112210000Y-125960000D03*
X112210000Y-122460000D03*
%TD*%
%TO.C,C19*%
X185050000Y-103430000D03*
X185050000Y-106930000D03*
%TD*%
%TO.C,C15*%
X90250000Y-148785000D03*
X90250000Y-143785000D03*
%TD*%
D25*
%TO.C,Q1*%
X210460000Y-146760000D03*
D14*
X213000000Y-146760000D03*
X215540000Y-146760000D03*
%TD*%
D19*
%TO.C,F1*%
X173880000Y-58010000D03*
X136880000Y-58010000D03*
%TD*%
D17*
%TO.C,RV1*%
X124930000Y-65080000D03*
D18*
X122430000Y-65080000D03*
X119930000Y-65080000D03*
%TD*%
D17*
%TO.C,D8*%
X215110000Y-108720000D03*
D18*
X215110000Y-106180000D03*
%TD*%
D26*
%TO.C,J11*%
X99450000Y-147065000D03*
D16*
X104530000Y-147065000D03*
%TD*%
D22*
%TO.C,C14*%
X227460000Y-148060000D03*
X222460000Y-148060000D03*
%TD*%
D10*
%TO.C,C13*%
X53600000Y-76720000D03*
X53600000Y-84220000D03*
%TD*%
D19*
%TO.C,R8*%
X216820000Y-132560000D03*
X196500000Y-132560000D03*
%TD*%
D27*
%TO.C,BZ1*%
X206660000Y-77650000D03*
D10*
X199060000Y-77650000D03*
%TD*%
D17*
%TO.C,D2*%
X216360000Y-139960000D03*
D18*
X216360000Y-137420000D03*
%TD*%
D20*
%TO.C,J4*%
X86540000Y-71210000D03*
D21*
X86540000Y-68670000D03*
X86540000Y-66130000D03*
%TD*%
D19*
%TO.C,R10*%
X99660000Y-59900000D03*
X79340000Y-59900000D03*
%TD*%
D11*
%TO.C,D10*%
X193010000Y-107380000D03*
D12*
X208250000Y-107380000D03*
%TD*%
D20*
%TO.C,J2*%
X91970000Y-71250000D03*
D21*
X91970000Y-68710000D03*
X91970000Y-66170000D03*
%TD*%
D17*
%TO.C,D7*%
X68610000Y-136885000D03*
D18*
X71150000Y-136885000D03*
%TD*%
D10*
%TO.C,SW2*%
X53780000Y-56390000D03*
X60280000Y-56390000D03*
X53780000Y-60890000D03*
X60280000Y-60890000D03*
%TD*%
%TO.C,C10*%
X165625000Y-83070000D03*
X158125000Y-83070000D03*
%TD*%
D28*
%TO.C,U2*%
X140190000Y-97095000D03*
D29*
X140190000Y-99635000D03*
X140190000Y-102175000D03*
X140190000Y-104715000D03*
X140190000Y-107255000D03*
X140190000Y-109795000D03*
X140190000Y-112335000D03*
X140190000Y-114875000D03*
X140190000Y-117415000D03*
X140190000Y-119955000D03*
X140190000Y-122495000D03*
X140190000Y-125035000D03*
X140190000Y-127575000D03*
X140190000Y-130115000D03*
X140190000Y-132655000D03*
X140190000Y-135195000D03*
X140190000Y-137735000D03*
X140190000Y-140275000D03*
X140190000Y-142815000D03*
X165590000Y-97095000D03*
X165590000Y-99635000D03*
X165590000Y-102175000D03*
X165590000Y-104715000D03*
X165590000Y-107255000D03*
X165590000Y-109795000D03*
X165590000Y-112335000D03*
X165590000Y-114875000D03*
X165590000Y-117415000D03*
X165590000Y-119955000D03*
X165590000Y-122495000D03*
X165590000Y-125035000D03*
X165590000Y-127575000D03*
X165590000Y-130115000D03*
X165590000Y-132655000D03*
X165590000Y-135195000D03*
X165590000Y-137735000D03*
X165590000Y-140275000D03*
X165590000Y-142815000D03*
%TD*%
D22*
%TO.C,C20*%
X60350000Y-149185000D03*
X60350000Y-144185000D03*
%TD*%
D19*
%TO.C,R14*%
X54850000Y-119875000D03*
X54850000Y-140195000D03*
%TD*%
D20*
%TO.C,J12*%
X182760000Y-71770000D03*
D21*
X182760000Y-74310000D03*
X182760000Y-76850000D03*
X182760000Y-79390000D03*
X182760000Y-81930000D03*
X182760000Y-84470000D03*
%TD*%
D30*
%TO.C,D5*%
X98350000Y-115845000D03*
D12*
X98350000Y-131085000D03*
%TD*%
D19*
%TO.C,R7*%
X83620000Y-120615000D03*
X83620000Y-140935000D03*
%TD*%
D10*
%TO.C,C3*%
X118035000Y-133080000D03*
X110535000Y-133080000D03*
%TD*%
D19*
%TO.C,R17*%
X215770000Y-101180000D03*
X195450000Y-101180000D03*
%TD*%
%TO.C,R12*%
X61940000Y-127025000D03*
X61940000Y-106705000D03*
%TD*%
D31*
%TO.C,J10*%
X224860000Y-138340000D03*
D16*
X224860000Y-133260000D03*
%TD*%
D20*
%TO.C,J6*%
X81260000Y-71180000D03*
D21*
X81260000Y-68640000D03*
X81260000Y-66100000D03*
%TD*%
D19*
%TO.C,R13*%
X204310000Y-114480000D03*
X183990000Y-114480000D03*
%TD*%
D17*
%TO.C,D6*%
X219970000Y-86360000D03*
D18*
X217430000Y-86360000D03*
%TD*%
D22*
%TO.C,C8*%
X170010000Y-70060000D03*
X175010000Y-70060000D03*
%TD*%
D20*
%TO.C,J8*%
X154200000Y-66190000D03*
D21*
X151660000Y-66190000D03*
X149120000Y-66190000D03*
X146580000Y-66190000D03*
%TD*%
D25*
%TO.C,Q4*%
X210630000Y-114980000D03*
D14*
X213170000Y-114980000D03*
X215710000Y-114980000D03*
%TD*%
D22*
%TO.C,C21*%
X227610000Y-116880000D03*
X222610000Y-116880000D03*
%TD*%
%TO.C,C12*%
X102700000Y-108285000D03*
X99200000Y-108285000D03*
%TD*%
D20*
%TO.C,U1*%
X71740000Y-66030000D03*
D21*
X71740000Y-68570000D03*
X71740000Y-71110000D03*
X71740000Y-73650000D03*
%TD*%
D26*
%TO.C,J13*%
X71370000Y-146585000D03*
D16*
X76450000Y-146585000D03*
%TD*%
D22*
%TO.C,C5*%
X180720000Y-59590000D03*
X185720000Y-59590000D03*
%TD*%
D32*
%TO.C,J1*%
X197120000Y-50000000D03*
D33*
X197120000Y-44000000D03*
D34*
X192420000Y-47000000D03*
%TD*%
D19*
%TO.C,R18*%
X192370000Y-63170000D03*
X192370000Y-83490000D03*
%TD*%
D10*
%TO.C,C9*%
X206425000Y-57650000D03*
X198925000Y-57650000D03*
%TD*%
D19*
%TO.C,R4*%
X204640000Y-145960000D03*
X184320000Y-145960000D03*
%TD*%
D10*
%TO.C,C6*%
X101615000Y-83890000D03*
X109115000Y-83890000D03*
%TD*%
D20*
%TO.C,M1*%
X53180000Y-71065000D03*
D21*
X53180000Y-68525000D03*
X53180000Y-65985000D03*
%TD*%
D31*
%TO.C,J14*%
X225510000Y-106920000D03*
D16*
X225510000Y-101840000D03*
%TD*%
D35*
%TO.C,D11*%
X213720000Y-79830000D03*
D12*
X213720000Y-64590000D03*
%TD*%
D19*
%TO.C,R6*%
X218140000Y-152860000D03*
X197820000Y-152860000D03*
%TD*%
D36*
%TO.C,D1*%
X153460000Y-49270000D03*
D12*
X138220000Y-49270000D03*
%TD*%
D30*
%TO.C,D9*%
X69150000Y-114845000D03*
D12*
X69150000Y-130085000D03*
%TD*%
D10*
%TO.C,C1*%
X98130000Y-73255000D03*
X98130000Y-65755000D03*
%TD*%
%TO.C,C4*%
X66600000Y-65895000D03*
X66600000Y-73395000D03*
%TD*%
D19*
%TO.C,R1*%
X84760000Y-77990000D03*
X105080000Y-77990000D03*
%TD*%
%TO.C,R3*%
X73950000Y-83810000D03*
X94270000Y-83810000D03*
%TD*%
M02*
